<?xml version="1.0" encoding="UTF-8" standalone="no"?>
<!-- Created with Inkscape (http://www.inkscape.org/) -->

<svg
   width="1920"
   height="5490"
   viewBox="0 0 1920 5490.0002"
   version="1.1"
   id="svg5462"
   inkscape:version="1.2.2 (b0a8486541, 2022-12-01)"
   sodipodi:docname="home.svg"
   xml:space="preserve"
   xmlns:inkscape="http://www.inkscape.org/namespaces/inkscape"
   xmlns:sodipodi="http://sodipodi.sourceforge.net/DTD/sodipodi-0.dtd"
   xmlns="http://www.w3.org/2000/svg"
   xmlns:svg="http://www.w3.org/2000/svg"
   xmlns:rdf="http://www.w3.org/1999/02/22-rdf-syntax-ns#"
   xmlns:cc="http://creativecommons.org/ns#"
   xmlns:dc="http://purl.org/dc/elements/1.1/"><defs
     id="defs5456"><rect
       x="744.20734"
       y="994.68427"
       width="800.73694"
       height="275.4617"
       id="rect14496" /><rect
       x="728.14069"
       y="931.9024"
       width="359.19986"
       height="86.411125"
       id="rect12156" /><rect
       x="88.072746"
       y="133.7346"
       width="164.4295"
       height="28.14171"
       id="rect1890" /><clipPath
       clipPathUnits="userSpaceOnUse"
       id="clipPath9058"><rect
         class="jmiguelrivas-github-io"
         width="885.63403"
         height="354.2536"
         x="1037.6031"
         y="-1254.6235"
         fill="#364e8c"
         rx="0"
         ry="0"
         id="rect9060"
         style="stroke-width:1.77127" /></clipPath><rect
       x="744.20734"
       y="994.68427"
       width="800.73694"
       height="275.4617"
       id="rect26017" /><rect
       x="744.20734"
       y="994.68427"
       width="800.73694"
       height="275.4617"
       id="rect26130" /><rect
       x="744.20734"
       y="994.68427"
       width="800.73694"
       height="275.4617"
       id="rect26607" /><rect
       x="744.20734"
       y="994.68427"
       width="800.73694"
       height="275.4617"
       id="rect26637" /><rect
       x="744.20734"
       y="994.68427"
       width="800.73694"
       height="275.4617"
       id="rect27103" /><rect
       x="744.20734"
       y="994.68427"
       width="800.73694"
       height="275.4617"
       id="rect27133" /><rect
       x="744.20734"
       y="994.68427"
       width="800.73694"
       height="275.4617"
       id="rect27233" /><rect
       x="744.20734"
       y="994.68427"
       width="800.73694"
       height="275.4617"
       id="rect27263" /><rect
       x="744.20734"
       y="994.68427"
       width="800.73694"
       height="275.4617"
       id="rect27363" /><rect
       x="744.20734"
       y="994.68427"
       width="800.73694"
       height="275.4617"
       id="rect27393" /><path
       id="plus-sign"
       fill="#e18069"
       d="m 101.81,136.344 q -0.767,0 -1.28,-0.512 -0.511,-0.512 -0.511,-1.28 0,-0.768 0.512,-1.248 0.512,-0.48 1.28,-0.48 h 13.024 q 0.768,0 1.28,0.512 0.512,0.48 0.512,1.248 0,0.768 -0.512,1.28 -0.512,0.48 -1.28,0.48 z m 6.465,6.24 q -0.896,0 -1.504,-0.576 -0.576,-0.576 -0.576,-1.472 v -12.48 q 0,-0.896 0.608,-1.472 0.608,-0.576 1.504,-0.576 0.928,0 1.472,0.576 0.576,0.576 0.576,1.472 v 12.48 q 0,0.896 -0.576,1.472 -0.576,0.576 -1.504,0.576 z" /><g
       id="animated-head"><path
         fill="#ebd5ce"
         d="m 286.812,139.622 c 0,0 2.123,12.918 -0.749,18.528 -2.871,5.61 -10.095,7.904 -19.009,7.868 -8.913,-0.035 -16.817,-5.128 -17.856,-9.26 -1.04,-4.132 1.434,-21.255 1.434,-21.255 z"
         id="path30575" /><path
         fill="#e5b8aa"
         d="m 286.74,147.653 c 0,0 1.464,2.3 0.506,2.923 -0.957,0.624 -1.932,0.068 -10.134,-1.904 -8.201,-1.973 -27.807,2.739 -27.592,0.251 0.157,-1.819 5.39,-5.81 20.49,-4.702 15.102,1.109 16.398,3.924 16.398,3.924 z"
         id="path30577" /><path
         fill="#9e8058"
         d="m 273.225,153.217 c -1.387,0.213 -1.42,-2.62 -0.126,-2.977 1.294,-0.357 1.513,2.764 0.126,2.977 z m -9.393,-0.177 c -1.387,0.213 -1.42,-2.62 -0.126,-2.977 1.294,-0.357 1.513,2.764 0.126,2.977 z"
         id="path30579" /><path
         fill="#c4714c"
         d="m 268.853,156.767 c 1.79,-0.048 2.414,-2.207 1.979,-2.695 -0.435,-0.488 -1.463,0.34 -2.242,0.391 -0.78,0.05 -1.72,-0.665 -2.125,-0.035 -0.405,0.63 0.597,2.386 2.388,2.338 z"
         id="path30581" /><path
         fill="currentColor"
         d="m 299.06,145.43 c -7.807,9.956 -16.678,1.574 -28.26,1.792 -11.58,0.22 -29.28,5.814 -31.442,-3.903 -2.163,-9.717 3.578,-31.204 28.859,-31.131 25.28,0.072 38.014,19.473 30.843,33.243 z"
         id="path30583" /><path
         fill="#ffffff"
         d="m 273.497,150.958 a 0.284,0.277 0 0 0 -0.207,-0.334 0.284,0.277 0 0 0 -0.343,0.2 0.284,0.277 0 0 0 0.203,0.337 0.284,0.277 0 0 0 0.346,-0.197 m -9.392,-0.183 a 0.284,0.277 0 0 0 -0.207,-0.334 0.284,0.277 0 0 0 -0.343,0.2 0.284,0.277 0 0 0 0.203,0.337 0.284,0.277 0 0 0 0.345,-0.196 m 4.115,-38.6 c -5.506,-0.015 -10.084,0.992 -13.856,2.677 a 12.797,9.576 0 0 0 0.156,3.915 l 0.08,0.232 a 12.797,9.576 0 0 0 15.595,6.787 12.797,9.576 0 0 0 9.167,-11.628 12.797,9.576 0 0 0 -0.247,-0.631 c -3.307,-0.859 -6.948,-1.34 -10.895,-1.352 z m 27.18,11.004 a 12.797,9.576 0 0 0 -0.498,0.08 12.797,9.576 0 0 0 -9.36,11.54 l 0.078,0.232 a 12.797,9.576 0 0 0 14.8,6.92 c 1.712,-6.255 -0.157,-13.177 -5.02,-18.772 z m -34.972,14.811 a 12.177,10.901 0 0 0 -2.693,0.318 12.177,10.901 0 0 0 -9.243,10.657 c 6.632,0.345 15.521,-1.628 22.311,-1.756 0.642,-0.012 1.275,0.002 1.901,0.039 a 12.177,10.901 0 0 0 -0.238,-1.049 12.177,10.901 0 0 0 -12.038,-8.209 z"
         id="path30585" /></g><rect
       x="744.20734"
       y="994.68427"
       width="800.73694"
       height="275.4617"
       id="rect31898" /><rect
       x="744.20734"
       y="994.68427"
       width="800.73694"
       height="275.4617"
       id="rect31900" /><rect
       x="744.20734"
       y="994.68427"
       width="800.73694"
       height="275.4617"
       id="rect31990" /><rect
       x="744.20734"
       y="994.68427"
       width="800.73694"
       height="275.4617"
       id="rect31992" /><rect
       x="744.20734"
       y="994.68427"
       width="800.73694"
       height="275.4617"
       id="rect31994" /><rect
       x="744.20734"
       y="994.68427"
       width="800.73694"
       height="275.4617"
       id="rect31996" /><rect
       x="744.20734"
       y="994.68427"
       width="800.73694"
       height="275.4617"
       id="rect32086" /><rect
       x="744.20734"
       y="994.68427"
       width="800.73694"
       height="275.4617"
       id="rect32088" /><rect
       x="744.20734"
       y="994.68427"
       width="800.73694"
       height="275.4617"
       id="rect32090" /><rect
       x="744.20734"
       y="994.68427"
       width="800.73694"
       height="275.4617"
       id="rect32092" /></defs><sodipodi:namedview
     id="base"
     pagecolor="#ffffff"
     bordercolor="#000000"
     borderopacity="0.30"
     inkscape:pageopacity="0.0"
     inkscape:pageshadow="2"
     inkscape:zoom="0.32423892"
     inkscape:cx="619.91324"
     inkscape:cy="-33.9256"
     inkscape:document-units="px"
     inkscape:current-layer="layer3"
     inkscape:showpageshadow="2"
     inkscape:pagecheckerboard="0"
     inkscape:deskcolor="#d1d1d1"
     showgrid="false"
     inkscape:window-width="1680"
     inkscape:window-height="994"
     inkscape:window-x="0"
     inkscape:window-y="0"
     inkscape:window-maximized="1" /><metadata
     id="metadata5459"><rdf:RDF><cc:Work
         rdf:about=""><dc:format>image/svg+xml</dc:format><dc:type
           rdf:resource="http://purl.org/dc/dcmitype/StillImage" /></cc:Work></rdf:RDF></metadata><g
     inkscape:label="bg"
     inkscape:groupmode="layer"
     id="layer1"
     sodipodi:insensitive="true"><rect
       style="fill:#202028;fill-opacity:1;stroke:none;stroke-width:1.08078;stroke-linecap:round;stroke-linejoin:round;stroke-dasharray:none;stroke-opacity:1"
       id="rect2483"
       width="1920"
       height="5490"
       x="0"
       y="0" /></g><g
     inkscape:groupmode="layer"
     id="layer3"
     inkscape:label="content"
     style="display:inline"><g
       id="g15288"
       transform="translate(152.56426,18.283973)"><rect
         style="fill:#afbde4;fill-opacity:0.01;stroke:none;stroke-width:0.820564;stroke-linecap:round;stroke-linejoin:round;stroke-opacity:1"
         id="rect2812"
         width="144.06796"
         height="52.262627"
         x="1556.3658"
         y="16.000002"
         ry="10" /><text
         xml:space="preserve"
         style="font-weight:bold;font-size:16px;font-family:Quicksand;-inkscape-font-specification:'Quicksand Bold';fill:#afbde4;fill-opacity:1;stroke:none;stroke-linecap:round;stroke-linejoin:round;stroke-opacity:1"
         x="1565.8638"
         y="46.451317"
         id="text2068"><tspan
           sodipodi:role="line"
           id="tspan2066"
           x="1565.8638"
           y="46.451317"
           style="font-size:16px">Developer Tools</tspan></text></g><text
       xml:space="preserve"
       id="text12154"
       style="font-weight:bold;font-size:24px;font-family:Quicksand;-inkscape-font-specification:'Quicksand Bold';white-space:pre;shape-inside:url(#rect12156);display:inline;fill:#afbde4;fill-opacity:1;stroke:none;stroke-linecap:round;stroke-linejoin:round;stroke-opacity:1" /><g
       id="g15612"
       transform="translate(0,240)"><rect
         style="fill:#202028;fill-opacity:1;stroke:none;stroke-width:0.521953;stroke-linecap:round;stroke-linejoin:round;stroke-opacity:1"
         id="rect1626-3"
         fill-opacity="0.1"
         width="1920"
         height="119"
         x="0"
         y="5132.1411" /><text
         xml:space="preserve"
         style="font-weight:bold;font-size:10px;line-height:1.6;font-family:Quicksand;-inkscape-font-specification:'Quicksand Bold';text-align:end;text-anchor:end;fill:#202028;fill-opacity:0.992856;stroke:#a6a6a6;stroke-width:1;stroke-linecap:round;stroke-linejoin:round;stroke-dasharray:none;stroke-opacity:1"
         x="959.91498"
         y="5179.0327"
         id="text8876"><tspan
           sodipodi:role="line"
           x="959.91498"
           y="5179.0327"
           id="tspan8884"
           style="font-size:10px;text-align:center;text-anchor:middle;fill:#fcfcfc;fill-opacity:0.988235;stroke:none">BUILT WITH <tspan
   style="font-size:10px;fill:#ff2f00;fill-opacity:0.988235"
   id="tspan10667">♥</tspan> BY <tspan
   style="fill:#f6e794;fill-opacity:0.988235"
   id="tspan12125">MIGUEL RIVAS</tspan>.</tspan><tspan
           sodipodi:role="line"
           x="959.91498"
           y="5195.4351"
           style="font-size:10px;text-align:center;text-anchor:middle;fill:#f6e794;fill-opacity:0.988235;stroke:none"
           id="tspan10663">GITHUB   YOUTUBE</tspan><tspan
           sodipodi:role="line"
           x="959.91498"
           y="5211.4351"
           style="font-size:10px;text-align:center;text-anchor:middle;fill:#fcfcfc;fill-opacity:0.988235;stroke:none"
           id="tspan10665">2025.05.05</tspan></text></g></g><g
     inkscape:groupmode="layer"
     id="layer2"
     inkscape:label="grid"
     sodipodi:insensitive="true"><rect
       style="fill:none;stroke:#ff00d7;stroke-width:1;stroke-linecap:round;stroke-linejoin:round;stroke-dasharray:none;stroke-opacity:1"
       id="rect232"
       width="1199.4233"
       height="6832.1035"
       x="360.2883"
       y="-348.85901"
       ry="0" /><rect
       style="fill:none;stroke:#ff9e00;stroke-width:1;stroke-linecap:round;stroke-linejoin:round;stroke-dasharray:none;stroke-opacity:1"
       id="rect19249"
       width="1166.4392"
       height="7047.8013"
       x="376.78036"
       y="-456.70804"
       ry="0" /><rect
       style="fill:none;stroke:#00fff4;stroke-width:1;stroke-linecap:round;stroke-linejoin:round;stroke-dasharray:none;stroke-opacity:1"
       id="rect19977"
       width="1134.4819"
       height="6854.7104"
       x="392.759"
       y="-360.16263"
       ry="0" /></g></svg>
