<?xml version="1.0" encoding="UTF-8" standalone="no"?>
<svg
   xml:space="preserve"
   viewBox="0 0 1200 629.99999"
   version="1.1"
   id="svg872"
   sodipodi:docname="rama-preview-3.svg"
   inkscape:version="1.2.2 (b0a8486541, 2022-12-01)"
   width="1200"
   height="630"
   inkscape:export-filename="rama-preview.png"
   inkscape:export-xdpi="96"
   inkscape:export-ydpi="96"
   xmlns:inkscape="http://www.inkscape.org/namespaces/inkscape"
   xmlns:sodipodi="http://sodipodi.sourceforge.net/DTD/sodipodi-0.dtd"
   xmlns="http://www.w3.org/2000/svg"
   xmlns:svg="http://www.w3.org/2000/svg"><defs
   id="defs876"><inkscape:path-effect
     effect="spiro"
     id="path-effect17235"
     is_visible="true"
     lpeversion="1" /><inkscape:path-effect
     effect="spiro"
     id="path-effect17167"
     is_visible="true"
     lpeversion="1" /><inkscape:path-effect
     effect="spiro"
     id="path-effect16988"
     is_visible="true"
     lpeversion="1" /><inkscape:path-effect
     effect="spiro"
     id="path-effect14512"
     is_visible="true"
     lpeversion="1" /><inkscape:path-effect
     effect="spiro"
     id="path-effect14444"
     is_visible="true"
     lpeversion="1" /><inkscape:path-effect
     effect="spiro"
     id="path-effect14047"
     is_visible="true"
     lpeversion="1" /><inkscape:path-effect
     effect="spiro"
     id="path-effect13979"
     is_visible="true"
     lpeversion="1" /><inkscape:path-effect
     effect="spiro"
     id="path-effect13911"
     is_visible="true"
     lpeversion="1" /><inkscape:path-effect
     effect="spiro"
     id="path-effect13843"
     is_visible="true"
     lpeversion="1" /><inkscape:path-effect
     effect="spiro"
     id="path-effect9928"
     is_visible="true"
     lpeversion="1" /><rect
     x="83.660011"
     y="-241.48238"
     width="232.03929"
     height="88.504593"
     id="rect1672" /><clipPath
     clipPathUnits="userSpaceOnUse"
     id="clipPath6722"><g
       id="g6726"
       transform="matrix(0.51896913,0,0,-0.51896913,-245.47177,-189.3847)"><path
         d="M -70.096322,-1376.0056 H 1109.1646 V 150.09678 H -70.096322 Z"
         id="path6724"
         inkscape:connector-curvature="0"
         style="stroke-width:1.9269" /></g></clipPath><clipPath
     clipPathUnits="userSpaceOnUse"
     id="clipPath6728"><g
       id="g6732"
       transform="matrix(0.51896913,0,0,-0.51896913,-282.84877,-122.45111)"><path
         d="M -70.096322,-1376.0056 H 1109.1646 V 150.09678 H -70.096322 Z"
         id="path6730"
         inkscape:connector-curvature="0"
         style="stroke-width:1.9269" /></g></clipPath><clipPath
     clipPathUnits="userSpaceOnUse"
     id="clipPath6734"><g
       id="g6738"
       transform="matrix(0.51896913,0,0,-0.51896913,-270.28327,-89.055605)"><path
         d="M -70.096322,-1376.0056 H 1109.1646 V 150.09678 H -70.096322 Z"
         id="path6736"
         inkscape:connector-curvature="0"
         style="stroke-width:1.9269" /></g></clipPath><clipPath
     clipPathUnits="userSpaceOnUse"
     id="clipPath6740"><g
       id="g6744"
       transform="matrix(0.51896913,0,0,-0.51896913,-267.67297,-54.554605)"><path
         d="M -70.096322,-1376.0056 H 1109.1646 V 150.09678 H -70.096322 Z"
         id="path6742"
         inkscape:connector-curvature="0"
         style="stroke-width:1.9269" /></g></clipPath><clipPath
     clipPathUnits="userSpaceOnUse"
     id="clipPath6746"><g
       id="g6750"
       transform="matrix(0.51896913,0,0,-0.51896913,-274.23647,-158.9306)"><path
         d="M -70.096322,-1376.0056 H 1109.1646 V 150.09678 H -70.096322 Z"
         id="path6748"
         inkscape:connector-curvature="0"
         style="stroke-width:1.9269" /></g></clipPath><clipPath
     clipPathUnits="userSpaceOnUse"
     id="clipPath6752"><g
       id="g6756"
       transform="matrix(0.51896913,0,0,-0.51896913,-246.30377,-111.8739)"><path
         d="M -70.096322,-1376.0056 H 1109.1646 V 150.09678 H -70.096322 Z"
         id="path6754"
         inkscape:connector-curvature="0"
         style="stroke-width:1.9269" /></g></clipPath><clipPath
     clipPathUnits="userSpaceOnUse"
     id="clipPath6758"><g
       id="g6762"
       transform="matrix(0.51896913,0,0,-0.51896913,-254.69058,-87.969605)"><path
         d="M -70.096322,-1376.0056 H 1109.1646 V 150.09678 H -70.096322 Z"
         id="path6760"
         inkscape:connector-curvature="0"
         style="stroke-width:1.9269" /></g></clipPath><clipPath
     clipPathUnits="userSpaceOnUse"
     id="clipPath6764"><g
       id="g6768"
       transform="matrix(0.51896913,0,0,-0.51896913,-255.92097,-63.345605)"><path
         d="M -70.096322,-1376.0056 H 1109.1646 V 150.09678 H -70.096322 Z"
         id="path6766"
         inkscape:connector-curvature="0"
         style="stroke-width:1.9269" /></g></clipPath><clipPath
     clipPathUnits="userSpaceOnUse"
     id="clipPath6770"><g
       id="g6774"
       transform="matrix(0.51896913,0,0,-0.51896913,-312.62218,-96.419803)"><path
         d="M -70.096322,-1376.0056 H 1109.1646 V 150.09678 H -70.096322 Z"
         id="path6772"
         inkscape:connector-curvature="0"
         style="stroke-width:1.9269" /></g></clipPath><clipPath
     clipPathUnits="userSpaceOnUse"
     id="clipPath6776"><g
       id="g6780"
       transform="matrix(0.51896913,0,0,-0.51896913,-210.98347,-107.30261)"><path
         d="M -70.096322,-1376.0056 H 1109.1646 V 150.09678 H -70.096322 Z"
         id="path6778"
         inkscape:connector-curvature="0"
         style="stroke-width:1.9269" /></g></clipPath></defs><sodipodi:namedview
   id="namedview874"
   pagecolor="#ffffff"
   bordercolor="#000000"
   borderopacity="0.25"
   inkscape:showpageshadow="2"
   inkscape:pageopacity="0.0"
   inkscape:pagecheckerboard="0"
   inkscape:deskcolor="#d1d1d1"
   showgrid="false"
   inkscape:zoom="0.34394138"
   inkscape:cx="955.10462"
   inkscape:cy="215.15294"
   inkscape:window-width="1180"
   inkscape:window-height="994"
   inkscape:window-x="0"
   inkscape:window-y="0"
   inkscape:window-maximized="0"
   inkscape:current-layer="svg872" />
  <metadata
   id="metadata654">
    Created by Miguel Rivas — Learn more at jmiguelrivas.github.io
  </metadata>
  <rect
   class="jmiguelrivas-github-io"
   width="1200"
   height="630"
   x="0"
   y="0"
   fill="#6495cf"
   id="rect656"
   style="fill:#86e1a9;fill-opacity:1;stroke-width:2.86737" />
  
  
  
  
  
  
  
  
  
  
  
  
  
  
  
  
  
  
  
  
  
  
  
  
  
  
  
  
  
  
  
  
  
  
  
  
  
  
  
  
  
  
  
  
  
  
  
  
  
  
  
  
  
  
  
  
  
  
  
  
  
  
  
  
  
  
  
  
  
  
  
  
  
  
  
  
  
  
  
  
  
  
  
  
  
  
  
  
  
  
  
  
  
<path
   id="path14909"
   style="font-weight:bold;font-size:72px;font-family:Quicksand;-inkscape-font-specification:'Quicksand Bold';text-align:center;text-anchor:middle;white-space:pre;fill:#29542b;stroke-width:1.54196;stroke-linecap:round;stroke-linejoin:round"
   d="M 422.03125 263.39453 C 418.93185 263.39453 415.83379 263.76591 412.73438 264.50977 C 409.63497 265.25362 406.72162 266.43323 403.99414 268.04492 C 401.26666 269.53263 398.78626 271.45304 396.55469 273.80859 C 395.06352 275.38748 393.76724 277.16204 392.64844 279.11328 L 392.64844 276.59766 C 392.64844 273.37427 391.59588 270.70916 389.48828 268.60156 C 387.38069 266.36999 384.71557 265.25391 381.49219 265.25391 C 378.2688 265.25391 375.60174 266.36999 373.49414 268.60156 C 371.38654 270.70916 370.33398 273.37427 370.33398 276.59766 L 370.33398 353.40234 C 370.33398 356.62573 371.38654 359.35241 373.49414 361.58398 C 375.60174 363.69158 378.2688 364.74609 381.49219 364.74609 C 384.71557 364.74609 387.38069 363.69158 389.48828 361.58398 C 391.59588 359.35241 392.64844 356.62573 392.64844 353.40234 L 392.64844 309.32812 C 392.64844 304.86498 393.20648 301.02221 394.32227 297.79883 C 395.56203 294.45146 397.11301 291.66126 398.97266 289.42969 C 400.95627 287.19812 403.06335 285.58752 405.29492 284.5957 C 407.65047 283.47992 409.94421 282.92188 412.17578 282.92188 C 414.65531 282.92187 416.82395 283.35482 418.68359 284.22266 C 420.66721 285.0905 422.83781 285.52539 425.19336 285.52539 C 427.67288 285.52539 429.96662 284.65755 432.07422 282.92188 C 434.18181 281.06223 435.23438 278.08536 435.23438 273.99414 C 435.23438 271.14269 433.93358 268.66424 431.33008 266.55664 C 428.85055 264.44904 425.75054 263.39453 422.03125 263.39453 z M 489.16602 263.39453 C 480.8596 263.39453 473.29526 265.62669 466.47656 270.08984 C 459.65787 274.42901 454.2045 280.50395 450.11328 288.31445 C 446.14605 296.00099 444.16211 304.9277 444.16211 315.09375 C 444.16211 325.13583 446.14605 334.06059 450.11328 341.87109 C 454.2045 349.55762 459.72139 355.63256 466.66406 360.0957 C 473.60673 364.43487 481.35384 366.60547 489.9082 366.60547 C 494.6193 366.60547 498.95854 365.86076 502.92578 364.37305 C 507.017 362.76136 510.55192 360.84095 513.52734 358.60938 C 515.73182 356.95601 517.59129 355.3018 519.11523 353.64844 C 519.1685 356.76312 520.21466 359.41031 522.26758 361.58398 C 524.37518 363.69158 527.0403 364.74609 530.26367 364.74609 C 533.48706 364.74609 536.15217 363.69158 538.25977 361.58398 C 540.36736 359.35241 541.42188 356.62573 541.42188 353.40234 L 541.42188 274.73828 C 541.42188 271.39092 540.36736 268.66424 538.25977 266.55664 C 536.15217 264.44904 533.48706 263.39453 530.26367 263.39453 C 527.0403 263.39453 524.37518 264.51061 522.26758 266.74219 C 520.15998 268.84978 519.10547 271.5149 519.10547 274.73828 L 519.10547 275.07227 C 517.99343 274.02133 516.77663 272.97878 515.38672 271.94922 C 512.16334 269.46969 508.31861 267.42419 503.85547 265.8125 C 499.39232 264.20081 494.49699 263.39453 489.16602 263.39453 z M 617.85352 263.39453 C 613.7623 263.39453 609.9811 264.07767 606.50977 265.44141 C 603.03844 266.68117 599.87685 268.35334 597.02539 270.46094 C 594.17394 272.56853 591.75511 274.86227 589.77148 277.3418 C 589.09515 278.14494 588.48755 278.92881 587.91211 279.70312 L 587.91211 276.59766 C 587.91211 273.37427 586.8576 270.70916 584.75 268.60156 C 582.6424 266.36999 579.97729 265.25391 576.75391 265.25391 C 573.53053 265.25391 570.86541 266.36999 568.75781 268.60156 C 566.65021 270.70916 565.5957 273.37427 565.5957 276.59766 L 565.5957 353.40234 C 565.5957 356.62573 566.65021 359.35241 568.75781 361.58398 C 570.86541 363.69158 573.53053 364.74609 576.75391 364.74609 C 579.97729 364.74609 582.6424 363.69158 584.75 361.58398 C 586.8576 359.35241 587.91211 356.62573 587.91211 353.40234 L 587.91211 305.79492 C 587.91211 301.70371 588.71839 298.04565 590.33008 294.82227 C 592.06574 291.47491 594.60772 288.80979 597.95508 286.82617 C 601.30244 284.84255 605.33187 283.85156 610.04297 283.85156 C 614.87804 283.85156 618.59572 284.84255 621.19922 286.82617 C 623.80272 288.80979 625.60194 291.47491 626.59375 294.82227 C 627.58556 298.04565 628.08008 301.70371 628.08008 305.79492 L 628.08008 353.40234 C 628.08008 356.62573 629.13459 359.35241 631.24219 361.58398 C 633.34979 363.69158 636.0149 364.74609 639.23828 364.74609 C 642.46166 364.74609 645.12678 363.69158 647.23438 361.58398 C 649.34197 359.35241 650.39648 356.62573 650.39648 353.40234 L 650.39648 305.79492 C 650.39648 301.70371 651.20276 298.04565 652.81445 294.82227 C 654.55012 291.47491 657.0921 288.80979 660.43945 286.82617 C 663.78682 284.84255 667.8143 283.85156 672.52539 283.85156 C 677.36047 283.85156 681.0801 284.84255 683.68359 286.82617 C 686.2871 288.80979 688.08437 291.47491 689.07617 294.82227 C 690.06798 298.04565 690.56445 301.70371 690.56445 305.79492 L 690.56445 353.40234 C 690.56445 356.62573 691.61896 359.35241 693.72656 361.58398 C 695.83415 363.69158 698.49927 364.74609 701.72266 364.74609 C 704.94604 364.74609 707.61115 363.69158 709.71875 361.58398 C 711.82635 359.35241 712.88086 356.62573 712.88086 353.40234 L 712.88086 305.79492 C 712.88086 297.98442 712.01302 290.9185 710.27734 284.5957 C 708.54168 278.14894 705.31852 273.00342 700.60742 269.16016 C 696.0203 265.31689 689.26223 263.39453 680.33594 263.39453 C 674.88098 263.39453 669.92213 264.57218 665.45898 266.92773 C 661.11982 269.15931 657.40019 271.94951 654.30078 275.29688 C 651.39509 278.31879 649.22745 281.1702 647.73828 283.86523 C 646.01968 278.63778 643.37732 274.22693 639.79688 270.64648 C 635.08577 265.81141 627.77161 263.39453 617.85352 263.39453 z M 777.41016 263.39453 C 769.10375 263.39453 761.54135 265.62669 754.72266 270.08984 C 747.90396 274.42901 742.44864 280.50395 738.35742 288.31445 C 734.39019 296.00099 732.40625 304.9277 732.40625 315.09375 C 732.40625 325.13583 734.39019 334.06059 738.35742 341.87109 C 742.44864 349.55762 747.96554 355.63256 754.9082 360.0957 C 761.85087 364.43487 769.59993 366.60547 778.1543 366.60547 C 782.86539 366.60547 787.20463 365.86076 791.17188 364.37305 C 795.26309 362.76136 798.79605 360.84095 801.77148 358.60938 C 803.97684 356.95536 805.83705 355.3005 807.36133 353.64648 C 807.41418 356.76203 808.45837 359.40985 810.51172 361.58398 C 812.61932 363.69158 815.28443 364.74609 818.50781 364.74609 C 821.7312 364.74609 824.39827 363.69158 826.50586 361.58398 C 828.61346 359.35241 829.66602 356.62573 829.66602 353.40234 L 829.66602 274.73828 C 829.66602 271.39092 828.61346 268.66424 826.50586 266.55664 C 824.39827 264.44904 821.7312 263.39453 818.50781 263.39453 C 815.28443 263.39453 812.61932 264.51061 810.51172 266.74219 C 808.40412 268.84978 807.35156 271.5149 807.35156 274.73828 L 807.35156 275.07227 C 806.23944 274.02121 805.02092 272.97889 803.63086 271.94922 C 800.40748 269.46969 796.5647 267.42419 792.10156 265.8125 C 787.63842 264.20081 782.74114 263.39453 777.41016 263.39453 z M 492.69922 283.85156 C 498.15417 283.85156 502.92636 285.21393 507.01758 287.94141 C 511.10879 290.66888 514.27038 294.38851 516.50195 299.09961 C 518.8575 303.8107 520.03516 309.14289 520.03516 315.09375 C 520.03516 320.92063 518.8575 326.18929 516.50195 330.90039 C 514.27038 335.61149 511.10879 339.33112 507.01758 342.05859 C 502.92636 344.78607 498.15417 346.14844 492.69922 346.14844 C 487.36824 346.14844 482.65567 344.78607 478.56445 342.05859 C 474.47324 339.33112 471.25008 335.61149 468.89453 330.90039 C 466.66296 326.18929 465.54687 320.92063 465.54688 315.09375 C 465.54687 309.14289 466.66296 303.8107 468.89453 299.09961 C 471.25008 294.38851 474.47324 290.66888 478.56445 287.94141 C 482.65567 285.21393 487.36824 283.85156 492.69922 283.85156 z M 780.94336 283.85156 C 786.39831 283.85156 791.17246 285.21393 795.26367 287.94141 C 799.35489 290.66888 802.51648 294.38851 804.74805 299.09961 C 807.1036 303.8107 808.28125 309.14289 808.28125 315.09375 C 808.28125 320.92063 807.1036 326.18929 804.74805 330.90039 C 802.51648 335.61149 799.35489 339.33112 795.26367 342.05859 C 791.17246 344.78607 786.39831 346.14844 780.94336 346.14844 C 775.61238 346.14844 770.90176 344.78607 766.81055 342.05859 C 762.71933 339.33112 759.49618 335.61149 757.14062 330.90039 C 754.90905 326.18929 753.79297 320.92063 753.79297 315.09375 C 753.79297 309.14289 754.90905 303.8107 757.14062 299.09961 C 759.49618 294.38851 762.71933 290.66888 766.81055 287.94141 C 770.90176 285.21393 775.61238 283.85156 780.94336 283.85156 z " /><rect
   class="jmiguelrivas-github-io"
   width="96.860107"
   height="99.764992"
   x="0.95151508"
   y="-269.26813"
   fill="#6495cf"
   id="rect8281"
   style="fill:#86e1a9;fill-opacity:1;stroke-width:0.324179" /><rect
   class="jmiguelrivas-github-io"
   width="96.860107"
   height="99.764992"
   x="151.96407"
   y="-269.26813"
   fill="#6495cf"
   id="rect8446"
   style="fill:#d1c7aa;fill-opacity:1;stroke-width:0.324179" /><g
   id="g13975"
   transform="matrix(-2.784254,0.96923724,-0.96923724,-2.784254,1996.2015,-841.74427)"><path
     style="fill:none;fill-opacity:1;stroke:#5f544e;stroke-width:7.37571;stroke-linecap:round;stroke-linejoin:round;stroke-dasharray:none;stroke-opacity:1"
     d="m 445.26428,-447.48745 c 2.38836,-12.77217 9.2288,-24.66731 19.06653,-33.15563 9.83774,-8.48832 22.60653,-13.51267 35.59077,-14.00449 12.98425,-0.49182 26.09654,3.55219 36.54821,11.27198 10.45167,7.71979 18.17235,19.06338 21.52006,31.61828 4.56552,17.12205 1.07097,35.27391 -3.1114,52.49356 -4.18237,17.21965 -9.08181,34.75201 -7.24852,52.37721 1.77559,17.07044 10.11507,33.37489 22.91729,44.80537 12.80221,11.43049 29.94362,17.87673 47.10539,17.71456 17.16178,-0.16217 34.17831,-6.93118 46.76223,-18.60156 12.58392,-11.67038 20.6138,-28.1295 22.06649,-45.23045"
     id="path13913"
     inkscape:path-effect="#path-effect13979"
     inkscape:original-d="m 445.26428,-447.48745 c 37.21013,-1.22617 75.15082,-2.84613 112.72557,-4.26986 37.57475,-1.42373 -6.90617,69.91429 -10.35992,104.87077 -3.45376,34.95648 92.56805,-0.87428 138.8514,-1.31208" /><path
     inkscape:connector-curvature="0"
     id="path13915"
     style="fill:#156c2e;fill-opacity:1;fill-rule:nonzero;stroke:none;stroke-width:1.37538"
     d="m 723.55466,-327.34534 c 0,0 -14.53261,4.76455 -22.50655,-1.48639 -7.97585,-6.25132 -12.41845,-14.38414 -12.41845,-14.38414 0,0 15.72289,-8.22985 23.04943,-2.97568 7.32958,5.25377 11.87557,18.84621 11.87557,18.84621"
     inkscape:transform-center-x="-16.155242"
     inkscape:transform-center-y="6.7868919" /><path
     inkscape:connector-curvature="0"
     id="path13917"
     style="fill:#156c2e;fill-opacity:1;fill-rule:nonzero;stroke:none;stroke-width:1.37538"
     d="m 714.93103,-304.97906 c 0,0 -14.53261,4.76455 -22.50655,-1.48639 -7.97585,-6.25132 -12.41845,-14.38414 -12.41845,-14.38414 0,0 15.72289,-8.22985 23.04943,-2.97568 7.32958,5.25377 11.87557,18.84621 11.87557,18.84621"
     inkscape:transform-center-x="-16.155242"
     inkscape:transform-center-y="6.7868919" /><path
     inkscape:connector-curvature="0"
     id="path13919"
     style="fill:#156c2e;fill-opacity:1;fill-rule:nonzero;stroke:none;stroke-width:1.37538"
     d="m 697.72639,-279.83071 c 0,0 -15.29342,0.0945 -20.97509,-8.29456 -5.68337,-8.39002 -7.42749,-17.49153 -7.42749,-17.49153 0,0 17.48593,-3.03015 22.85586,4.21198 5.37294,7.24267 5.54672,21.57411 5.54672,21.57411"
     inkscape:transform-center-x="-12.850422"
     inkscape:transform-center-y="12.509775" /><path
     inkscape:connector-curvature="0"
     id="path13921"
     style="fill:#156c2e;fill-opacity:1;fill-rule:nonzero;stroke:none;stroke-width:1.37538"
     d="m 679.14676,-264.93616 c 0,0 -15.29342,0.0945 -20.97509,-8.29456 -5.68337,-8.39002 -7.42749,-17.49153 -7.42749,-17.49153 0,0 17.48593,-3.03015 22.85586,4.21198 5.37294,7.24267 5.54672,21.57411 5.54672,21.57411"
     inkscape:transform-center-x="-12.850422"
     inkscape:transform-center-y="12.509775" /><path
     inkscape:connector-curvature="0"
     id="path13923"
     style="fill:#156c2e;fill-opacity:1;fill-rule:nonzero;stroke:none;stroke-width:1.37538"
     d="m 646.42801,-247.43118 c 0,0 -13.30705,-7.53791 -14.05348,-17.64239 -0.74743,-10.10616 2.27512,-18.86651 2.27512,-18.86651 0,0 16.67071,6.08499 17.7183,15.03972 1.04992,8.9567 -5.93994,21.46918 -5.93994,21.46918"
     inkscape:transform-center-x="-6.5789378"
     inkscape:transform-center-y="17.521703" /><path
     inkscape:connector-curvature="0"
     id="path13925"
     style="fill:#156c2e;fill-opacity:1;fill-rule:nonzero;stroke:none;stroke-width:1.37538"
     d="m 613.31324,-244.28501 c 0,0 -11.26774,-10.34096 -9.71952,-20.35399 1.54762,-10.01489 6.46531,-17.86956 6.46531,-17.86956 0,0 14.8722,9.68285 13.87632,18.64348 -0.99405,8.96307 -10.62211,19.58007 -10.62211,19.58007"
     inkscape:transform-center-x="-2.7136471"
     inkscape:transform-center-y="18.141808" /><path
     inkscape:connector-curvature="0"
     id="path13927"
     style="fill:#156c2e;fill-opacity:1;fill-rule:nonzero;stroke:none;stroke-width:1.37538"
     d="m 573.08272,-252.67787 c 0,0 -3.58987,-14.86641 3.27732,-22.31621 6.86773,-7.45167 15.32907,-11.23125 15.32907,-11.23125 0,0 6.94918,16.32939 1.12722,23.21338 -5.82181,6.88704 -19.73361,10.33408 -19.73361,10.33408"
     inkscape:transform-center-x="8.2882291"
     inkscape:transform-center-y="15.442913" /><path
     inkscape:connector-curvature="0"
     id="path13929"
     style="fill:#156c2e;fill-opacity:1;fill-rule:nonzero;stroke:none;stroke-width:1.37538"
     d="m 543.06304,-271.83402 c 0,0 0.78796,-15.27339 9.49084,-20.46163 8.70392,-5.18987 17.8909,-6.40602 17.8909,-6.40602 0,0 2.01631,17.63163 -5.52356,22.57481 -7.54058,4.94614 -21.85818,4.29284 -21.85818,4.29284"
     inkscape:transform-center-x="13.421789"
     inkscape:transform-center-y="12.103432" /><path
     inkscape:connector-curvature="0"
     id="path13931"
     style="fill:#156c2e;fill-opacity:1;fill-rule:nonzero;stroke:none;stroke-width:1.37538"
     d="m 519.00343,-304.98384 c 0,0 7.56765,-13.29015 17.67379,-14.01397 10.1078,-0.72482 18.86137,2.31731 18.86137,2.31731 0,0 -6.12227,16.65706 -15.07933,17.68461 -8.95901,1.02988 -21.45583,-5.98795 -21.45583,-5.98795"
     inkscape:transform-center-x="17.532288"
     inkscape:transform-center-y="6.5441182" /><path
     inkscape:connector-curvature="0"
     id="path13933"
     style="fill:#156c2e;fill-opacity:1;fill-rule:nonzero;stroke:none;stroke-width:1.37538"
     d="m 509.37056,-329.19656 c 0,0 7.56765,-13.29015 17.67379,-14.01397 10.1078,-0.72482 18.86137,2.31731 18.86137,2.31731 0,0 -6.12227,16.65706 -15.07933,17.68461 -8.95901,1.02988 -21.45583,-5.98795 -21.45583,-5.98795"
     inkscape:transform-center-x="17.532288"
     inkscape:transform-center-y="6.5441182" /><path
     inkscape:connector-curvature="0"
     id="path13935"
     style="fill:#156c2e;fill-opacity:1;fill-rule:nonzero;stroke:none;stroke-width:1.37538"
     d="m 507.31019,-361.74217 c 0,0 10.96121,-10.66534 20.87075,-8.55372 9.91142,2.11112 17.47562,7.46485 17.47562,7.46485 0,0 -10.50785,14.30122 -19.39788,12.80053 -8.89256,-1.49899 -18.94849,-11.71166 -18.94849,-11.71166"
     inkscape:transform-center-x="18.151493"
     inkscape:transform-center-y="1.6982265" /><path
     inkscape:connector-curvature="0"
     id="path13937"
     style="fill:#156c2e;fill-opacity:1;fill-rule:nonzero;stroke:none;stroke-width:1.37538"
     d="m 512.45221,-396.10123 c 0,0 13.99251,-6.17311 22.5435,-0.73819 8.55293,5.43512 13.77517,13.09069 13.77517,13.09069 0,0 -14.8356,9.73884 -22.64414,5.23203 -7.81152,-4.50609 -13.67453,-17.58453 -13.67453,-17.58453"
     inkscape:transform-center-x="16.892653"
     inkscape:transform-center-y="-4.9274021" /><path
     inkscape:connector-curvature="0"
     id="path13939"
     style="fill:#156c2e;fill-opacity:1;fill-rule:nonzero;stroke:none;stroke-width:1.37538"
     d="m 518.10241,-417.12803 c 0,0 12.57046,-8.71098 21.99588,-4.99356 9.42736,3.71726 16.00474,10.24547 16.00474,10.24547 0,0 -12.72311,12.37184 -21.24377,9.42515 -8.52345,-2.94542 -16.75685,-14.67706 -16.75685,-14.67706"
     inkscape:transform-center-x="17.846388"
     inkscape:transform-center-y="-1.3505979" /><path
     inkscape:connector-curvature="0"
     id="path13941"
     style="fill:#156c2e;fill-opacity:1;fill-rule:nonzero;stroke:none;stroke-width:1.37538"
     d="m 519.72031,-436.89969 c 0,0 9.57966,-11.92174 19.67267,-11.0336 10.09483,0.88744 18.25513,5.27936 18.25513,5.27936 0,0 -8.68655,15.47526 -17.6932,15.06923 -9.00897,-0.40402 -20.2346,-9.31499 -20.2346,-9.31499"
     inkscape:transform-center-x="18.057858"
     inkscape:transform-center-y="3.8709004" /><path
     inkscape:connector-curvature="0"
     id="path13943"
     style="fill:#156c2e;fill-opacity:1;fill-rule:nonzero;stroke:none;stroke-width:1.37538"
     d="m 511.52238,-455.05052 c 0,0 6.46966,-13.85789 16.48432,-15.3955 10.01627,-1.53871 18.98691,0.78657 18.98691,0.78657 0,0 -4.7571,17.09707 -13.60191,18.8446 -8.84659,1.75003 -21.86932,-4.23567 -21.86932,-4.23567"
     inkscape:transform-center-x="17.094413"
     inkscape:transform-center-y="7.7351832" /><path
     inkscape:connector-curvature="0"
     id="path13945"
     style="fill:#156c2e;fill-opacity:1;fill-rule:nonzero;stroke:none;stroke-width:1.37538"
     d="m 492.29492,-464.19381 c 0,0 1.07338,-15.256 9.87172,-20.28062 8.79945,-5.02622 18.00755,-6.07039 18.00755,-6.07039 0,0 1.68631,17.66625 -5.94466,22.46758 -7.63174,4.8043 -21.93461,3.88343 -21.93461,3.88343"
     inkscape:transform-center-x="13.688654"
     inkscape:transform-center-y="11.869187" /><path
     inkscape:connector-curvature="0"
     id="path13947"
     style="fill:#156c2e;fill-opacity:1;fill-rule:nonzero;stroke:none;stroke-width:1.37538"
     d="m 645.30796,-352.67029 c 0,0 13.24831,-7.64068 22.33371,-3.15587 9.08735,4.48479 15.10183,11.535 15.10183,11.535 0,0 -13.70344,11.27632 -21.95097,7.63452 -8.25042,-3.64079 -15.48457,-16.01365 -15.48457,-16.01365"
     inkscape:transform-center-x="17.509398"
     inkscape:transform-center-y="-2.9013658" /><path
     inkscape:connector-curvature="0"
     id="path13949"
     style="fill:#156c2e;fill-opacity:1;fill-rule:nonzero;stroke:none;stroke-width:1.37538"
     d="m 638.18193,-333.86637 c 0,0 14.67595,-4.3028 22.44831,2.19707 7.77427,6.50031 11.95757,14.7695 11.95757,14.7695 0,0 -15.97517,7.72874 -23.13197,2.24561 -7.15984,-5.48283 -11.27391,-19.21218 -11.27391,-19.21218"
     inkscape:transform-center-x="15.885358"
     inkscape:transform-center-y="-7.3818001" /><path
     inkscape:connector-curvature="0"
     id="path13951"
     style="fill:#156c2e;fill-opacity:1;fill-rule:nonzero;stroke:none;stroke-width:1.37538"
     d="m 625.8381,-326.57365 c 0,0 14.68955,4.25616 17.75249,13.91413 3.06432,9.65936 2.14963,18.88122 2.14963,18.88122 0,0 -17.62601,-2.06476 -20.71607,-10.53448 -3.09279,-8.47109 0.81395,-22.26087 0.81395,-22.26087"
     inkscape:transform-center-x="9.6141414"
     inkscape:transform-center-y="-15.947731" /><path
     inkscape:connector-curvature="0"
     id="path13953"
     style="fill:#156c2e;fill-opacity:1;fill-rule:nonzero;stroke:none;stroke-width:1.37538"
     d="m 610.11145,-325.13966 c 0,0 11.41099,10.18269 10.00264,20.21636 -1.4077,10.03552 -6.21529,17.95805 -6.21529,17.95805 0,0 -15.00588,-9.47433 -14.13516,-18.44799 0.86886,-8.97606 10.34781,-19.72642 10.34781,-19.72642"
     inkscape:transform-center-x="2.9617781"
     inkscape:transform-center-y="-18.130501" /><path
     inkscape:connector-curvature="0"
     id="path13955"
     style="fill:#156c2e;fill-opacity:1;fill-rule:nonzero;stroke:none;stroke-width:1.37538"
     d="m 597.85822,-331.33829 c 0,0 4.74858,14.53784 -1.51113,22.5049 -6.26008,7.96899 -14.39777,12.40264 -14.39777,12.40264 0,0 -8.21257,-15.73191 -2.95035,-23.05269 5.26182,-7.32378 18.85925,-11.85485 18.85925,-11.85485"
     inkscape:transform-center-x="-6.8075847"
     inkscape:transform-center-y="-16.146136" /><path
     inkscape:connector-curvature="0"
     id="path13957"
     style="fill:#156c2e;fill-opacity:1;fill-rule:nonzero;stroke:none;stroke-width:1.37538"
     d="m 590.2128,-342.09712 c 0,0 -2.96779,15.003 -12.32416,18.89097 -9.35764,3.88948 -18.62406,3.77699 -18.62406,3.77699 0,0 0.53028,-17.7386 8.70052,-21.55068 8.17136,-3.81489 22.2477,-1.11728 22.2477,-1.11728"
     inkscape:transform-center-x="-15.136352"
     inkscape:transform-center-y="-10.486895" /><path
     inkscape:connector-curvature="0"
     id="path13959"
     style="fill:#156c2e;fill-opacity:1;fill-rule:nonzero;stroke:none;stroke-width:1.37538"
     d="m 587.87537,-355.52768 c 0,0 -9.14952,12.25496 -19.26775,11.72636 -10.12002,-0.52779 -18.43136,-4.62667 -18.43136,-4.62667 0,0 8.13058,-15.77444 17.14598,-15.68905 9.01762,0.0833 20.55313,8.58936 20.55313,8.58936"
     inkscape:transform-center-x="-17.979827"
     inkscape:transform-center-y="-4.4871277" /><path
     inkscape:connector-curvature="0"
     id="path13961"
     style="fill:#156c2e;fill-opacity:1;fill-rule:nonzero;stroke:none;stroke-width:1.37538"
     d="m 590.57543,-372.79629 c 0,0 -12.66175,8.57776 -22.04738,4.76096 -9.38759,-3.81661 -15.89564,-10.41392 -15.89564,-10.41392 0,0 12.85305,-12.23677 21.34212,-9.20027 8.49186,3.03526 16.6009,14.85323 16.6009,14.85323"
     inkscape:transform-center-x="-17.810212"
     inkscape:transform-center-y="1.5475829" /><path
     inkscape:connector-curvature="0"
     id="path13963"
     style="fill:#156c2e;fill-opacity:1;fill-rule:nonzero;stroke:none;stroke-width:1.37538"
     d="m 596.29007,-398.20916 c 0,0 -12.39341,8.96109 -21.8914,5.43322 -9.49996,-3.52764 -16.20681,-9.92276 -16.20681,-9.92276 0,0 12.47269,-12.62425 21.05068,-9.84888 8.58074,2.77406 17.04753,14.33842 17.04753,14.33842"
     inkscape:transform-center-x="-17.909557"
     inkscape:transform-center-y="0.97762543" /><path
     inkscape:connector-curvature="0"
     id="path13965"
     style="fill:#156c2e;fill-opacity:1;fill-rule:nonzero;stroke:none;stroke-width:1.37538"
     d="m 600.69104,-425.93409 c 0,0 -11.04152,10.58217 -20.9348,8.39567 -9.89519,-2.18601 -17.4187,-7.59676 -17.4187,-7.59676 0,0 10.61568,-14.22136 19.4941,-12.65351 8.88097,1.56616 18.8594,11.8546 18.8594,11.8546"
     inkscape:transform-center-x="-18.148392"
     inkscape:transform-center-y="-1.561303" /><path
     inkscape:connector-curvature="0"
     id="path13967"
     style="fill:#156c2e;fill-opacity:1;fill-rule:nonzero;stroke:none;stroke-width:1.37538"
     d="m 599.24348,-453.62411 c 0,0 -8.73241,12.55558 -18.86268,12.36739 -10.13205,-0.18732 -18.57649,-4.0045 -18.57649,-4.0045 0,0 7.59577,-16.03883 16.60893,-16.25653 9.01533,-0.21986 20.83024,7.89364 20.83024,7.89364"
     inkscape:transform-center-x="-17.885157"
     inkscape:transform-center-y="-5.0625879" /><path
     inkscape:connector-curvature="0"
     id="path13969"
     style="fill:#156c2e;fill-opacity:1;fill-rule:nonzero;stroke:none;stroke-width:1.37538"
     d="m 586.65763,-487.76231 c 0,0 -2.9872,14.99914 -12.34859,18.87499 -9.36267,3.87737 -18.62895,3.75291 -18.62895,3.75291 0,0 0.55326,-17.73792 8.72841,-21.53941 8.17628,-3.80435 22.24913,-1.08849 22.24913,-1.08849"
     inkscape:transform-center-x="-15.149302"
     inkscape:transform-center-y="-10.474043" /><path
     inkscape:connector-curvature="0"
     id="path13971"
     style="fill:#156c2e;fill-opacity:1;fill-rule:nonzero;stroke:none;stroke-width:1.37538"
     d="m 565.13723,-513.43546 c 0,0 1.71451,15.19731 -6.02532,21.73588 -7.74058,6.54042 -16.60603,9.23914 -16.60603,9.23914 0,0 -4.86592,-17.06643 1.76643,-23.1735 6.63256,-6.11014 20.86492,-7.80152 20.86492,-7.80152"
     inkscape:transform-center-x="-10.610701"
     inkscape:transform-center-y="-14.136946" /><path
     inkscape:connector-curvature="0"
     id="path13973"
     style="fill:#156c2e;fill-opacity:1;fill-rule:nonzero;stroke:none;stroke-width:1.37538"
     d="m 534.93857,-528.93114 c 0,0 6.11422,14.01835 0.64333,22.54638 -5.47105,8.53002 -13.14851,13.72 -13.14851,13.72 0,0 -9.67633,-14.87645 -5.13673,-22.66595 4.5389,-7.7925 17.64191,-13.60043 17.64191,-13.60043"
     inkscape:transform-center-x="-5.0067083"
     inkscape:transform-center-y="-16.864526" /></g><g
   id="g16984"
   transform="matrix(-2.784254,-0.96923724,-0.96923724,2.784254,1996.2015,1441.7641)"><path
     style="fill:none;fill-opacity:1;stroke:#5f544e;stroke-width:7.37571;stroke-linecap:round;stroke-linejoin:round;stroke-dasharray:none;stroke-opacity:1"
     d="m 445.26428,-447.48745 c 2.38836,-12.77217 9.2288,-24.66731 19.06653,-33.15563 9.83774,-8.48832 22.60653,-13.51267 35.59077,-14.00449 12.98425,-0.49182 26.09654,3.55219 36.54821,11.27198 10.45167,7.71979 18.17235,19.06338 21.52006,31.61828 4.56552,17.12205 1.07097,35.27391 -3.1114,52.49356 -4.18237,17.21965 -9.08181,34.75201 -7.24852,52.37721 1.77559,17.07044 10.11507,33.37489 22.91729,44.80537 12.80221,11.43049 29.94362,17.87673 47.10539,17.71456 17.16178,-0.16217 34.17831,-6.93118 46.76223,-18.60156 12.58392,-11.67038 20.6138,-28.1295 22.06649,-45.23045"
     id="path16922"
     inkscape:path-effect="#path-effect16988"
     inkscape:original-d="m 445.26428,-447.48745 c 37.21013,-1.22617 75.15082,-2.84613 112.72557,-4.26986 37.57475,-1.42373 -6.90617,69.91429 -10.35992,104.87077 -3.45376,34.95648 92.56805,-0.87428 138.8514,-1.31208" /><path
     inkscape:connector-curvature="0"
     id="path16924"
     style="fill:#156c2e;fill-opacity:1;fill-rule:nonzero;stroke:none;stroke-width:1.37538"
     d="m 723.55466,-327.34534 c 0,0 -14.53261,4.76455 -22.50655,-1.48639 -7.97585,-6.25132 -12.41845,-14.38414 -12.41845,-14.38414 0,0 15.72289,-8.22985 23.04943,-2.97568 7.32958,5.25377 11.87557,18.84621 11.87557,18.84621"
     inkscape:transform-center-x="-16.155242"
     inkscape:transform-center-y="6.7868919" /><path
     inkscape:connector-curvature="0"
     id="path16926"
     style="fill:#156c2e;fill-opacity:1;fill-rule:nonzero;stroke:none;stroke-width:1.37538"
     d="m 714.93103,-304.97906 c 0,0 -14.53261,4.76455 -22.50655,-1.48639 -7.97585,-6.25132 -12.41845,-14.38414 -12.41845,-14.38414 0,0 15.72289,-8.22985 23.04943,-2.97568 7.32958,5.25377 11.87557,18.84621 11.87557,18.84621"
     inkscape:transform-center-x="-16.155242"
     inkscape:transform-center-y="6.7868919" /><path
     inkscape:connector-curvature="0"
     id="path16928"
     style="fill:#156c2e;fill-opacity:1;fill-rule:nonzero;stroke:none;stroke-width:1.37538"
     d="m 697.72639,-279.83071 c 0,0 -15.29342,0.0945 -20.97509,-8.29456 -5.68337,-8.39002 -7.42749,-17.49153 -7.42749,-17.49153 0,0 17.48593,-3.03015 22.85586,4.21198 5.37294,7.24267 5.54672,21.57411 5.54672,21.57411"
     inkscape:transform-center-x="-12.850422"
     inkscape:transform-center-y="12.509775" /><path
     inkscape:connector-curvature="0"
     id="path16930"
     style="fill:#156c2e;fill-opacity:1;fill-rule:nonzero;stroke:none;stroke-width:1.37538"
     d="m 679.14676,-264.93616 c 0,0 -15.29342,0.0945 -20.97509,-8.29456 -5.68337,-8.39002 -7.42749,-17.49153 -7.42749,-17.49153 0,0 17.48593,-3.03015 22.85586,4.21198 5.37294,7.24267 5.54672,21.57411 5.54672,21.57411"
     inkscape:transform-center-x="-12.850422"
     inkscape:transform-center-y="12.509775" /><path
     inkscape:connector-curvature="0"
     id="path16932"
     style="fill:#156c2e;fill-opacity:1;fill-rule:nonzero;stroke:none;stroke-width:1.37538"
     d="m 646.42801,-247.43118 c 0,0 -13.30705,-7.53791 -14.05348,-17.64239 -0.74743,-10.10616 2.27512,-18.86651 2.27512,-18.86651 0,0 16.67071,6.08499 17.7183,15.03972 1.04992,8.9567 -5.93994,21.46918 -5.93994,21.46918"
     inkscape:transform-center-x="-6.5789378"
     inkscape:transform-center-y="17.521703" /><path
     inkscape:connector-curvature="0"
     id="path16934"
     style="fill:#156c2e;fill-opacity:1;fill-rule:nonzero;stroke:none;stroke-width:1.37538"
     d="m 613.31324,-244.28501 c 0,0 -11.26774,-10.34096 -9.71952,-20.35399 1.54762,-10.01489 6.46531,-17.86956 6.46531,-17.86956 0,0 14.8722,9.68285 13.87632,18.64348 -0.99405,8.96307 -10.62211,19.58007 -10.62211,19.58007"
     inkscape:transform-center-x="-2.7136471"
     inkscape:transform-center-y="18.141808" /><path
     inkscape:connector-curvature="0"
     id="path16936"
     style="fill:#156c2e;fill-opacity:1;fill-rule:nonzero;stroke:none;stroke-width:1.37538"
     d="m 573.08272,-252.67787 c 0,0 -3.58987,-14.86641 3.27732,-22.31621 6.86773,-7.45167 15.32907,-11.23125 15.32907,-11.23125 0,0 6.94918,16.32939 1.12722,23.21338 -5.82181,6.88704 -19.73361,10.33408 -19.73361,10.33408"
     inkscape:transform-center-x="8.2882291"
     inkscape:transform-center-y="15.442913" /><path
     inkscape:connector-curvature="0"
     id="path16938"
     style="fill:#156c2e;fill-opacity:1;fill-rule:nonzero;stroke:none;stroke-width:1.37538"
     d="m 543.06304,-271.83402 c 0,0 0.78796,-15.27339 9.49084,-20.46163 8.70392,-5.18987 17.8909,-6.40602 17.8909,-6.40602 0,0 2.01631,17.63163 -5.52356,22.57481 -7.54058,4.94614 -21.85818,4.29284 -21.85818,4.29284"
     inkscape:transform-center-x="13.421789"
     inkscape:transform-center-y="12.103432" /><path
     inkscape:connector-curvature="0"
     id="path16940"
     style="fill:#156c2e;fill-opacity:1;fill-rule:nonzero;stroke:none;stroke-width:1.37538"
     d="m 519.00343,-304.98384 c 0,0 7.56765,-13.29015 17.67379,-14.01397 10.1078,-0.72482 18.86137,2.31731 18.86137,2.31731 0,0 -6.12227,16.65706 -15.07933,17.68461 -8.95901,1.02988 -21.45583,-5.98795 -21.45583,-5.98795"
     inkscape:transform-center-x="17.532288"
     inkscape:transform-center-y="6.5441182" /><path
     inkscape:connector-curvature="0"
     id="path16942"
     style="fill:#156c2e;fill-opacity:1;fill-rule:nonzero;stroke:none;stroke-width:1.37538"
     d="m 509.37056,-329.19656 c 0,0 7.56765,-13.29015 17.67379,-14.01397 10.1078,-0.72482 18.86137,2.31731 18.86137,2.31731 0,0 -6.12227,16.65706 -15.07933,17.68461 -8.95901,1.02988 -21.45583,-5.98795 -21.45583,-5.98795"
     inkscape:transform-center-x="17.532288"
     inkscape:transform-center-y="6.5441182" /><path
     inkscape:connector-curvature="0"
     id="path16944"
     style="fill:#156c2e;fill-opacity:1;fill-rule:nonzero;stroke:none;stroke-width:1.37538"
     d="m 507.31019,-361.74217 c 0,0 10.96121,-10.66534 20.87075,-8.55372 9.91142,2.11112 17.47562,7.46485 17.47562,7.46485 0,0 -10.50785,14.30122 -19.39788,12.80053 -8.89256,-1.49899 -18.94849,-11.71166 -18.94849,-11.71166"
     inkscape:transform-center-x="18.151493"
     inkscape:transform-center-y="1.6982265" /><path
     inkscape:connector-curvature="0"
     id="path16946"
     style="fill:#156c2e;fill-opacity:1;fill-rule:nonzero;stroke:none;stroke-width:1.37538"
     d="m 512.45221,-396.10123 c 0,0 13.99251,-6.17311 22.5435,-0.73819 8.55293,5.43512 13.77517,13.09069 13.77517,13.09069 0,0 -14.8356,9.73884 -22.64414,5.23203 -7.81152,-4.50609 -13.67453,-17.58453 -13.67453,-17.58453"
     inkscape:transform-center-x="16.892653"
     inkscape:transform-center-y="-4.9274021" /><path
     inkscape:connector-curvature="0"
     id="path16948"
     style="fill:#156c2e;fill-opacity:1;fill-rule:nonzero;stroke:none;stroke-width:1.37538"
     d="m 518.10241,-417.12803 c 0,0 12.57046,-8.71098 21.99588,-4.99356 9.42736,3.71726 16.00474,10.24547 16.00474,10.24547 0,0 -12.72311,12.37184 -21.24377,9.42515 -8.52345,-2.94542 -16.75685,-14.67706 -16.75685,-14.67706"
     inkscape:transform-center-x="17.846388"
     inkscape:transform-center-y="-1.3505979" /><path
     inkscape:connector-curvature="0"
     id="path16950"
     style="fill:#156c2e;fill-opacity:1;fill-rule:nonzero;stroke:none;stroke-width:1.37538"
     d="m 519.72031,-436.89969 c 0,0 9.57966,-11.92174 19.67267,-11.0336 10.09483,0.88744 18.25513,5.27936 18.25513,5.27936 0,0 -8.68655,15.47526 -17.6932,15.06923 -9.00897,-0.40402 -20.2346,-9.31499 -20.2346,-9.31499"
     inkscape:transform-center-x="18.057858"
     inkscape:transform-center-y="3.8709004" /><path
     inkscape:connector-curvature="0"
     id="path16952"
     style="fill:#156c2e;fill-opacity:1;fill-rule:nonzero;stroke:none;stroke-width:1.37538"
     d="m 511.52238,-455.05052 c 0,0 6.46966,-13.85789 16.48432,-15.3955 10.01627,-1.53871 18.98691,0.78657 18.98691,0.78657 0,0 -4.7571,17.09707 -13.60191,18.8446 -8.84659,1.75003 -21.86932,-4.23567 -21.86932,-4.23567"
     inkscape:transform-center-x="17.094413"
     inkscape:transform-center-y="7.7351832" /><path
     inkscape:connector-curvature="0"
     id="path16954"
     style="fill:#156c2e;fill-opacity:1;fill-rule:nonzero;stroke:none;stroke-width:1.37538"
     d="m 492.29492,-464.19381 c 0,0 1.07338,-15.256 9.87172,-20.28062 8.79945,-5.02622 18.00755,-6.07039 18.00755,-6.07039 0,0 1.68631,17.66625 -5.94466,22.46758 -7.63174,4.8043 -21.93461,3.88343 -21.93461,3.88343"
     inkscape:transform-center-x="13.688654"
     inkscape:transform-center-y="11.869187" /><path
     inkscape:connector-curvature="0"
     id="path16956"
     style="fill:#156c2e;fill-opacity:1;fill-rule:nonzero;stroke:none;stroke-width:1.37538"
     d="m 645.30796,-352.67029 c 0,0 13.24831,-7.64068 22.33371,-3.15587 9.08735,4.48479 15.10183,11.535 15.10183,11.535 0,0 -13.70344,11.27632 -21.95097,7.63452 -8.25042,-3.64079 -15.48457,-16.01365 -15.48457,-16.01365"
     inkscape:transform-center-x="17.509398"
     inkscape:transform-center-y="-2.9013658" /><path
     inkscape:connector-curvature="0"
     id="path16958"
     style="fill:#156c2e;fill-opacity:1;fill-rule:nonzero;stroke:none;stroke-width:1.37538"
     d="m 638.18193,-333.86637 c 0,0 14.67595,-4.3028 22.44831,2.19707 7.77427,6.50031 11.95757,14.7695 11.95757,14.7695 0,0 -15.97517,7.72874 -23.13197,2.24561 -7.15984,-5.48283 -11.27391,-19.21218 -11.27391,-19.21218"
     inkscape:transform-center-x="15.885358"
     inkscape:transform-center-y="-7.3818001" /><path
     inkscape:connector-curvature="0"
     id="path16960"
     style="fill:#156c2e;fill-opacity:1;fill-rule:nonzero;stroke:none;stroke-width:1.37538"
     d="m 625.8381,-326.57365 c 0,0 14.68955,4.25616 17.75249,13.91413 3.06432,9.65936 2.14963,18.88122 2.14963,18.88122 0,0 -17.62601,-2.06476 -20.71607,-10.53448 -3.09279,-8.47109 0.81395,-22.26087 0.81395,-22.26087"
     inkscape:transform-center-x="9.6141414"
     inkscape:transform-center-y="-15.947731" /><path
     inkscape:connector-curvature="0"
     id="path16962"
     style="fill:#156c2e;fill-opacity:1;fill-rule:nonzero;stroke:none;stroke-width:1.37538"
     d="m 610.11145,-325.13966 c 0,0 11.41099,10.18269 10.00264,20.21636 -1.4077,10.03552 -6.21529,17.95805 -6.21529,17.95805 0,0 -15.00588,-9.47433 -14.13516,-18.44799 0.86886,-8.97606 10.34781,-19.72642 10.34781,-19.72642"
     inkscape:transform-center-x="2.9617781"
     inkscape:transform-center-y="-18.130501" /><path
     inkscape:connector-curvature="0"
     id="path16964"
     style="fill:#156c2e;fill-opacity:1;fill-rule:nonzero;stroke:none;stroke-width:1.37538"
     d="m 597.85822,-331.33829 c 0,0 4.74858,14.53784 -1.51113,22.5049 -6.26008,7.96899 -14.39777,12.40264 -14.39777,12.40264 0,0 -8.21257,-15.73191 -2.95035,-23.05269 5.26182,-7.32378 18.85925,-11.85485 18.85925,-11.85485"
     inkscape:transform-center-x="-6.8075847"
     inkscape:transform-center-y="-16.146136" /><path
     inkscape:connector-curvature="0"
     id="path16966"
     style="fill:#156c2e;fill-opacity:1;fill-rule:nonzero;stroke:none;stroke-width:1.37538"
     d="m 590.2128,-342.09712 c 0,0 -2.96779,15.003 -12.32416,18.89097 -9.35764,3.88948 -18.62406,3.77699 -18.62406,3.77699 0,0 0.53028,-17.7386 8.70052,-21.55068 8.17136,-3.81489 22.2477,-1.11728 22.2477,-1.11728"
     inkscape:transform-center-x="-15.136352"
     inkscape:transform-center-y="-10.486895" /><path
     inkscape:connector-curvature="0"
     id="path16968"
     style="fill:#156c2e;fill-opacity:1;fill-rule:nonzero;stroke:none;stroke-width:1.37538"
     d="m 587.87537,-355.52768 c 0,0 -9.14952,12.25496 -19.26775,11.72636 -10.12002,-0.52779 -18.43136,-4.62667 -18.43136,-4.62667 0,0 8.13058,-15.77444 17.14598,-15.68905 9.01762,0.0833 20.55313,8.58936 20.55313,8.58936"
     inkscape:transform-center-x="-17.979827"
     inkscape:transform-center-y="-4.4871277" /><path
     inkscape:connector-curvature="0"
     id="path16970"
     style="fill:#156c2e;fill-opacity:1;fill-rule:nonzero;stroke:none;stroke-width:1.37538"
     d="m 590.57543,-372.79629 c 0,0 -12.66175,8.57776 -22.04738,4.76096 -9.38759,-3.81661 -15.89564,-10.41392 -15.89564,-10.41392 0,0 12.85305,-12.23677 21.34212,-9.20027 8.49186,3.03526 16.6009,14.85323 16.6009,14.85323"
     inkscape:transform-center-x="-17.810212"
     inkscape:transform-center-y="1.5475829" /><path
     inkscape:connector-curvature="0"
     id="path16972"
     style="fill:#156c2e;fill-opacity:1;fill-rule:nonzero;stroke:none;stroke-width:1.37538"
     d="m 596.29007,-398.20916 c 0,0 -12.39341,8.96109 -21.8914,5.43322 -9.49996,-3.52764 -16.20681,-9.92276 -16.20681,-9.92276 0,0 12.47269,-12.62425 21.05068,-9.84888 8.58074,2.77406 17.04753,14.33842 17.04753,14.33842"
     inkscape:transform-center-x="-17.909557"
     inkscape:transform-center-y="0.97762543" /><path
     inkscape:connector-curvature="0"
     id="path16974"
     style="fill:#156c2e;fill-opacity:1;fill-rule:nonzero;stroke:none;stroke-width:1.37538"
     d="m 600.69104,-425.93409 c 0,0 -11.04152,10.58217 -20.9348,8.39567 -9.89519,-2.18601 -17.4187,-7.59676 -17.4187,-7.59676 0,0 10.61568,-14.22136 19.4941,-12.65351 8.88097,1.56616 18.8594,11.8546 18.8594,11.8546"
     inkscape:transform-center-x="-18.148392"
     inkscape:transform-center-y="-1.561303" /><path
     inkscape:connector-curvature="0"
     id="path16976"
     style="fill:#156c2e;fill-opacity:1;fill-rule:nonzero;stroke:none;stroke-width:1.37538"
     d="m 599.24348,-453.62411 c 0,0 -8.73241,12.55558 -18.86268,12.36739 -10.13205,-0.18732 -18.57649,-4.0045 -18.57649,-4.0045 0,0 7.59577,-16.03883 16.60893,-16.25653 9.01533,-0.21986 20.83024,7.89364 20.83024,7.89364"
     inkscape:transform-center-x="-17.885157"
     inkscape:transform-center-y="-5.0625879" /><path
     inkscape:connector-curvature="0"
     id="path16978"
     style="fill:#156c2e;fill-opacity:1;fill-rule:nonzero;stroke:none;stroke-width:1.37538"
     d="m 586.65763,-487.76231 c 0,0 -2.9872,14.99914 -12.34859,18.87499 -9.36267,3.87737 -18.62895,3.75291 -18.62895,3.75291 0,0 0.55326,-17.73792 8.72841,-21.53941 8.17628,-3.80435 22.24913,-1.08849 22.24913,-1.08849"
     inkscape:transform-center-x="-15.149302"
     inkscape:transform-center-y="-10.474043" /><path
     inkscape:connector-curvature="0"
     id="path16980"
     style="fill:#156c2e;fill-opacity:1;fill-rule:nonzero;stroke:none;stroke-width:1.37538"
     d="m 565.13723,-513.43546 c 0,0 1.71451,15.19731 -6.02532,21.73588 -7.74058,6.54042 -16.60603,9.23914 -16.60603,9.23914 0,0 -4.86592,-17.06643 1.76643,-23.1735 6.63256,-6.11014 20.86492,-7.80152 20.86492,-7.80152"
     inkscape:transform-center-x="-10.610701"
     inkscape:transform-center-y="-14.136946" /><path
     inkscape:connector-curvature="0"
     id="path16982"
     style="fill:#156c2e;fill-opacity:1;fill-rule:nonzero;stroke:none;stroke-width:1.37538"
     d="m 534.93857,-528.93114 c 0,0 6.11422,14.01835 0.64333,22.54638 -5.47105,8.53002 -13.14851,13.72 -13.14851,13.72 0,0 -9.67633,-14.87645 -5.13673,-22.66595 4.5389,-7.7925 17.64191,-13.60043 17.64191,-13.60043"
     inkscape:transform-center-x="-5.0067083"
     inkscape:transform-center-y="-16.864526" /></g><g
   id="g17163"
   transform="matrix(-1.0571689e-4,-2.9481335,-2.9481335,1.0571689e-4,213.85806,2133.6911)"><path
     style="fill:none;fill-opacity:1;stroke:#5f544e;stroke-width:7.37571;stroke-linecap:round;stroke-linejoin:round;stroke-dasharray:none;stroke-opacity:1"
     d="m 445.26428,-447.48745 c 2.38836,-12.77217 9.2288,-24.66731 19.06653,-33.15563 9.83774,-8.48832 22.60653,-13.51267 35.59077,-14.00449 12.98425,-0.49182 26.09654,3.55219 36.54821,11.27198 10.45167,7.71979 18.17235,19.06338 21.52006,31.61828 4.56552,17.12205 1.07097,35.27391 -3.1114,52.49356 -4.18237,17.21965 -9.08181,34.75201 -7.24852,52.37721 1.77559,17.07044 10.11507,33.37489 22.91729,44.80537 12.80221,11.43049 29.94362,17.87673 47.10539,17.71456 17.16178,-0.16217 34.17831,-6.93118 46.76223,-18.60156 12.58392,-11.67038 20.6138,-28.1295 22.06649,-45.23045"
     id="path17101"
     inkscape:path-effect="#path-effect17167"
     inkscape:original-d="m 445.26428,-447.48745 c 37.21013,-1.22617 75.15082,-2.84613 112.72557,-4.26986 37.57475,-1.42373 -6.90617,69.91429 -10.35992,104.87077 -3.45376,34.95648 92.56805,-0.87428 138.8514,-1.31208" /><path
     inkscape:connector-curvature="0"
     id="path17103"
     style="fill:#156c2e;fill-opacity:1;fill-rule:nonzero;stroke:none;stroke-width:1.37538"
     d="m 723.55466,-327.34534 c 0,0 -14.53261,4.76455 -22.50655,-1.48639 -7.97585,-6.25132 -12.41845,-14.38414 -12.41845,-14.38414 0,0 15.72289,-8.22985 23.04943,-2.97568 7.32958,5.25377 11.87557,18.84621 11.87557,18.84621"
     inkscape:transform-center-x="-16.155242"
     inkscape:transform-center-y="6.7868919" /><path
     inkscape:connector-curvature="0"
     id="path17105"
     style="fill:#156c2e;fill-opacity:1;fill-rule:nonzero;stroke:none;stroke-width:1.37538"
     d="m 714.93103,-304.97906 c 0,0 -14.53261,4.76455 -22.50655,-1.48639 -7.97585,-6.25132 -12.41845,-14.38414 -12.41845,-14.38414 0,0 15.72289,-8.22985 23.04943,-2.97568 7.32958,5.25377 11.87557,18.84621 11.87557,18.84621"
     inkscape:transform-center-x="-16.155242"
     inkscape:transform-center-y="6.7868919" /><path
     inkscape:connector-curvature="0"
     id="path17107"
     style="fill:#156c2e;fill-opacity:1;fill-rule:nonzero;stroke:none;stroke-width:1.37538"
     d="m 697.72639,-279.83071 c 0,0 -15.29342,0.0945 -20.97509,-8.29456 -5.68337,-8.39002 -7.42749,-17.49153 -7.42749,-17.49153 0,0 17.48593,-3.03015 22.85586,4.21198 5.37294,7.24267 5.54672,21.57411 5.54672,21.57411"
     inkscape:transform-center-x="-12.850422"
     inkscape:transform-center-y="12.509775" /><path
     inkscape:connector-curvature="0"
     id="path17109"
     style="fill:#156c2e;fill-opacity:1;fill-rule:nonzero;stroke:none;stroke-width:1.37538"
     d="m 679.14676,-264.93616 c 0,0 -15.29342,0.0945 -20.97509,-8.29456 -5.68337,-8.39002 -7.42749,-17.49153 -7.42749,-17.49153 0,0 17.48593,-3.03015 22.85586,4.21198 5.37294,7.24267 5.54672,21.57411 5.54672,21.57411"
     inkscape:transform-center-x="-12.850422"
     inkscape:transform-center-y="12.509775" /><path
     inkscape:connector-curvature="0"
     id="path17111"
     style="fill:#156c2e;fill-opacity:1;fill-rule:nonzero;stroke:none;stroke-width:1.37538"
     d="m 646.42801,-247.43118 c 0,0 -13.30705,-7.53791 -14.05348,-17.64239 -0.74743,-10.10616 2.27512,-18.86651 2.27512,-18.86651 0,0 16.67071,6.08499 17.7183,15.03972 1.04992,8.9567 -5.93994,21.46918 -5.93994,21.46918"
     inkscape:transform-center-x="-6.5789378"
     inkscape:transform-center-y="17.521703" /><path
     inkscape:connector-curvature="0"
     id="path17113"
     style="fill:#156c2e;fill-opacity:1;fill-rule:nonzero;stroke:none;stroke-width:1.37538"
     d="m 613.31324,-244.28501 c 0,0 -11.26774,-10.34096 -9.71952,-20.35399 1.54762,-10.01489 6.46531,-17.86956 6.46531,-17.86956 0,0 14.8722,9.68285 13.87632,18.64348 -0.99405,8.96307 -10.62211,19.58007 -10.62211,19.58007"
     inkscape:transform-center-x="-2.7136471"
     inkscape:transform-center-y="18.141808" /><path
     inkscape:connector-curvature="0"
     id="path17115"
     style="fill:#156c2e;fill-opacity:1;fill-rule:nonzero;stroke:none;stroke-width:1.37538"
     d="m 573.08272,-252.67787 c 0,0 -3.58987,-14.86641 3.27732,-22.31621 6.86773,-7.45167 15.32907,-11.23125 15.32907,-11.23125 0,0 6.94918,16.32939 1.12722,23.21338 -5.82181,6.88704 -19.73361,10.33408 -19.73361,10.33408"
     inkscape:transform-center-x="8.2882291"
     inkscape:transform-center-y="15.442913" /><path
     inkscape:connector-curvature="0"
     id="path17117"
     style="fill:#156c2e;fill-opacity:1;fill-rule:nonzero;stroke:none;stroke-width:1.37538"
     d="m 543.06304,-271.83402 c 0,0 0.78796,-15.27339 9.49084,-20.46163 8.70392,-5.18987 17.8909,-6.40602 17.8909,-6.40602 0,0 2.01631,17.63163 -5.52356,22.57481 -7.54058,4.94614 -21.85818,4.29284 -21.85818,4.29284"
     inkscape:transform-center-x="13.421789"
     inkscape:transform-center-y="12.103432" /><path
     inkscape:connector-curvature="0"
     id="path17119"
     style="fill:#156c2e;fill-opacity:1;fill-rule:nonzero;stroke:none;stroke-width:1.37538"
     d="m 519.00343,-304.98384 c 0,0 7.56765,-13.29015 17.67379,-14.01397 10.1078,-0.72482 18.86137,2.31731 18.86137,2.31731 0,0 -6.12227,16.65706 -15.07933,17.68461 -8.95901,1.02988 -21.45583,-5.98795 -21.45583,-5.98795"
     inkscape:transform-center-x="17.532288"
     inkscape:transform-center-y="6.5441182" /><path
     inkscape:connector-curvature="0"
     id="path17121"
     style="fill:#156c2e;fill-opacity:1;fill-rule:nonzero;stroke:none;stroke-width:1.37538"
     d="m 509.37056,-329.19656 c 0,0 7.56765,-13.29015 17.67379,-14.01397 10.1078,-0.72482 18.86137,2.31731 18.86137,2.31731 0,0 -6.12227,16.65706 -15.07933,17.68461 -8.95901,1.02988 -21.45583,-5.98795 -21.45583,-5.98795"
     inkscape:transform-center-x="17.532288"
     inkscape:transform-center-y="6.5441182" /><path
     inkscape:connector-curvature="0"
     id="path17123"
     style="fill:#156c2e;fill-opacity:1;fill-rule:nonzero;stroke:none;stroke-width:1.37538"
     d="m 507.31019,-361.74217 c 0,0 10.96121,-10.66534 20.87075,-8.55372 9.91142,2.11112 17.47562,7.46485 17.47562,7.46485 0,0 -10.50785,14.30122 -19.39788,12.80053 -8.89256,-1.49899 -18.94849,-11.71166 -18.94849,-11.71166"
     inkscape:transform-center-x="18.151493"
     inkscape:transform-center-y="1.6982265" /><path
     inkscape:connector-curvature="0"
     id="path17125"
     style="fill:#156c2e;fill-opacity:1;fill-rule:nonzero;stroke:none;stroke-width:1.37538"
     d="m 512.45221,-396.10123 c 0,0 13.99251,-6.17311 22.5435,-0.73819 8.55293,5.43512 13.77517,13.09069 13.77517,13.09069 0,0 -14.8356,9.73884 -22.64414,5.23203 -7.81152,-4.50609 -13.67453,-17.58453 -13.67453,-17.58453"
     inkscape:transform-center-x="16.892653"
     inkscape:transform-center-y="-4.9274021" /><path
     inkscape:connector-curvature="0"
     id="path17127"
     style="fill:#156c2e;fill-opacity:1;fill-rule:nonzero;stroke:none;stroke-width:1.37538"
     d="m 518.10241,-417.12803 c 0,0 12.57046,-8.71098 21.99588,-4.99356 9.42736,3.71726 16.00474,10.24547 16.00474,10.24547 0,0 -12.72311,12.37184 -21.24377,9.42515 -8.52345,-2.94542 -16.75685,-14.67706 -16.75685,-14.67706"
     inkscape:transform-center-x="17.846388"
     inkscape:transform-center-y="-1.3505979" /><path
     inkscape:connector-curvature="0"
     id="path17129"
     style="fill:#156c2e;fill-opacity:1;fill-rule:nonzero;stroke:none;stroke-width:1.37538"
     d="m 519.72031,-436.89969 c 0,0 9.57966,-11.92174 19.67267,-11.0336 10.09483,0.88744 18.25513,5.27936 18.25513,5.27936 0,0 -8.68655,15.47526 -17.6932,15.06923 -9.00897,-0.40402 -20.2346,-9.31499 -20.2346,-9.31499"
     inkscape:transform-center-x="18.057858"
     inkscape:transform-center-y="3.8709004" /><path
     inkscape:connector-curvature="0"
     id="path17131"
     style="fill:#156c2e;fill-opacity:1;fill-rule:nonzero;stroke:none;stroke-width:1.37538"
     d="m 511.52238,-455.05052 c 0,0 6.46966,-13.85789 16.48432,-15.3955 10.01627,-1.53871 18.98691,0.78657 18.98691,0.78657 0,0 -4.7571,17.09707 -13.60191,18.8446 -8.84659,1.75003 -21.86932,-4.23567 -21.86932,-4.23567"
     inkscape:transform-center-x="17.094413"
     inkscape:transform-center-y="7.7351832" /><path
     inkscape:connector-curvature="0"
     id="path17133"
     style="fill:#156c2e;fill-opacity:1;fill-rule:nonzero;stroke:none;stroke-width:1.37538"
     d="m 492.29492,-464.19381 c 0,0 1.07338,-15.256 9.87172,-20.28062 8.79945,-5.02622 18.00755,-6.07039 18.00755,-6.07039 0,0 1.68631,17.66625 -5.94466,22.46758 -7.63174,4.8043 -21.93461,3.88343 -21.93461,3.88343"
     inkscape:transform-center-x="13.688654"
     inkscape:transform-center-y="11.869187" /><path
     inkscape:connector-curvature="0"
     id="path17135"
     style="fill:#156c2e;fill-opacity:1;fill-rule:nonzero;stroke:none;stroke-width:1.37538"
     d="m 645.30796,-352.67029 c 0,0 13.24831,-7.64068 22.33371,-3.15587 9.08735,4.48479 15.10183,11.535 15.10183,11.535 0,0 -13.70344,11.27632 -21.95097,7.63452 -8.25042,-3.64079 -15.48457,-16.01365 -15.48457,-16.01365"
     inkscape:transform-center-x="17.509398"
     inkscape:transform-center-y="-2.9013658" /><path
     inkscape:connector-curvature="0"
     id="path17137"
     style="fill:#156c2e;fill-opacity:1;fill-rule:nonzero;stroke:none;stroke-width:1.37538"
     d="m 638.18193,-333.86637 c 0,0 14.67595,-4.3028 22.44831,2.19707 7.77427,6.50031 11.95757,14.7695 11.95757,14.7695 0,0 -15.97517,7.72874 -23.13197,2.24561 -7.15984,-5.48283 -11.27391,-19.21218 -11.27391,-19.21218"
     inkscape:transform-center-x="15.885358"
     inkscape:transform-center-y="-7.3818001" /><path
     inkscape:connector-curvature="0"
     id="path17139"
     style="fill:#156c2e;fill-opacity:1;fill-rule:nonzero;stroke:none;stroke-width:1.37538"
     d="m 625.8381,-326.57365 c 0,0 14.68955,4.25616 17.75249,13.91413 3.06432,9.65936 2.14963,18.88122 2.14963,18.88122 0,0 -17.62601,-2.06476 -20.71607,-10.53448 -3.09279,-8.47109 0.81395,-22.26087 0.81395,-22.26087"
     inkscape:transform-center-x="9.6141414"
     inkscape:transform-center-y="-15.947731" /><path
     inkscape:connector-curvature="0"
     id="path17141"
     style="fill:#156c2e;fill-opacity:1;fill-rule:nonzero;stroke:none;stroke-width:1.37538"
     d="m 610.11145,-325.13966 c 0,0 11.41099,10.18269 10.00264,20.21636 -1.4077,10.03552 -6.21529,17.95805 -6.21529,17.95805 0,0 -15.00588,-9.47433 -14.13516,-18.44799 0.86886,-8.97606 10.34781,-19.72642 10.34781,-19.72642"
     inkscape:transform-center-x="2.9617781"
     inkscape:transform-center-y="-18.130501" /><path
     inkscape:connector-curvature="0"
     id="path17143"
     style="fill:#156c2e;fill-opacity:1;fill-rule:nonzero;stroke:none;stroke-width:1.37538"
     d="m 597.85822,-331.33829 c 0,0 4.74858,14.53784 -1.51113,22.5049 -6.26008,7.96899 -14.39777,12.40264 -14.39777,12.40264 0,0 -8.21257,-15.73191 -2.95035,-23.05269 5.26182,-7.32378 18.85925,-11.85485 18.85925,-11.85485"
     inkscape:transform-center-x="-6.8075847"
     inkscape:transform-center-y="-16.146136" /><path
     inkscape:connector-curvature="0"
     id="path17145"
     style="fill:#156c2e;fill-opacity:1;fill-rule:nonzero;stroke:none;stroke-width:1.37538"
     d="m 590.2128,-342.09712 c 0,0 -2.96779,15.003 -12.32416,18.89097 -9.35764,3.88948 -18.62406,3.77699 -18.62406,3.77699 0,0 0.53028,-17.7386 8.70052,-21.55068 8.17136,-3.81489 22.2477,-1.11728 22.2477,-1.11728"
     inkscape:transform-center-x="-15.136352"
     inkscape:transform-center-y="-10.486895" /><path
     inkscape:connector-curvature="0"
     id="path17147"
     style="fill:#156c2e;fill-opacity:1;fill-rule:nonzero;stroke:none;stroke-width:1.37538"
     d="m 587.87537,-355.52768 c 0,0 -9.14952,12.25496 -19.26775,11.72636 -10.12002,-0.52779 -18.43136,-4.62667 -18.43136,-4.62667 0,0 8.13058,-15.77444 17.14598,-15.68905 9.01762,0.0833 20.55313,8.58936 20.55313,8.58936"
     inkscape:transform-center-x="-17.979827"
     inkscape:transform-center-y="-4.4871277" /><path
     inkscape:connector-curvature="0"
     id="path17149"
     style="fill:#156c2e;fill-opacity:1;fill-rule:nonzero;stroke:none;stroke-width:1.37538"
     d="m 590.57543,-372.79629 c 0,0 -12.66175,8.57776 -22.04738,4.76096 -9.38759,-3.81661 -15.89564,-10.41392 -15.89564,-10.41392 0,0 12.85305,-12.23677 21.34212,-9.20027 8.49186,3.03526 16.6009,14.85323 16.6009,14.85323"
     inkscape:transform-center-x="-17.810212"
     inkscape:transform-center-y="1.5475829" /><path
     inkscape:connector-curvature="0"
     id="path17151"
     style="fill:#156c2e;fill-opacity:1;fill-rule:nonzero;stroke:none;stroke-width:1.37538"
     d="m 596.29007,-398.20916 c 0,0 -12.39341,8.96109 -21.8914,5.43322 -9.49996,-3.52764 -16.20681,-9.92276 -16.20681,-9.92276 0,0 12.47269,-12.62425 21.05068,-9.84888 8.58074,2.77406 17.04753,14.33842 17.04753,14.33842"
     inkscape:transform-center-x="-17.909557"
     inkscape:transform-center-y="0.97762543" /><path
     inkscape:connector-curvature="0"
     id="path17153"
     style="fill:#156c2e;fill-opacity:1;fill-rule:nonzero;stroke:none;stroke-width:1.37538"
     d="m 600.69104,-425.93409 c 0,0 -11.04152,10.58217 -20.9348,8.39567 -9.89519,-2.18601 -17.4187,-7.59676 -17.4187,-7.59676 0,0 10.61568,-14.22136 19.4941,-12.65351 8.88097,1.56616 18.8594,11.8546 18.8594,11.8546"
     inkscape:transform-center-x="-18.148392"
     inkscape:transform-center-y="-1.561303" /><path
     inkscape:connector-curvature="0"
     id="path17155"
     style="fill:#156c2e;fill-opacity:1;fill-rule:nonzero;stroke:none;stroke-width:1.37538"
     d="m 599.24348,-453.62411 c 0,0 -8.73241,12.55558 -18.86268,12.36739 -10.13205,-0.18732 -18.57649,-4.0045 -18.57649,-4.0045 0,0 7.59577,-16.03883 16.60893,-16.25653 9.01533,-0.21986 20.83024,7.89364 20.83024,7.89364"
     inkscape:transform-center-x="-17.885157"
     inkscape:transform-center-y="-5.0625879" /><path
     inkscape:connector-curvature="0"
     id="path17157"
     style="fill:#156c2e;fill-opacity:1;fill-rule:nonzero;stroke:none;stroke-width:1.37538"
     d="m 586.65763,-487.76231 c 0,0 -2.9872,14.99914 -12.34859,18.87499 -9.36267,3.87737 -18.62895,3.75291 -18.62895,3.75291 0,0 0.55326,-17.73792 8.72841,-21.53941 8.17628,-3.80435 22.24913,-1.08849 22.24913,-1.08849"
     inkscape:transform-center-x="-15.149302"
     inkscape:transform-center-y="-10.474043" /><path
     inkscape:connector-curvature="0"
     id="path17159"
     style="fill:#156c2e;fill-opacity:1;fill-rule:nonzero;stroke:none;stroke-width:1.37538"
     d="m 565.13723,-513.43546 c 0,0 1.71451,15.19731 -6.02532,21.73588 -7.74058,6.54042 -16.60603,9.23914 -16.60603,9.23914 0,0 -4.86592,-17.06643 1.76643,-23.1735 6.63256,-6.11014 20.86492,-7.80152 20.86492,-7.80152"
     inkscape:transform-center-x="-10.610701"
     inkscape:transform-center-y="-14.136946" /><path
     inkscape:connector-curvature="0"
     id="path17161"
     style="fill:#156c2e;fill-opacity:1;fill-rule:nonzero;stroke:none;stroke-width:1.37538"
     d="m 534.93857,-528.93114 c 0,0 6.11422,14.01835 0.64333,22.54638 -5.47105,8.53002 -13.14851,13.72 -13.14851,13.72 0,0 -9.67633,-14.87645 -5.13673,-22.66595 4.5389,-7.7925 17.64191,-13.60043 17.64191,-13.60043"
     inkscape:transform-center-x="-5.0067083"
     inkscape:transform-center-y="-16.864526" /></g><g
   id="g17231"
   transform="matrix(1.0571689e-4,-2.9481335,2.9481335,1.0571689e-4,974.98627,2133.6911)"><path
     style="fill:none;fill-opacity:1;stroke:#5f544e;stroke-width:7.37571;stroke-linecap:round;stroke-linejoin:round;stroke-dasharray:none;stroke-opacity:1"
     d="m 445.26428,-447.48745 c 2.38836,-12.77217 9.2288,-24.66731 19.06653,-33.15563 9.83774,-8.48832 22.60653,-13.51267 35.59077,-14.00449 12.98425,-0.49182 26.09654,3.55219 36.54821,11.27198 10.45167,7.71979 18.17235,19.06338 21.52006,31.61828 4.56552,17.12205 1.07097,35.27391 -3.1114,52.49356 -4.18237,17.21965 -9.08181,34.75201 -7.24852,52.37721 1.77559,17.07044 10.11507,33.37489 22.91729,44.80537 12.80221,11.43049 29.94362,17.87673 47.10539,17.71456 17.16178,-0.16217 34.17831,-6.93118 46.76223,-18.60156 12.58392,-11.67038 20.6138,-28.1295 22.06649,-45.23045"
     id="path17169"
     inkscape:path-effect="#path-effect17235"
     inkscape:original-d="m 445.26428,-447.48745 c 37.21013,-1.22617 75.15082,-2.84613 112.72557,-4.26986 37.57475,-1.42373 -6.90617,69.91429 -10.35992,104.87077 -3.45376,34.95648 92.56805,-0.87428 138.8514,-1.31208" /><path
     inkscape:connector-curvature="0"
     id="path17171"
     style="fill:#156c2e;fill-opacity:1;fill-rule:nonzero;stroke:none;stroke-width:1.37538"
     d="m 723.55466,-327.34534 c 0,0 -14.53261,4.76455 -22.50655,-1.48639 -7.97585,-6.25132 -12.41845,-14.38414 -12.41845,-14.38414 0,0 15.72289,-8.22985 23.04943,-2.97568 7.32958,5.25377 11.87557,18.84621 11.87557,18.84621"
     inkscape:transform-center-x="-16.155242"
     inkscape:transform-center-y="6.7868919" /><path
     inkscape:connector-curvature="0"
     id="path17173"
     style="fill:#156c2e;fill-opacity:1;fill-rule:nonzero;stroke:none;stroke-width:1.37538"
     d="m 714.93103,-304.97906 c 0,0 -14.53261,4.76455 -22.50655,-1.48639 -7.97585,-6.25132 -12.41845,-14.38414 -12.41845,-14.38414 0,0 15.72289,-8.22985 23.04943,-2.97568 7.32958,5.25377 11.87557,18.84621 11.87557,18.84621"
     inkscape:transform-center-x="-16.155242"
     inkscape:transform-center-y="6.7868919" /><path
     inkscape:connector-curvature="0"
     id="path17175"
     style="fill:#156c2e;fill-opacity:1;fill-rule:nonzero;stroke:none;stroke-width:1.37538"
     d="m 697.72639,-279.83071 c 0,0 -15.29342,0.0945 -20.97509,-8.29456 -5.68337,-8.39002 -7.42749,-17.49153 -7.42749,-17.49153 0,0 17.48593,-3.03015 22.85586,4.21198 5.37294,7.24267 5.54672,21.57411 5.54672,21.57411"
     inkscape:transform-center-x="-12.850422"
     inkscape:transform-center-y="12.509775" /><path
     inkscape:connector-curvature="0"
     id="path17177"
     style="fill:#156c2e;fill-opacity:1;fill-rule:nonzero;stroke:none;stroke-width:1.37538"
     d="m 679.14676,-264.93616 c 0,0 -15.29342,0.0945 -20.97509,-8.29456 -5.68337,-8.39002 -7.42749,-17.49153 -7.42749,-17.49153 0,0 17.48593,-3.03015 22.85586,4.21198 5.37294,7.24267 5.54672,21.57411 5.54672,21.57411"
     inkscape:transform-center-x="-12.850422"
     inkscape:transform-center-y="12.509775" /><path
     inkscape:connector-curvature="0"
     id="path17179"
     style="fill:#156c2e;fill-opacity:1;fill-rule:nonzero;stroke:none;stroke-width:1.37538"
     d="m 646.42801,-247.43118 c 0,0 -13.30705,-7.53791 -14.05348,-17.64239 -0.74743,-10.10616 2.27512,-18.86651 2.27512,-18.86651 0,0 16.67071,6.08499 17.7183,15.03972 1.04992,8.9567 -5.93994,21.46918 -5.93994,21.46918"
     inkscape:transform-center-x="-6.5789378"
     inkscape:transform-center-y="17.521703" /><path
     inkscape:connector-curvature="0"
     id="path17181"
     style="fill:#156c2e;fill-opacity:1;fill-rule:nonzero;stroke:none;stroke-width:1.37538"
     d="m 613.31324,-244.28501 c 0,0 -11.26774,-10.34096 -9.71952,-20.35399 1.54762,-10.01489 6.46531,-17.86956 6.46531,-17.86956 0,0 14.8722,9.68285 13.87632,18.64348 -0.99405,8.96307 -10.62211,19.58007 -10.62211,19.58007"
     inkscape:transform-center-x="-2.7136471"
     inkscape:transform-center-y="18.141808" /><path
     inkscape:connector-curvature="0"
     id="path17183"
     style="fill:#156c2e;fill-opacity:1;fill-rule:nonzero;stroke:none;stroke-width:1.37538"
     d="m 573.08272,-252.67787 c 0,0 -3.58987,-14.86641 3.27732,-22.31621 6.86773,-7.45167 15.32907,-11.23125 15.32907,-11.23125 0,0 6.94918,16.32939 1.12722,23.21338 -5.82181,6.88704 -19.73361,10.33408 -19.73361,10.33408"
     inkscape:transform-center-x="8.2882291"
     inkscape:transform-center-y="15.442913" /><path
     inkscape:connector-curvature="0"
     id="path17185"
     style="fill:#156c2e;fill-opacity:1;fill-rule:nonzero;stroke:none;stroke-width:1.37538"
     d="m 543.06304,-271.83402 c 0,0 0.78796,-15.27339 9.49084,-20.46163 8.70392,-5.18987 17.8909,-6.40602 17.8909,-6.40602 0,0 2.01631,17.63163 -5.52356,22.57481 -7.54058,4.94614 -21.85818,4.29284 -21.85818,4.29284"
     inkscape:transform-center-x="13.421789"
     inkscape:transform-center-y="12.103432" /><path
     inkscape:connector-curvature="0"
     id="path17187"
     style="fill:#156c2e;fill-opacity:1;fill-rule:nonzero;stroke:none;stroke-width:1.37538"
     d="m 519.00343,-304.98384 c 0,0 7.56765,-13.29015 17.67379,-14.01397 10.1078,-0.72482 18.86137,2.31731 18.86137,2.31731 0,0 -6.12227,16.65706 -15.07933,17.68461 -8.95901,1.02988 -21.45583,-5.98795 -21.45583,-5.98795"
     inkscape:transform-center-x="17.532288"
     inkscape:transform-center-y="6.5441182" /><path
     inkscape:connector-curvature="0"
     id="path17189"
     style="fill:#156c2e;fill-opacity:1;fill-rule:nonzero;stroke:none;stroke-width:1.37538"
     d="m 509.37056,-329.19656 c 0,0 7.56765,-13.29015 17.67379,-14.01397 10.1078,-0.72482 18.86137,2.31731 18.86137,2.31731 0,0 -6.12227,16.65706 -15.07933,17.68461 -8.95901,1.02988 -21.45583,-5.98795 -21.45583,-5.98795"
     inkscape:transform-center-x="17.532288"
     inkscape:transform-center-y="6.5441182" /><path
     inkscape:connector-curvature="0"
     id="path17191"
     style="fill:#156c2e;fill-opacity:1;fill-rule:nonzero;stroke:none;stroke-width:1.37538"
     d="m 507.31019,-361.74217 c 0,0 10.96121,-10.66534 20.87075,-8.55372 9.91142,2.11112 17.47562,7.46485 17.47562,7.46485 0,0 -10.50785,14.30122 -19.39788,12.80053 -8.89256,-1.49899 -18.94849,-11.71166 -18.94849,-11.71166"
     inkscape:transform-center-x="18.151493"
     inkscape:transform-center-y="1.6982265" /><path
     inkscape:connector-curvature="0"
     id="path17193"
     style="fill:#156c2e;fill-opacity:1;fill-rule:nonzero;stroke:none;stroke-width:1.37538"
     d="m 512.45221,-396.10123 c 0,0 13.99251,-6.17311 22.5435,-0.73819 8.55293,5.43512 13.77517,13.09069 13.77517,13.09069 0,0 -14.8356,9.73884 -22.64414,5.23203 -7.81152,-4.50609 -13.67453,-17.58453 -13.67453,-17.58453"
     inkscape:transform-center-x="16.892653"
     inkscape:transform-center-y="-4.9274021" /><path
     inkscape:connector-curvature="0"
     id="path17195"
     style="fill:#156c2e;fill-opacity:1;fill-rule:nonzero;stroke:none;stroke-width:1.37538"
     d="m 518.10241,-417.12803 c 0,0 12.57046,-8.71098 21.99588,-4.99356 9.42736,3.71726 16.00474,10.24547 16.00474,10.24547 0,0 -12.72311,12.37184 -21.24377,9.42515 -8.52345,-2.94542 -16.75685,-14.67706 -16.75685,-14.67706"
     inkscape:transform-center-x="17.846388"
     inkscape:transform-center-y="-1.3505979" /><path
     inkscape:connector-curvature="0"
     id="path17197"
     style="fill:#156c2e;fill-opacity:1;fill-rule:nonzero;stroke:none;stroke-width:1.37538"
     d="m 519.72031,-436.89969 c 0,0 9.57966,-11.92174 19.67267,-11.0336 10.09483,0.88744 18.25513,5.27936 18.25513,5.27936 0,0 -8.68655,15.47526 -17.6932,15.06923 -9.00897,-0.40402 -20.2346,-9.31499 -20.2346,-9.31499"
     inkscape:transform-center-x="18.057858"
     inkscape:transform-center-y="3.8709004" /><path
     inkscape:connector-curvature="0"
     id="path17199"
     style="fill:#156c2e;fill-opacity:1;fill-rule:nonzero;stroke:none;stroke-width:1.37538"
     d="m 511.52238,-455.05052 c 0,0 6.46966,-13.85789 16.48432,-15.3955 10.01627,-1.53871 18.98691,0.78657 18.98691,0.78657 0,0 -4.7571,17.09707 -13.60191,18.8446 -8.84659,1.75003 -21.86932,-4.23567 -21.86932,-4.23567"
     inkscape:transform-center-x="17.094413"
     inkscape:transform-center-y="7.7351832" /><path
     inkscape:connector-curvature="0"
     id="path17201"
     style="fill:#156c2e;fill-opacity:1;fill-rule:nonzero;stroke:none;stroke-width:1.37538"
     d="m 492.29492,-464.19381 c 0,0 1.07338,-15.256 9.87172,-20.28062 8.79945,-5.02622 18.00755,-6.07039 18.00755,-6.07039 0,0 1.68631,17.66625 -5.94466,22.46758 -7.63174,4.8043 -21.93461,3.88343 -21.93461,3.88343"
     inkscape:transform-center-x="13.688654"
     inkscape:transform-center-y="11.869187" /><path
     inkscape:connector-curvature="0"
     id="path17203"
     style="fill:#156c2e;fill-opacity:1;fill-rule:nonzero;stroke:none;stroke-width:1.37538"
     d="m 645.30796,-352.67029 c 0,0 13.24831,-7.64068 22.33371,-3.15587 9.08735,4.48479 15.10183,11.535 15.10183,11.535 0,0 -13.70344,11.27632 -21.95097,7.63452 -8.25042,-3.64079 -15.48457,-16.01365 -15.48457,-16.01365"
     inkscape:transform-center-x="17.509398"
     inkscape:transform-center-y="-2.9013658" /><path
     inkscape:connector-curvature="0"
     id="path17205"
     style="fill:#156c2e;fill-opacity:1;fill-rule:nonzero;stroke:none;stroke-width:1.37538"
     d="m 638.18193,-333.86637 c 0,0 14.67595,-4.3028 22.44831,2.19707 7.77427,6.50031 11.95757,14.7695 11.95757,14.7695 0,0 -15.97517,7.72874 -23.13197,2.24561 -7.15984,-5.48283 -11.27391,-19.21218 -11.27391,-19.21218"
     inkscape:transform-center-x="15.885358"
     inkscape:transform-center-y="-7.3818001" /><path
     inkscape:connector-curvature="0"
     id="path17207"
     style="fill:#156c2e;fill-opacity:1;fill-rule:nonzero;stroke:none;stroke-width:1.37538"
     d="m 625.8381,-326.57365 c 0,0 14.68955,4.25616 17.75249,13.91413 3.06432,9.65936 2.14963,18.88122 2.14963,18.88122 0,0 -17.62601,-2.06476 -20.71607,-10.53448 -3.09279,-8.47109 0.81395,-22.26087 0.81395,-22.26087"
     inkscape:transform-center-x="9.6141414"
     inkscape:transform-center-y="-15.947731" /><path
     inkscape:connector-curvature="0"
     id="path17209"
     style="fill:#156c2e;fill-opacity:1;fill-rule:nonzero;stroke:none;stroke-width:1.37538"
     d="m 610.11145,-325.13966 c 0,0 11.41099,10.18269 10.00264,20.21636 -1.4077,10.03552 -6.21529,17.95805 -6.21529,17.95805 0,0 -15.00588,-9.47433 -14.13516,-18.44799 0.86886,-8.97606 10.34781,-19.72642 10.34781,-19.72642"
     inkscape:transform-center-x="2.9617781"
     inkscape:transform-center-y="-18.130501" /><path
     inkscape:connector-curvature="0"
     id="path17211"
     style="fill:#156c2e;fill-opacity:1;fill-rule:nonzero;stroke:none;stroke-width:1.37538"
     d="m 597.85822,-331.33829 c 0,0 4.74858,14.53784 -1.51113,22.5049 -6.26008,7.96899 -14.39777,12.40264 -14.39777,12.40264 0,0 -8.21257,-15.73191 -2.95035,-23.05269 5.26182,-7.32378 18.85925,-11.85485 18.85925,-11.85485"
     inkscape:transform-center-x="-6.8075847"
     inkscape:transform-center-y="-16.146136" /><path
     inkscape:connector-curvature="0"
     id="path17213"
     style="fill:#156c2e;fill-opacity:1;fill-rule:nonzero;stroke:none;stroke-width:1.37538"
     d="m 590.2128,-342.09712 c 0,0 -2.96779,15.003 -12.32416,18.89097 -9.35764,3.88948 -18.62406,3.77699 -18.62406,3.77699 0,0 0.53028,-17.7386 8.70052,-21.55068 8.17136,-3.81489 22.2477,-1.11728 22.2477,-1.11728"
     inkscape:transform-center-x="-15.136352"
     inkscape:transform-center-y="-10.486895" /><path
     inkscape:connector-curvature="0"
     id="path17215"
     style="fill:#156c2e;fill-opacity:1;fill-rule:nonzero;stroke:none;stroke-width:1.37538"
     d="m 587.87537,-355.52768 c 0,0 -9.14952,12.25496 -19.26775,11.72636 -10.12002,-0.52779 -18.43136,-4.62667 -18.43136,-4.62667 0,0 8.13058,-15.77444 17.14598,-15.68905 9.01762,0.0833 20.55313,8.58936 20.55313,8.58936"
     inkscape:transform-center-x="-17.979827"
     inkscape:transform-center-y="-4.4871277" /><path
     inkscape:connector-curvature="0"
     id="path17217"
     style="fill:#156c2e;fill-opacity:1;fill-rule:nonzero;stroke:none;stroke-width:1.37538"
     d="m 590.57543,-372.79629 c 0,0 -12.66175,8.57776 -22.04738,4.76096 -9.38759,-3.81661 -15.89564,-10.41392 -15.89564,-10.41392 0,0 12.85305,-12.23677 21.34212,-9.20027 8.49186,3.03526 16.6009,14.85323 16.6009,14.85323"
     inkscape:transform-center-x="-17.810212"
     inkscape:transform-center-y="1.5475829" /><path
     inkscape:connector-curvature="0"
     id="path17219"
     style="fill:#156c2e;fill-opacity:1;fill-rule:nonzero;stroke:none;stroke-width:1.37538"
     d="m 596.29007,-398.20916 c 0,0 -12.39341,8.96109 -21.8914,5.43322 -9.49996,-3.52764 -16.20681,-9.92276 -16.20681,-9.92276 0,0 12.47269,-12.62425 21.05068,-9.84888 8.58074,2.77406 17.04753,14.33842 17.04753,14.33842"
     inkscape:transform-center-x="-17.909557"
     inkscape:transform-center-y="0.97762543" /><path
     inkscape:connector-curvature="0"
     id="path17221"
     style="fill:#156c2e;fill-opacity:1;fill-rule:nonzero;stroke:none;stroke-width:1.37538"
     d="m 600.69104,-425.93409 c 0,0 -11.04152,10.58217 -20.9348,8.39567 -9.89519,-2.18601 -17.4187,-7.59676 -17.4187,-7.59676 0,0 10.61568,-14.22136 19.4941,-12.65351 8.88097,1.56616 18.8594,11.8546 18.8594,11.8546"
     inkscape:transform-center-x="-18.148392"
     inkscape:transform-center-y="-1.561303" /><path
     inkscape:connector-curvature="0"
     id="path17223"
     style="fill:#156c2e;fill-opacity:1;fill-rule:nonzero;stroke:none;stroke-width:1.37538"
     d="m 599.24348,-453.62411 c 0,0 -8.73241,12.55558 -18.86268,12.36739 -10.13205,-0.18732 -18.57649,-4.0045 -18.57649,-4.0045 0,0 7.59577,-16.03883 16.60893,-16.25653 9.01533,-0.21986 20.83024,7.89364 20.83024,7.89364"
     inkscape:transform-center-x="-17.885157"
     inkscape:transform-center-y="-5.0625879" /><path
     inkscape:connector-curvature="0"
     id="path17225"
     style="fill:#156c2e;fill-opacity:1;fill-rule:nonzero;stroke:none;stroke-width:1.37538"
     d="m 586.65763,-487.76231 c 0,0 -2.9872,14.99914 -12.34859,18.87499 -9.36267,3.87737 -18.62895,3.75291 -18.62895,3.75291 0,0 0.55326,-17.73792 8.72841,-21.53941 8.17628,-3.80435 22.24913,-1.08849 22.24913,-1.08849"
     inkscape:transform-center-x="-15.149302"
     inkscape:transform-center-y="-10.474043" /><path
     inkscape:connector-curvature="0"
     id="path17227"
     style="fill:#156c2e;fill-opacity:1;fill-rule:nonzero;stroke:none;stroke-width:1.37538"
     d="m 565.13723,-513.43546 c 0,0 1.71451,15.19731 -6.02532,21.73588 -7.74058,6.54042 -16.60603,9.23914 -16.60603,9.23914 0,0 -4.86592,-17.06643 1.76643,-23.1735 6.63256,-6.11014 20.86492,-7.80152 20.86492,-7.80152"
     inkscape:transform-center-x="-10.610701"
     inkscape:transform-center-y="-14.136946" /><path
     inkscape:connector-curvature="0"
     id="path17229"
     style="fill:#156c2e;fill-opacity:1;fill-rule:nonzero;stroke:none;stroke-width:1.37538"
     d="m 534.93857,-528.93114 c 0,0 6.11422,14.01835 0.64333,22.54638 -5.47105,8.53002 -13.14851,13.72 -13.14851,13.72 0,0 -9.67633,-14.87645 -5.13673,-22.66595 4.5389,-7.7925 17.64191,-13.60043 17.64191,-13.60043"
     inkscape:transform-center-x="-5.0067083"
     inkscape:transform-center-y="-16.864526" /></g></svg>
