<?xml version="1.0" encoding="UTF-8" standalone="no"?>
<svg
   xml:space="preserve"
   viewBox="0 0 1200 629.99999"
   version="1.1"
   id="svg872"
   sodipodi:docname="rama-preview.svg"
   inkscape:version="1.2.2 (b0a8486541, 2022-12-01)"
   width="1200"
   height="630"
   xmlns:inkscape="http://www.inkscape.org/namespaces/inkscape"
   xmlns:sodipodi="http://sodipodi.sourceforge.net/DTD/sodipodi-0.dtd"
   xmlns="http://www.w3.org/2000/svg"
   xmlns:svg="http://www.w3.org/2000/svg"><defs
   id="defs876"><inkscape:path-effect
     effect="spiro"
     id="path-effect9928"
     is_visible="true"
     lpeversion="1" /><rect
     x="83.660011"
     y="-241.48238"
     width="232.03929"
     height="88.504593"
     id="rect1672" /><clipPath
     clipPathUnits="userSpaceOnUse"
     id="clipPath6722"><g
       id="g6726"
       transform="matrix(0.51896913,0,0,-0.51896913,-245.47177,-189.3847)"><path
         d="M -70.096322,-1376.0056 H 1109.1646 V 150.09678 H -70.096322 Z"
         id="path6724"
         inkscape:connector-curvature="0"
         style="stroke-width:1.9269" /></g></clipPath><clipPath
     clipPathUnits="userSpaceOnUse"
     id="clipPath6728"><g
       id="g6732"
       transform="matrix(0.51896913,0,0,-0.51896913,-282.84877,-122.45111)"><path
         d="M -70.096322,-1376.0056 H 1109.1646 V 150.09678 H -70.096322 Z"
         id="path6730"
         inkscape:connector-curvature="0"
         style="stroke-width:1.9269" /></g></clipPath><clipPath
     clipPathUnits="userSpaceOnUse"
     id="clipPath6734"><g
       id="g6738"
       transform="matrix(0.51896913,0,0,-0.51896913,-270.28327,-89.055605)"><path
         d="M -70.096322,-1376.0056 H 1109.1646 V 150.09678 H -70.096322 Z"
         id="path6736"
         inkscape:connector-curvature="0"
         style="stroke-width:1.9269" /></g></clipPath><clipPath
     clipPathUnits="userSpaceOnUse"
     id="clipPath6740"><g
       id="g6744"
       transform="matrix(0.51896913,0,0,-0.51896913,-267.67297,-54.554605)"><path
         d="M -70.096322,-1376.0056 H 1109.1646 V 150.09678 H -70.096322 Z"
         id="path6742"
         inkscape:connector-curvature="0"
         style="stroke-width:1.9269" /></g></clipPath><clipPath
     clipPathUnits="userSpaceOnUse"
     id="clipPath6746"><g
       id="g6750"
       transform="matrix(0.51896913,0,0,-0.51896913,-274.23647,-158.9306)"><path
         d="M -70.096322,-1376.0056 H 1109.1646 V 150.09678 H -70.096322 Z"
         id="path6748"
         inkscape:connector-curvature="0"
         style="stroke-width:1.9269" /></g></clipPath><clipPath
     clipPathUnits="userSpaceOnUse"
     id="clipPath6752"><g
       id="g6756"
       transform="matrix(0.51896913,0,0,-0.51896913,-246.30377,-111.8739)"><path
         d="M -70.096322,-1376.0056 H 1109.1646 V 150.09678 H -70.096322 Z"
         id="path6754"
         inkscape:connector-curvature="0"
         style="stroke-width:1.9269" /></g></clipPath><clipPath
     clipPathUnits="userSpaceOnUse"
     id="clipPath6758"><g
       id="g6762"
       transform="matrix(0.51896913,0,0,-0.51896913,-254.69058,-87.969605)"><path
         d="M -70.096322,-1376.0056 H 1109.1646 V 150.09678 H -70.096322 Z"
         id="path6760"
         inkscape:connector-curvature="0"
         style="stroke-width:1.9269" /></g></clipPath><clipPath
     clipPathUnits="userSpaceOnUse"
     id="clipPath6764"><g
       id="g6768"
       transform="matrix(0.51896913,0,0,-0.51896913,-255.92097,-63.345605)"><path
         d="M -70.096322,-1376.0056 H 1109.1646 V 150.09678 H -70.096322 Z"
         id="path6766"
         inkscape:connector-curvature="0"
         style="stroke-width:1.9269" /></g></clipPath><clipPath
     clipPathUnits="userSpaceOnUse"
     id="clipPath6770"><g
       id="g6774"
       transform="matrix(0.51896913,0,0,-0.51896913,-312.62218,-96.419803)"><path
         d="M -70.096322,-1376.0056 H 1109.1646 V 150.09678 H -70.096322 Z"
         id="path6772"
         inkscape:connector-curvature="0"
         style="stroke-width:1.9269" /></g></clipPath><clipPath
     clipPathUnits="userSpaceOnUse"
     id="clipPath6776"><g
       id="g6780"
       transform="matrix(0.51896913,0,0,-0.51896913,-210.98347,-107.30261)"><path
         d="M -70.096322,-1376.0056 H 1109.1646 V 150.09678 H -70.096322 Z"
         id="path6778"
         inkscape:connector-curvature="0"
         style="stroke-width:1.9269" /></g></clipPath></defs><sodipodi:namedview
   id="namedview874"
   pagecolor="#ffffff"
   bordercolor="#000000"
   borderopacity="0.25"
   inkscape:showpageshadow="2"
   inkscape:pageopacity="0.0"
   inkscape:pagecheckerboard="0"
   inkscape:deskcolor="#d1d1d1"
   showgrid="false"
   inkscape:zoom="0.50056752"
   inkscape:cx="810.08053"
   inkscape:cy="395.55104"
   inkscape:window-width="1680"
   inkscape:window-height="994"
   inkscape:window-x="0"
   inkscape:window-y="0"
   inkscape:window-maximized="1"
   inkscape:current-layer="svg872" />
  <metadata
   id="metadata654">
    Created by Miguel Rivas — Learn more at jmiguelrivas.github.io
  </metadata>
  <rect
   class="jmiguelrivas-github-io"
   width="1200"
   height="630"
   x="0"
   y="0"
   fill="#6495cf"
   id="rect656"
   style="fill:#86e1a9;fill-opacity:1;stroke-width:2.86737" />
  
  
  
  
  
  
  
  
  
  
  
  
  
  
  
  
  
  
  
  
  
  
  
  
  
  
  
  
  
  
  
  
  
  
  
  
  
  
  
  
  
  
  
  
  
  
  
  
  
  
  
  
  
  
  
  
  
  
  
  
  
  
  
  
  
  
  
  
  
  
  
  
  
  
  
  
  
  
  
  
  
  
  
  
  
  
  
  
  
  
  
  
  
<text
   xml:space="preserve"
   id="text1670"
   style="font-weight:bold;font-size:72px;font-family:Quicksand;-inkscape-font-specification:'Quicksand Bold';text-align:center;white-space:pre;shape-inside:url(#rect1672);display:inline;fill:#29542b;fill-opacity:1;stroke-width:0.597;stroke-linecap:round;stroke-linejoin:round"
   transform="matrix(2.582841,0,0,2.582841,84.259153,816.439)"><tspan
     x="106.07961"
     y="-174.88242"
     id="tspan10094">rama</tspan></text><g
   id="g108"
   transform="matrix(1.9268969,0,0,-1.9268969,844.88038,1134.0003)"
   clip-path="url(#clipPath6764)"><path
     d="m 0,0 c 0,0 -1.308,12.045 -1.342,13.77 -0.033,1.723 0.938,7.915 1.516,8.822 0.58,0.907 2.422,1.574 3.049,3.443 0.627,1.87 4.92,13.033 5.482,14.803 0.564,1.768 0.672,6.382 1.162,8.481 0.488,2.099 2.418,8.67 2.715,10.468 0.297,1.797 0.501,8.335 1.08,9.241 0.579,0.908 2.441,0.711 4.067,2.369 1.626,1.657 3.801,7.503 4.465,9.208 0.663,1.705 1.157,5.363 0.168,6.705 -0.988,1.339 -5.471,6.758 -6.415,7.503 -0.943,0.745 -2.749,1.473 -3.526,2.252 -0.778,0.782 -4.602,6.347 -5.775,6.955 -1.172,0.607 -5.589,2.578 -6.726,3.02 -1.135,0.441 -3.15,1.73 -3.489,2.088 -0.339,0.358 -3.066,4.086 -3.843,4.867 -0.778,0.781 -2.236,0.72 -2.418,1.545 -0.182,0.826 -1.666,2.058 -1.453,3.057 0.213,1 -0.078,2.32 -0.471,3.707 -0.391,1.384 -0.785,6.318 -1.039,7.475 -0.256,1.156 -1.798,5.405 -2.419,6.654 -0.622,1.248 -1.106,2.267 -1.626,3.451 -0.519,1.183 -1.683,2.92 -1.123,3.129 0.561,0.21 4.906,-4.98 4.851,-5.512 -0.056,-0.531 -0.14,-1.33 0.637,-2.109 0.78,-0.782 -0.147,-0.9 0.188,-2.817 0.336,-1.918 1.764,-8.789 2.191,-10.34 0.429,-1.55 0.369,-3.641 1.084,-4.522 0.713,-0.882 3.781,-3.409 4.128,-4.198 0.347,-0.789 3.806,-4.703 4.568,-4.622 0.761,0.081 2.365,-0.518 2.969,-0.905 0.605,-0.385 6.468,-3.423 6.468,-3.423 0,0 3.522,-5.371 4.63,-6.08 1.108,-0.709 4.627,-2.53 5.212,-3.613 0.585,-1.084 5.71,-7.055 6.081,-9.137 0.372,-2.082 -2.525,-11.724 -3.692,-13.107 -1.167,-1.383 -3.74,-3.854 -4.218,-4.824 -0.479,-0.973 -2.602,-12.954 -3.348,-15.457 -0.747,-2.502 -0.349,-4.319 -0.349,-4.319 0,0 2.548,-1.343 2.106,-2.479 C 15.103,44.413 12.682,44.398 12.533,43.5 12.385,42.601 10.311,36.69 9.775,35.188 9.241,33.684 6.07,24.501 4.975,22.788 3.881,21.075 2.899,15.742 3.043,13.522 3.186,11.303 3.347,5.24 3.347,5.24 Z"
     style="fill:#58311c;fill-opacity:1;fill-rule:nonzero;stroke:none"
     id="path110"
     inkscape:connector-curvature="0" /></g><g
   id="g112"
   transform="matrix(3.8588409,0,0,-3.8588409,597.05466,1095.7576)"
   clip-path="url(#clipPath6758)"><path
     d="M 0,0 C -1.252,1.547 -3.576,9.948 -4.078,11.828 -4.578,13.71 -8,22.566 -8.32,23.621 c -0.319,1.055 0.724,0.246 0.655,2.136 -0.07,1.889 -0.198,6.796 0.034,8.491 0.233,1.696 0.678,4.393 0.809,6.152 0.132,1.761 -0.103,3.614 -0.365,5.202 -0.264,1.586 -0.625,4.796 -1.11,5.816 -0.484,1.019 -2.379,2.939 -2.762,3.893 -0.382,0.955 -2.017,4.836 -2.441,6.171 -0.424,1.336 -3.599,5.918 -3.696,7.541 -0.098,1.623 -1.125,6.679 -1.867,7.294 -0.742,0.617 -1.814,1.16 -1.814,1.16 0,0 -3.664,-2.625 -4.24,-1.973 -0.576,0.652 3.957,2.862 3.957,2.862 0,0 -0.42,1.12 -0.822,1.378 -0.404,0.257 -1.988,1.553 -1.794,1.856 0.193,0.302 2.575,-1.079 3.022,-1.932 0.448,-0.854 3.902,-2.776 3.928,-4.069 0.024,-1.294 0.821,-6.487 1.169,-7.275 0.346,-0.79 1.654,-3.185 2.981,-4.885 1.326,-1.699 3.26,-7.334 3.377,-8.259 0.118,-0.927 2.161,-1.949 2.408,-2.674 0.246,-0.725 1.699,-8.889 1.796,-10.513 C -4.996,40.369 -5.859,35.245 -6.1,33.979 -6.34,32.715 -6.255,24.855 -5.661,23.34 -5.068,21.826 -2.765,12.551 -1.796,10.513 -0.828,8.475 3.256,-0.235 3.969,-1.116 4.683,-1.999 2.231,-3.837 2.231,-3.837 2.231,-3.837 1.428,-1.764 0,0"
     style="fill:#58311c;fill-opacity:1;fill-rule:nonzero;stroke:none"
     id="path114"
     inkscape:connector-curvature="0" /></g><g
   id="g124"
   transform="matrix(1.9268969,0,0,-1.9268969,196.17937,1189.7571)"
   clip-path="url(#clipPath6740)"><path
     d="M 0,0 C 0,0 2.267,16.85 2.377,19.268 2.487,21.687 1.35,30.41 0.57,31.704 c -0.78,1.295 -3.343,2.298 -4.155,4.945 -0.811,2.649 -6.426,18.475 -7.15,20.979 -0.724,2.504 -0.706,8.982 -1.317,11.947 -0.61,2.964 -3.075,12.261 -3.425,14.794 -0.349,2.533 -0.394,11.719 -1.174,13.013 -0.781,1.295 -3.4,1.088 -5.621,3.474 -2.222,2.385 -5.058,10.674 -5.927,13.09 -0.867,2.418 -1.424,7.571 0.012,9.416 1.437,1.846 7.931,9.286 9.283,10.296 1.351,1.011 3.912,1.966 5.033,3.032 1.121,1.069 6.693,8.738 8.361,9.547 1.669,0.809 7.942,3.411 9.553,3.991 1.611,0.578 4.487,2.311 4.977,2.801 0.489,0.491 4.452,5.623 5.574,6.691 1.121,1.067 3.165,0.927 3.451,2.078 0.286,1.153 2.414,2.827 2.151,4.237 -0.26,1.411 0.198,3.254 0.798,5.185 0.601,1.93 1.337,8.842 1.737,10.455 0.401,1.613 2.723,7.52 3.641,9.25 0.918,1.729 1.636,3.14 2.41,4.784 0.775,1.643 2.469,4.036 1.692,4.351 -0.779,0.315 -7.072,-6.808 -7.014,-7.557 0.06,-0.748 0.148,-1.871 -0.973,-2.939 -1.121,-1.067 0.176,-1.266 -0.367,-3.946 -0.542,-2.678 -2.801,-12.27 -3.458,-14.431 -0.659,-2.162 -0.653,-5.098 -1.687,-6.309 -1.035,-1.211 -5.435,-4.646 -5.951,-5.74 -0.516,-1.096 -5.517,-6.46 -6.583,-6.319 -1.065,0.143 -3.337,-0.638 -4.201,-1.159 -0.863,-0.52 -9.207,-4.565 -9.207,-4.565 0,0 -5.14,-7.41 -6.722,-8.363 -1.582,-0.953 -6.587,-3.381 -7.45,-4.879 -0.86,-1.499 -8.275,-9.69 -8.875,-12.6 -0.598,-2.909 3.112,-16.551 4.7,-18.534 1.586,-1.984 5.105,-5.548 5.742,-6.929 0.636,-1.381 3.172,-18.279 4.127,-21.819 0.957,-3.54 0.328,-6.075 0.328,-6.075 0,0 -3.625,-1.792 -3.045,-3.403 0.578,-1.611 3.975,-1.721 4.151,-2.988 0.175,-1.266 2.868,-9.64 3.563,-11.77 0.694,-2.13 4.806,-15.137 6.279,-17.582 1.473,-2.445 2.667,-9.958 2.385,-13.068 C -4.067,15.975 -4.505,7.478 -4.505,7.478 Z"
     style="fill:#753c1c;fill-opacity:1;fill-rule:nonzero;stroke:none"
     id="path126"
     inkscape:connector-curvature="0" /></g><g
   id="g128"
   transform="matrix(2.4969756,0,0,-2.4969756,355.67146,1138.0029)"
   clip-path="url(#clipPath6734)"><path
     d="m 0,0 c 1.813,2.125 5.387,13.831 6.16,16.453 0.774,2.621 5.904,14.926 6.392,16.395 0.487,1.469 -1.009,0.373 -0.841,3.021 0.168,2.651 0.53,9.532 0.268,11.922 -0.264,2.389 -0.79,6.189 -0.909,8.666 -0.12,2.476 0.28,5.067 0.706,7.285 0.429,2.219 1.054,6.712 1.772,8.123 0.717,1.413 3.448,4.037 4.02,5.364 0.575,1.326 3.012,6.714 3.657,8.573 0.644,1.858 5.269,8.173 5.466,10.448 0.198,2.274 1.827,9.332 2.891,10.168 1.063,0.838 2.588,1.56 2.588,1.56 0,0 5.046,-3.82 5.879,-2.926 0.834,0.893 -5.449,4.165 -5.449,4.165 0,0 0.63,1.556 1.205,1.902 0.576,0.348 2.847,2.108 2.588,2.539 -0.26,0.432 -3.655,-1.417 -4.315,-2.599 -0.66,-1.182 -5.579,-3.752 -5.662,-5.568 -0.084,-1.813 -1.395,-9.073 -1.912,-10.167 -0.516,-1.095 -2.439,-4.41 -4.363,-6.746 C 18.215,86.242 15.293,78.404 15.093,77.109 14.894,75.813 11.988,74.455 11.615,73.445 11.243,72.438 8.902,61.031 8.704,58.756 8.508,56.48 9.528,49.255 9.818,47.471 10.109,45.686 9.697,34.656 8.809,32.553 7.92,30.449 4.344,17.515 2.91,14.69 1.475,11.865 -4.579,-0.21 -5.613,-1.421 c -1.034,-1.211 2.339,-3.883 2.339,-3.883 0,0 1.205,2.882 3.274,5.304"
     style="fill:#753c1c;fill-opacity:1;fill-rule:nonzero;stroke:none"
     id="path130"
     inkscape:connector-curvature="0" /></g><g
   id="g132"
   transform="matrix(1.9268969,0,0,-1.9268969,604.31778,1080.4086)"
   clip-path="url(#clipPath6728)"><path
     d="m 0,0 -0.683,-0.412 c 0,0 1.167,1.157 1.83,2.528 0.665,1.371 1.59,6.281 2.121,7.119 0.531,0.838 1.235,1.496 1.082,1.858 -0.153,0.359 -0.368,0.931 -0.509,0.845 -0.143,-0.085 -0.643,-0.652 -0.643,-0.652 0,0 -0.251,1.4 -0.222,2.258 0.027,0.858 0.252,3.711 0.468,4.424 0.217,0.715 3.762,2.136 4.674,2.556 0.912,0.42 2.862,0.3 4.402,1.291 1.538,0.993 2.612,1.897 3.571,2.024 0.961,0.124 2.015,0.631 2.252,0.773 0.238,0.143 0.961,0.125 0.885,0.467 -0.078,0.342 -0.146,1.208 -0.631,1.045 -0.484,-0.162 -3.059,-1.261 -2.809,-0.495 0.251,0.767 -0.086,3.153 0.065,4.085 0.15,0.932 0.176,1.855 0.613,2.312 0.437,0.457 2.921,2.03 3.585,2.43 0.665,0.401 2.172,1.232 1.856,1.754 -0.314,0.522 -0.951,0.074 -1.084,0.512 -0.135,0.437 0.678,3.062 -0.148,3.147 -0.828,0.084 -0.76,-0.781 -0.807,-1.134 -0.047,-0.351 0.157,-2.624 -0.175,-2.824 -0.333,-0.201 -3.665,-3.049 -3.79,-2.412 -0.125,0.637 -1.007,4.896 -0.534,5.828 0.474,0.933 2.515,3.133 2.903,3.562 0.39,0.428 1.69,1.6 1.538,1.962 -0.153,0.361 -0.543,1.224 -0.981,1.091 -0.437,-0.134 -3.797,-4.228 -3.807,-3.782 -0.01,0.446 -0.099,1.883 -0.754,1.682 -0.656,-0.2 -0.873,-0.914 -0.873,-1.238 0.001,-0.324 0.215,-3.366 -0.222,-3.176 -0.438,0.188 -1.246,-0.297 -1.093,-0.658 0.153,-0.361 1.284,-0.521 1.362,-1.187 0.077,-0.665 0.544,-6.598 0.557,-8.015 0.012,-1.417 0.035,-4.251 -0.572,-4.746 C 12.819,24.327 9.569,22.11 9.378,22.578 9.188,23.046 8.247,22.997 7.915,22.796 7.582,22.596 6.452,22.302 6.152,22.058 5.854,21.812 4.052,19.886 3.889,20.306 3.726,20.726 1.835,19.457 1.313,18.819 0.792,18.181 1.098,16.812 1.157,16.07 1.216,15.329 1.448,12.686 1.563,11.849 1.679,11.013 1.39,7.731 1.144,7.065 0.897,6.399 -1.122,3.843 -1.341,3.453 -1.56,3.063 -2.681,-1.399 0,0"
     style="fill:#753c1c;fill-opacity:1;fill-rule:nonzero;stroke:none"
     id="path134"
     inkscape:connector-curvature="0" /></g><g
   id="g6907"
   transform="matrix(1.3500685,-2.6643037,-2.6643037,-1.3500685,569.03284,1039.5829)"
   clip-path="url(#clipPath6752)"><path
     d="m 0,0 0.479,-0.305 c 0,0 -0.777,0.899 -1.223,1.887 -0.446,0.988 -0.996,4.527 -1.36,5.135 -0.361,0.606 -0.841,1.101 -0.726,1.355 0.115,0.254 0.283,0.663 0.383,0.599 0.1,-0.064 0.449,-0.472 0.449,-0.472 0,0 0.204,0.992 0.199,1.604 -0.003,0.612 -0.107,2.647 -0.248,3.16 -0.142,0.512 -2.639,1.592 -3.281,1.907 -0.641,0.317 -2.031,0.268 -3.109,1.002 -1.077,0.735 -1.823,1.399 -2.504,1.508 -0.682,0.106 -1.422,0.486 -1.589,0.593 -0.167,0.106 -0.681,0.107 -0.62,0.349 0.06,0.242 0.125,0.857 0.468,0.733 0.341,-0.125 2.153,-0.955 1.99,-0.406 -0.163,0.55 0.121,2.243 0.031,2.91 -0.089,0.666 -0.091,1.324 -0.394,1.657 -0.302,0.334 -2.041,1.501 -2.506,1.798 -0.466,0.297 -1.523,0.918 -1.289,1.283 0.234,0.365 0.678,0.035 0.782,0.344 0.103,0.308 -0.426,2.193 0.164,2.238 0.591,0.044 0.527,-0.57 0.552,-0.822 0.029,-0.252 -0.16,-1.866 0.074,-2.014 0.233,-0.148 2.551,-2.24 2.652,-1.789 0.102,0.451 0.81,3.467 0.489,4.14 -0.319,0.671 -1.73,2.276 -2,2.588 -0.267,0.314 -1.172,1.172 -1.056,1.427 0.115,0.254 0.41,0.862 0.718,0.759 0.309,-0.104 2.623,-3.082 2.639,-2.764 0.016,0.317 0.106,1.338 0.569,1.183 0.462,-0.155 0.605,-0.667 0.597,-0.898 -0.006,-0.23 -0.216,-2.392 0.1,-2.265 0.314,0.127 0.881,-0.235 0.765,-0.489 -0.116,-0.254 -0.925,-0.347 -0.993,-0.819 -0.066,-0.472 -0.511,-4.687 -0.546,-5.696 -0.035,-1.009 -0.105,-3.025 0.319,-3.39 0.422,-0.364 2.695,-2.005 2.838,-1.674 0.144,0.33 0.815,0.277 1.047,0.128 0.234,-0.148 1.034,-0.379 1.242,-0.558 0.209,-0.18 1.454,-1.586 1.578,-1.29 0.125,0.296 1.446,-0.643 1.804,-1.107 0.362,-0.465 0.118,-1.433 0.062,-1.96 C -0.51,11.043 -0.725,9.165 -0.823,8.572 -0.922,7.979 -0.777,5.637 -0.615,5.158 -0.453,4.679 0.905,2.77 1.053,2.486 1.201,2.205 1.875,-1.058 0,0"
     style="fill:#58311c;fill-opacity:1;fill-rule:nonzero;stroke:none"
     id="path6905"
     inkscape:connector-curvature="0" /></g><g
   id="g6911"
   transform="matrix(0.16118831,-1.9201432,-1.9201432,-0.16118831,762.26915,1057.1695)"
   clip-path="url(#clipPath6728)"><path
     d="m 0,0 -0.683,-0.412 c 0,0 1.167,1.157 1.83,2.528 0.665,1.371 1.59,6.281 2.121,7.119 0.531,0.838 1.235,1.496 1.082,1.858 -0.153,0.359 -0.368,0.931 -0.509,0.845 -0.143,-0.085 -0.643,-0.652 -0.643,-0.652 0,0 -0.251,1.4 -0.222,2.258 0.027,0.858 0.252,3.711 0.468,4.424 0.217,0.715 3.762,2.136 4.674,2.556 0.912,0.42 2.862,0.3 4.402,1.291 1.538,0.993 2.612,1.897 3.571,2.024 0.961,0.124 2.015,0.631 2.252,0.773 0.238,0.143 0.961,0.125 0.885,0.467 -0.078,0.342 -0.146,1.208 -0.631,1.045 -0.484,-0.162 -3.059,-1.261 -2.809,-0.495 0.251,0.767 -0.086,3.153 0.065,4.085 0.15,0.932 0.176,1.855 0.613,2.312 0.437,0.457 2.921,2.03 3.585,2.43 0.665,0.401 2.172,1.232 1.856,1.754 -0.314,0.522 -0.951,0.074 -1.084,0.512 -0.135,0.437 0.678,3.062 -0.148,3.147 -0.828,0.084 -0.76,-0.781 -0.807,-1.134 -0.047,-0.351 0.157,-2.624 -0.175,-2.824 -0.333,-0.201 -3.665,-3.049 -3.79,-2.412 -0.125,0.637 -1.007,4.896 -0.534,5.828 0.474,0.933 2.515,3.133 2.903,3.562 0.39,0.428 1.69,1.6 1.538,1.962 -0.153,0.361 -0.543,1.224 -0.981,1.091 -0.437,-0.134 -3.797,-4.228 -3.807,-3.782 -0.01,0.446 -0.099,1.883 -0.754,1.682 -0.656,-0.2 -0.873,-0.914 -0.873,-1.238 0.001,-0.324 0.215,-3.366 -0.222,-3.176 -0.438,0.188 -1.246,-0.297 -1.093,-0.658 0.153,-0.361 1.284,-0.521 1.362,-1.187 0.077,-0.665 0.544,-6.598 0.557,-8.015 0.012,-1.417 0.035,-4.251 -0.572,-4.746 C 12.819,24.327 9.569,22.11 9.378,22.578 9.188,23.046 8.247,22.997 7.915,22.796 7.582,22.596 6.452,22.302 6.152,22.058 5.854,21.812 4.052,19.886 3.889,20.306 3.726,20.726 1.835,19.457 1.313,18.819 0.792,18.181 1.098,16.812 1.157,16.07 1.216,15.329 1.448,12.686 1.563,11.849 1.679,11.013 1.39,7.731 1.144,7.065 0.897,6.399 -1.122,3.843 -1.341,3.453 -1.56,3.063 -2.681,-1.399 0,0"
     style="fill:#753c1c;fill-opacity:1;fill-rule:nonzero;stroke:none"
     id="path6909"
     inkscape:connector-curvature="0" /></g><g
   id="g6950"
   transform="matrix(0.39447657,0.62901643,-0.62901643,0.39447657,33.359848,-243.72277)"><path
     inkscape:connector-curvature="0"
     id="path6934"
     style="fill:#156c2e;fill-opacity:1;fill-rule:nonzero;stroke:none;stroke-width:1.9269"
     d="m 970.61745,506.30033 c 0,0 -5.89823,20.59853 -19.41541,24.93212 -13.51911,4.33552 -26.44281,3.0946 -26.44281,3.0946 0,0 2.8152,-24.70282 14.66754,-29.06917 11.85427,-4.3702 31.19068,1.04245 31.19068,1.04245" /><g
     id="g6938"
     transform="matrix(9.7486511,0,0,-9.7486511,1014.6858,708.8476)"
     clip-path="url(#clipPath6752)"><path
       d="m 0,0 0.479,-0.305 c 0,0 -0.777,0.899 -1.223,1.887 -0.446,0.988 -0.996,4.527 -1.36,5.135 -0.361,0.606 -0.841,1.101 -0.726,1.355 0.115,0.254 0.283,0.663 0.383,0.599 0.1,-0.064 0.449,-0.472 0.449,-0.472 0,0 0.204,0.992 0.199,1.604 -0.003,0.612 -0.107,2.647 -0.248,3.16 -0.142,0.512 -2.639,1.592 -3.281,1.907 -0.641,0.317 -2.031,0.268 -3.109,1.002 -1.077,0.735 -1.823,1.399 -2.504,1.508 -0.682,0.106 -1.422,0.486 -1.589,0.593 -0.167,0.106 -0.681,0.107 -0.62,0.349 0.06,0.242 0.125,0.857 0.468,0.733 0.341,-0.125 2.153,-0.955 1.99,-0.406 -0.163,0.55 0.121,2.243 0.031,2.91 -0.089,0.666 -0.091,1.324 -0.394,1.657 -0.302,0.334 -2.041,1.501 -2.506,1.798 -0.466,0.297 -1.523,0.918 -1.289,1.283 0.234,0.365 0.678,0.035 0.782,0.344 0.103,0.308 -0.426,2.193 0.164,2.238 0.591,0.044 0.527,-0.57 0.552,-0.822 0.029,-0.252 -0.16,-1.866 0.074,-2.014 0.233,-0.148 2.551,-2.24 2.652,-1.789 0.102,0.451 0.81,3.467 0.489,4.14 -0.319,0.671 -1.73,2.276 -2,2.588 -0.267,0.314 -1.172,1.172 -1.056,1.427 0.115,0.254 0.41,0.862 0.718,0.759 0.309,-0.104 2.623,-3.082 2.639,-2.764 0.016,0.317 0.106,1.338 0.569,1.183 0.462,-0.155 0.605,-0.667 0.597,-0.898 -0.006,-0.23 -0.216,-2.392 0.1,-2.265 0.314,0.127 0.881,-0.235 0.765,-0.489 -0.116,-0.254 -0.925,-0.347 -0.993,-0.819 -0.066,-0.472 -0.511,-4.687 -0.546,-5.696 -0.035,-1.009 -0.105,-3.025 0.319,-3.39 0.422,-0.364 2.695,-2.005 2.838,-1.674 0.144,0.33 0.815,0.277 1.047,0.128 0.234,-0.148 1.034,-0.379 1.242,-0.558 0.209,-0.18 1.454,-1.586 1.578,-1.29 0.125,0.296 1.446,-0.643 1.804,-1.107 0.362,-0.465 0.118,-1.433 0.062,-1.96 C -0.51,11.043 -0.725,9.165 -0.823,8.572 -0.922,7.979 -0.777,5.637 -0.615,5.158 -0.453,4.679 0.905,2.77 1.053,2.486 1.201,2.205 1.875,-1.058 0,0"
       style="fill:#5f544e;fill-opacity:1;fill-rule:nonzero;stroke:none"
       id="path6936"
       inkscape:connector-curvature="0" /></g><path
     inkscape:connector-curvature="0"
     id="path6940"
     style="fill:#156c2e;fill-opacity:1;fill-rule:nonzero;stroke:none;stroke-width:1.9269"
     d="m 974.22624,397.58111 c 0,0 -5.89823,20.59853 -19.41541,24.93212 -13.51911,4.33552 -26.44281,3.0946 -26.44281,3.0946 0,0 2.8152,-24.70282 14.66754,-29.06917 11.85427,-4.3702 31.19068,1.04245 31.19068,1.04245" /><path
     inkscape:connector-curvature="0"
     id="path6942"
     style="fill:#156c2e;fill-opacity:1;fill-rule:nonzero;stroke:none;stroke-width:1.9269"
     d="m 976.84143,474.60608 c 0,0 -16.57454,13.57841 -30.15493,9.44717 -13.58307,-4.13075 -23.50239,-12.50745 -23.50239,-12.50745 0,0 16.37596,-18.70782 28.60619,-15.55117 12.23401,3.15457 25.05113,18.61145 25.05113,18.61145" /><path
     inkscape:connector-curvature="0"
     id="path6944"
     style="fill:#156c2e;fill-opacity:1;fill-rule:nonzero;stroke:none;stroke-width:1.9269"
     d="m 828.0383,483.549 c 0,0 6.77691,-20.32639 20.46763,-24.07582 13.69273,-3.75127 26.55126,-1.9568 26.55126,-1.9568 0,0 -3.87287,24.55923 -15.90169,28.41283 -12.03092,3.85739 -31.1172,-2.38021 -31.1172,-2.38021" /><path
     inkscape:connector-curvature="0"
     id="path6946"
     style="fill:#156c2e;fill-opacity:1;fill-rule:nonzero;stroke:none;stroke-width:1.9269"
     d="m 839.87112,371.14593 c 0,0 19.97367,-7.75506 31.59771,0.39208 11.62673,8.14751 18.45159,19.1921 18.45159,19.1921 0,0 -21.37902,12.69221 -32.02263,5.891 -10.64786,-6.80041 -18.02667,-25.47518 -18.02667,-25.47518" /><path
     inkscape:connector-curvature="0"
     id="path6948"
     style="fill:#156c2e;fill-opacity:1;fill-rule:nonzero;stroke:none;stroke-width:1.9269"
     d="m 868.09517,560.50962 c 0,0 9.95124,-18.97528 24.06625,-20.47888 14.11727,-1.50509 26.52112,2.32978 26.52112,2.32978 0,0 -7.76417,23.61932 -20.25553,25.49247 -12.49405,1.87654 -30.33184,-7.34337 -30.33184,-7.34337" /></g><g
   id="g6968"
   transform="matrix(-0.59423331,0.39543673,0.39543673,0.59423331,992.63081,-105.69323)"><path
     inkscape:connector-curvature="0"
     id="path6952"
     style="fill:#156c2e;fill-opacity:1;fill-rule:nonzero;stroke:none;stroke-width:1.9269"
     d="m 970.61745,506.30033 c 0,0 -5.89823,20.59853 -19.41541,24.93212 -13.51911,4.33552 -26.44281,3.0946 -26.44281,3.0946 0,0 2.8152,-24.70282 14.66754,-29.06917 11.85427,-4.3702 31.19068,1.04245 31.19068,1.04245" /><g
     id="g6956"
     transform="matrix(9.7486511,0,0,-9.7486511,1014.6858,708.8476)"
     clip-path="url(#clipPath6752)"><path
       d="m 0,0 0.479,-0.305 c 0,0 -0.777,0.899 -1.223,1.887 -0.446,0.988 -0.996,4.527 -1.36,5.135 -0.361,0.606 -0.841,1.101 -0.726,1.355 0.115,0.254 0.283,0.663 0.383,0.599 0.1,-0.064 0.449,-0.472 0.449,-0.472 0,0 0.204,0.992 0.199,1.604 -0.003,0.612 -0.107,2.647 -0.248,3.16 -0.142,0.512 -2.639,1.592 -3.281,1.907 -0.641,0.317 -2.031,0.268 -3.109,1.002 -1.077,0.735 -1.823,1.399 -2.504,1.508 -0.682,0.106 -1.422,0.486 -1.589,0.593 -0.167,0.106 -0.681,0.107 -0.62,0.349 0.06,0.242 0.125,0.857 0.468,0.733 0.341,-0.125 2.153,-0.955 1.99,-0.406 -0.163,0.55 0.121,2.243 0.031,2.91 -0.089,0.666 -0.091,1.324 -0.394,1.657 -0.302,0.334 -2.041,1.501 -2.506,1.798 -0.466,0.297 -1.523,0.918 -1.289,1.283 0.234,0.365 0.678,0.035 0.782,0.344 0.103,0.308 -0.426,2.193 0.164,2.238 0.591,0.044 0.527,-0.57 0.552,-0.822 0.029,-0.252 -0.16,-1.866 0.074,-2.014 0.233,-0.148 2.551,-2.24 2.652,-1.789 0.102,0.451 0.81,3.467 0.489,4.14 -0.319,0.671 -1.73,2.276 -2,2.588 -0.267,0.314 -1.172,1.172 -1.056,1.427 0.115,0.254 0.41,0.862 0.718,0.759 0.309,-0.104 2.623,-3.082 2.639,-2.764 0.016,0.317 0.106,1.338 0.569,1.183 0.462,-0.155 0.605,-0.667 0.597,-0.898 -0.006,-0.23 -0.216,-2.392 0.1,-2.265 0.314,0.127 0.881,-0.235 0.765,-0.489 -0.116,-0.254 -0.925,-0.347 -0.993,-0.819 -0.066,-0.472 -0.511,-4.687 -0.546,-5.696 -0.035,-1.009 -0.105,-3.025 0.319,-3.39 0.422,-0.364 2.695,-2.005 2.838,-1.674 0.144,0.33 0.815,0.277 1.047,0.128 0.234,-0.148 1.034,-0.379 1.242,-0.558 0.209,-0.18 1.454,-1.586 1.578,-1.29 0.125,0.296 1.446,-0.643 1.804,-1.107 0.362,-0.465 0.118,-1.433 0.062,-1.96 C -0.51,11.043 -0.725,9.165 -0.823,8.572 -0.922,7.979 -0.777,5.637 -0.615,5.158 -0.453,4.679 0.905,2.77 1.053,2.486 1.201,2.205 1.875,-1.058 0,0"
       style="fill:#5f544e;fill-opacity:1;fill-rule:nonzero;stroke:none"
       id="path6954"
       inkscape:connector-curvature="0" /></g><path
     inkscape:connector-curvature="0"
     id="path6958"
     style="fill:#156c2e;fill-opacity:1;fill-rule:nonzero;stroke:none;stroke-width:1.9269"
     d="m 974.22624,397.58111 c 0,0 -5.89823,20.59853 -19.41541,24.93212 -13.51911,4.33552 -26.44281,3.0946 -26.44281,3.0946 0,0 2.8152,-24.70282 14.66754,-29.06917 11.85427,-4.3702 31.19068,1.04245 31.19068,1.04245" /><path
     inkscape:connector-curvature="0"
     id="path6960"
     style="fill:#156c2e;fill-opacity:1;fill-rule:nonzero;stroke:none;stroke-width:1.9269"
     d="m 976.84143,474.60608 c 0,0 -16.57454,13.57841 -30.15493,9.44717 -13.58307,-4.13075 -23.50239,-12.50745 -23.50239,-12.50745 0,0 16.37596,-18.70782 28.60619,-15.55117 12.23401,3.15457 25.05113,18.61145 25.05113,18.61145" /><path
     inkscape:connector-curvature="0"
     id="path6962"
     style="fill:#156c2e;fill-opacity:1;fill-rule:nonzero;stroke:none;stroke-width:1.9269"
     d="m 828.0383,483.549 c 0,0 6.77691,-20.32639 20.46763,-24.07582 13.69273,-3.75127 26.55126,-1.9568 26.55126,-1.9568 0,0 -3.87287,24.55923 -15.90169,28.41283 -12.03092,3.85739 -31.1172,-2.38021 -31.1172,-2.38021" /><path
     inkscape:connector-curvature="0"
     id="path6964"
     style="fill:#156c2e;fill-opacity:1;fill-rule:nonzero;stroke:none;stroke-width:1.9269"
     d="m 839.87112,371.14593 c 0,0 19.97367,-7.75506 31.59771,0.39208 11.62673,8.14751 18.45159,19.1921 18.45159,19.1921 0,0 -21.37902,12.69221 -32.02263,5.891 -10.64786,-6.80041 -18.02667,-25.47518 -18.02667,-25.47518" /><path
     inkscape:connector-curvature="0"
     id="path6966"
     style="fill:#156c2e;fill-opacity:1;fill-rule:nonzero;stroke:none;stroke-width:1.9269"
     d="m 868.09517,560.50962 c 0,0 9.95124,-18.97528 24.06625,-20.47888 14.11727,-1.50509 26.52112,2.32978 26.52112,2.32978 0,0 -7.76417,23.61932 -20.25553,25.49247 -12.49405,1.87654 -30.33184,-7.34337 -30.33184,-7.34337" /></g><g
   id="g6986"
   transform="matrix(0.71223895,-0.04689481,0.04689481,0.71223895,-317.70777,245.76453)"><path
     inkscape:connector-curvature="0"
     id="path6970"
     style="fill:#156c2e;fill-opacity:1;fill-rule:nonzero;stroke:none;stroke-width:1.9269"
     d="m 970.61745,506.30033 c 0,0 -5.89823,20.59853 -19.41541,24.93212 -13.51911,4.33552 -26.44281,3.0946 -26.44281,3.0946 0,0 2.8152,-24.70282 14.66754,-29.06917 11.85427,-4.3702 31.19068,1.04245 31.19068,1.04245" /><g
     id="g6974"
     transform="matrix(9.7486511,0,0,-9.7486511,1014.6858,708.8476)"
     clip-path="url(#clipPath6752)"><path
       d="m 0,0 0.479,-0.305 c 0,0 -0.777,0.899 -1.223,1.887 -0.446,0.988 -0.996,4.527 -1.36,5.135 -0.361,0.606 -0.841,1.101 -0.726,1.355 0.115,0.254 0.283,0.663 0.383,0.599 0.1,-0.064 0.449,-0.472 0.449,-0.472 0,0 0.204,0.992 0.199,1.604 -0.003,0.612 -0.107,2.647 -0.248,3.16 -0.142,0.512 -2.639,1.592 -3.281,1.907 -0.641,0.317 -2.031,0.268 -3.109,1.002 -1.077,0.735 -1.823,1.399 -2.504,1.508 -0.682,0.106 -1.422,0.486 -1.589,0.593 -0.167,0.106 -0.681,0.107 -0.62,0.349 0.06,0.242 0.125,0.857 0.468,0.733 0.341,-0.125 2.153,-0.955 1.99,-0.406 -0.163,0.55 0.121,2.243 0.031,2.91 -0.089,0.666 -0.091,1.324 -0.394,1.657 -0.302,0.334 -2.041,1.501 -2.506,1.798 -0.466,0.297 -1.523,0.918 -1.289,1.283 0.234,0.365 0.678,0.035 0.782,0.344 0.103,0.308 -0.426,2.193 0.164,2.238 0.591,0.044 0.527,-0.57 0.552,-0.822 0.029,-0.252 -0.16,-1.866 0.074,-2.014 0.233,-0.148 2.551,-2.24 2.652,-1.789 0.102,0.451 0.81,3.467 0.489,4.14 -0.319,0.671 -1.73,2.276 -2,2.588 -0.267,0.314 -1.172,1.172 -1.056,1.427 0.115,0.254 0.41,0.862 0.718,0.759 0.309,-0.104 2.623,-3.082 2.639,-2.764 0.016,0.317 0.106,1.338 0.569,1.183 0.462,-0.155 0.605,-0.667 0.597,-0.898 -0.006,-0.23 -0.216,-2.392 0.1,-2.265 0.314,0.127 0.881,-0.235 0.765,-0.489 -0.116,-0.254 -0.925,-0.347 -0.993,-0.819 -0.066,-0.472 -0.511,-4.687 -0.546,-5.696 -0.035,-1.009 -0.105,-3.025 0.319,-3.39 0.422,-0.364 2.695,-2.005 2.838,-1.674 0.144,0.33 0.815,0.277 1.047,0.128 0.234,-0.148 1.034,-0.379 1.242,-0.558 0.209,-0.18 1.454,-1.586 1.578,-1.29 0.125,0.296 1.446,-0.643 1.804,-1.107 0.362,-0.465 0.118,-1.433 0.062,-1.96 C -0.51,11.043 -0.725,9.165 -0.823,8.572 -0.922,7.979 -0.777,5.637 -0.615,5.158 -0.453,4.679 0.905,2.77 1.053,2.486 1.201,2.205 1.875,-1.058 0,0"
       style="fill:#5f544e;fill-opacity:1;fill-rule:nonzero;stroke:none"
       id="path6972"
       inkscape:connector-curvature="0" /></g><path
     inkscape:connector-curvature="0"
     id="path6976"
     style="fill:#156c2e;fill-opacity:1;fill-rule:nonzero;stroke:none;stroke-width:1.9269"
     d="m 974.22624,397.58111 c 0,0 -5.89823,20.59853 -19.41541,24.93212 -13.51911,4.33552 -26.44281,3.0946 -26.44281,3.0946 0,0 2.8152,-24.70282 14.66754,-29.06917 11.85427,-4.3702 31.19068,1.04245 31.19068,1.04245" /><path
     inkscape:connector-curvature="0"
     id="path6978"
     style="fill:#156c2e;fill-opacity:1;fill-rule:nonzero;stroke:none;stroke-width:1.9269"
     d="m 976.84143,474.60608 c 0,0 -16.57454,13.57841 -30.15493,9.44717 -13.58307,-4.13075 -23.50239,-12.50745 -23.50239,-12.50745 0,0 16.37596,-18.70782 28.60619,-15.55117 12.23401,3.15457 25.05113,18.61145 25.05113,18.61145" /><path
     inkscape:connector-curvature="0"
     id="path6980"
     style="fill:#156c2e;fill-opacity:1;fill-rule:nonzero;stroke:none;stroke-width:1.9269"
     d="m 828.0383,483.549 c 0,0 6.77691,-20.32639 20.46763,-24.07582 13.69273,-3.75127 26.55126,-1.9568 26.55126,-1.9568 0,0 -3.87287,24.55923 -15.90169,28.41283 -12.03092,3.85739 -31.1172,-2.38021 -31.1172,-2.38021" /><path
     inkscape:connector-curvature="0"
     id="path6982"
     style="fill:#156c2e;fill-opacity:1;fill-rule:nonzero;stroke:none;stroke-width:1.9269"
     d="m 839.87112,371.14593 c 0,0 19.97367,-7.75506 31.59771,0.39208 11.62673,8.14751 18.45159,19.1921 18.45159,19.1921 0,0 -21.37902,12.69221 -32.02263,5.891 -10.64786,-6.80041 -18.02667,-25.47518 -18.02667,-25.47518" /><path
     inkscape:connector-curvature="0"
     id="path6984"
     style="fill:#156c2e;fill-opacity:1;fill-rule:nonzero;stroke:none;stroke-width:1.9269"
     d="m 868.09517,560.50962 c 0,0 9.95124,-18.97528 24.06625,-20.47888 14.11727,-1.50509 26.52112,2.32978 26.52112,2.32978 0,0 -7.76417,23.61932 -20.25553,25.49247 -12.49405,1.87654 -30.33184,-7.34337 -30.33184,-7.34337" /></g><g
   id="g7004"
   transform="matrix(0.64194928,0.31206498,-0.31206498,0.64194928,442.36816,-46.538291)"><path
     inkscape:connector-curvature="0"
     id="path6988"
     style="fill:#156c2e;fill-opacity:1;fill-rule:nonzero;stroke:none;stroke-width:1.9269"
     d="m 970.61745,506.30033 c 0,0 -5.89823,20.59853 -19.41541,24.93212 -13.51911,4.33552 -26.44281,3.0946 -26.44281,3.0946 0,0 2.8152,-24.70282 14.66754,-29.06917 11.85427,-4.3702 31.19068,1.04245 31.19068,1.04245" /><g
     id="g6992"
     transform="matrix(9.7486511,0,0,-9.7486511,1014.6858,708.8476)"
     clip-path="url(#clipPath6752)"><path
       d="m 0,0 0.479,-0.305 c 0,0 -0.777,0.899 -1.223,1.887 -0.446,0.988 -0.996,4.527 -1.36,5.135 -0.361,0.606 -0.841,1.101 -0.726,1.355 0.115,0.254 0.283,0.663 0.383,0.599 0.1,-0.064 0.449,-0.472 0.449,-0.472 0,0 0.204,0.992 0.199,1.604 -0.003,0.612 -0.107,2.647 -0.248,3.16 -0.142,0.512 -2.639,1.592 -3.281,1.907 -0.641,0.317 -2.031,0.268 -3.109,1.002 -1.077,0.735 -1.823,1.399 -2.504,1.508 -0.682,0.106 -1.422,0.486 -1.589,0.593 -0.167,0.106 -0.681,0.107 -0.62,0.349 0.06,0.242 0.125,0.857 0.468,0.733 0.341,-0.125 2.153,-0.955 1.99,-0.406 -0.163,0.55 0.121,2.243 0.031,2.91 -0.089,0.666 -0.091,1.324 -0.394,1.657 -0.302,0.334 -2.041,1.501 -2.506,1.798 -0.466,0.297 -1.523,0.918 -1.289,1.283 0.234,0.365 0.678,0.035 0.782,0.344 0.103,0.308 -0.426,2.193 0.164,2.238 0.591,0.044 0.527,-0.57 0.552,-0.822 0.029,-0.252 -0.16,-1.866 0.074,-2.014 0.233,-0.148 2.551,-2.24 2.652,-1.789 0.102,0.451 0.81,3.467 0.489,4.14 -0.319,0.671 -1.73,2.276 -2,2.588 -0.267,0.314 -1.172,1.172 -1.056,1.427 0.115,0.254 0.41,0.862 0.718,0.759 0.309,-0.104 2.623,-3.082 2.639,-2.764 0.016,0.317 0.106,1.338 0.569,1.183 0.462,-0.155 0.605,-0.667 0.597,-0.898 -0.006,-0.23 -0.216,-2.392 0.1,-2.265 0.314,0.127 0.881,-0.235 0.765,-0.489 -0.116,-0.254 -0.925,-0.347 -0.993,-0.819 -0.066,-0.472 -0.511,-4.687 -0.546,-5.696 -0.035,-1.009 -0.105,-3.025 0.319,-3.39 0.422,-0.364 2.695,-2.005 2.838,-1.674 0.144,0.33 0.815,0.277 1.047,0.128 0.234,-0.148 1.034,-0.379 1.242,-0.558 0.209,-0.18 1.454,-1.586 1.578,-1.29 0.125,0.296 1.446,-0.643 1.804,-1.107 0.362,-0.465 0.118,-1.433 0.062,-1.96 C -0.51,11.043 -0.725,9.165 -0.823,8.572 -0.922,7.979 -0.777,5.637 -0.615,5.158 -0.453,4.679 0.905,2.77 1.053,2.486 1.201,2.205 1.875,-1.058 0,0"
       style="fill:#5f544e;fill-opacity:1;fill-rule:nonzero;stroke:none"
       id="path6990"
       inkscape:connector-curvature="0" /></g><path
     inkscape:connector-curvature="0"
     id="path6994"
     style="fill:#156c2e;fill-opacity:1;fill-rule:nonzero;stroke:none;stroke-width:1.9269"
     d="m 974.22624,397.58111 c 0,0 -5.89823,20.59853 -19.41541,24.93212 -13.51911,4.33552 -26.44281,3.0946 -26.44281,3.0946 0,0 2.8152,-24.70282 14.66754,-29.06917 11.85427,-4.3702 31.19068,1.04245 31.19068,1.04245" /><path
     inkscape:connector-curvature="0"
     id="path6996"
     style="fill:#156c2e;fill-opacity:1;fill-rule:nonzero;stroke:none;stroke-width:1.9269"
     d="m 976.84143,474.60608 c 0,0 -16.57454,13.57841 -30.15493,9.44717 -13.58307,-4.13075 -23.50239,-12.50745 -23.50239,-12.50745 0,0 16.37596,-18.70782 28.60619,-15.55117 12.23401,3.15457 25.05113,18.61145 25.05113,18.61145" /><path
     inkscape:connector-curvature="0"
     id="path6998"
     style="fill:#156c2e;fill-opacity:1;fill-rule:nonzero;stroke:none;stroke-width:1.9269"
     d="m 828.0383,483.549 c 0,0 6.77691,-20.32639 20.46763,-24.07582 13.69273,-3.75127 26.55126,-1.9568 26.55126,-1.9568 0,0 -3.87287,24.55923 -15.90169,28.41283 -12.03092,3.85739 -31.1172,-2.38021 -31.1172,-2.38021" /><path
     inkscape:connector-curvature="0"
     id="path7000"
     style="fill:#156c2e;fill-opacity:1;fill-rule:nonzero;stroke:none;stroke-width:1.9269"
     d="m 839.87112,371.14593 c 0,0 19.97367,-7.75506 31.59771,0.39208 11.62673,8.14751 18.45159,19.1921 18.45159,19.1921 0,0 -21.37902,12.69221 -32.02263,5.891 -10.64786,-6.80041 -18.02667,-25.47518 -18.02667,-25.47518" /><path
     inkscape:connector-curvature="0"
     id="path7002"
     style="fill:#156c2e;fill-opacity:1;fill-rule:nonzero;stroke:none;stroke-width:1.9269"
     d="m 868.09517,560.50962 c 0,0 9.95124,-18.97528 24.06625,-20.47888 14.11727,-1.50509 26.52112,2.32978 26.52112,2.32978 0,0 -7.76417,23.61932 -20.25553,25.49247 -12.49405,1.87654 -30.33184,-7.34337 -30.33184,-7.34337" /></g><g
   id="g7118"
   transform="matrix(-0.47765813,0.53040188,0.53040188,0.47765813,1286.1628,-210.66141)"><path
     inkscape:connector-curvature="0"
     id="path7102"
     style="fill:#156c2e;fill-opacity:1;fill-rule:nonzero;stroke:none;stroke-width:1.9269"
     d="m 970.61745,506.30033 c 0,0 -5.89823,20.59853 -19.41541,24.93212 -13.51911,4.33552 -26.44281,3.0946 -26.44281,3.0946 0,0 2.8152,-24.70282 14.66754,-29.06917 11.85427,-4.3702 31.19068,1.04245 31.19068,1.04245" /><g
     id="g7106"
     transform="matrix(9.7486511,0,0,-9.7486511,1014.6858,708.8476)"
     clip-path="url(#clipPath6752)"><path
       d="m 0,0 0.479,-0.305 c 0,0 -0.777,0.899 -1.223,1.887 -0.446,0.988 -0.996,4.527 -1.36,5.135 -0.361,0.606 -0.841,1.101 -0.726,1.355 0.115,0.254 0.283,0.663 0.383,0.599 0.1,-0.064 0.449,-0.472 0.449,-0.472 0,0 0.204,0.992 0.199,1.604 -0.003,0.612 -0.107,2.647 -0.248,3.16 -0.142,0.512 -2.639,1.592 -3.281,1.907 -0.641,0.317 -2.031,0.268 -3.109,1.002 -1.077,0.735 -1.823,1.399 -2.504,1.508 -0.682,0.106 -1.422,0.486 -1.589,0.593 -0.167,0.106 -0.681,0.107 -0.62,0.349 0.06,0.242 0.125,0.857 0.468,0.733 0.341,-0.125 2.153,-0.955 1.99,-0.406 -0.163,0.55 0.121,2.243 0.031,2.91 -0.089,0.666 -0.091,1.324 -0.394,1.657 -0.302,0.334 -2.041,1.501 -2.506,1.798 -0.466,0.297 -1.523,0.918 -1.289,1.283 0.234,0.365 0.678,0.035 0.782,0.344 0.103,0.308 -0.426,2.193 0.164,2.238 0.591,0.044 0.527,-0.57 0.552,-0.822 0.029,-0.252 -0.16,-1.866 0.074,-2.014 0.233,-0.148 2.551,-2.24 2.652,-1.789 0.102,0.451 0.81,3.467 0.489,4.14 -0.319,0.671 -1.73,2.276 -2,2.588 -0.267,0.314 -1.172,1.172 -1.056,1.427 0.115,0.254 0.41,0.862 0.718,0.759 0.309,-0.104 2.623,-3.082 2.639,-2.764 0.016,0.317 0.106,1.338 0.569,1.183 0.462,-0.155 0.605,-0.667 0.597,-0.898 -0.006,-0.23 -0.216,-2.392 0.1,-2.265 0.314,0.127 0.881,-0.235 0.765,-0.489 -0.116,-0.254 -0.925,-0.347 -0.993,-0.819 -0.066,-0.472 -0.511,-4.687 -0.546,-5.696 -0.035,-1.009 -0.105,-3.025 0.319,-3.39 0.422,-0.364 2.695,-2.005 2.838,-1.674 0.144,0.33 0.815,0.277 1.047,0.128 0.234,-0.148 1.034,-0.379 1.242,-0.558 0.209,-0.18 1.454,-1.586 1.578,-1.29 0.125,0.296 1.446,-0.643 1.804,-1.107 0.362,-0.465 0.118,-1.433 0.062,-1.96 C -0.51,11.043 -0.725,9.165 -0.823,8.572 -0.922,7.979 -0.777,5.637 -0.615,5.158 -0.453,4.679 0.905,2.77 1.053,2.486 1.201,2.205 1.875,-1.058 0,0"
       style="fill:#5f544e;fill-opacity:1;fill-rule:nonzero;stroke:none"
       id="path7104"
       inkscape:connector-curvature="0" /></g><path
     inkscape:connector-curvature="0"
     id="path7108"
     style="fill:#156c2e;fill-opacity:1;fill-rule:nonzero;stroke:none;stroke-width:1.9269"
     d="m 974.22624,397.58111 c 0,0 -5.89823,20.59853 -19.41541,24.93212 -13.51911,4.33552 -26.44281,3.0946 -26.44281,3.0946 0,0 2.8152,-24.70282 14.66754,-29.06917 11.85427,-4.3702 31.19068,1.04245 31.19068,1.04245" /><path
     inkscape:connector-curvature="0"
     id="path7110"
     style="fill:#156c2e;fill-opacity:1;fill-rule:nonzero;stroke:none;stroke-width:1.9269"
     d="m 976.84143,474.60608 c 0,0 -16.57454,13.57841 -30.15493,9.44717 -13.58307,-4.13075 -23.50239,-12.50745 -23.50239,-12.50745 0,0 16.37596,-18.70782 28.60619,-15.55117 12.23401,3.15457 25.05113,18.61145 25.05113,18.61145" /><path
     inkscape:connector-curvature="0"
     id="path7112"
     style="fill:#156c2e;fill-opacity:1;fill-rule:nonzero;stroke:none;stroke-width:1.9269"
     d="m 828.0383,483.549 c 0,0 6.77691,-20.32639 20.46763,-24.07582 13.69273,-3.75127 26.55126,-1.9568 26.55126,-1.9568 0,0 -3.87287,24.55923 -15.90169,28.41283 -12.03092,3.85739 -31.1172,-2.38021 -31.1172,-2.38021" /><path
     inkscape:connector-curvature="0"
     id="path7114"
     style="fill:#156c2e;fill-opacity:1;fill-rule:nonzero;stroke:none;stroke-width:1.9269"
     d="m 839.87112,371.14593 c 0,0 19.97367,-7.75506 31.59771,0.39208 11.62673,8.14751 18.45159,19.1921 18.45159,19.1921 0,0 -21.37902,12.69221 -32.02263,5.891 -10.64786,-6.80041 -18.02667,-25.47518 -18.02667,-25.47518" /><path
     inkscape:connector-curvature="0"
     id="path7116"
     style="fill:#156c2e;fill-opacity:1;fill-rule:nonzero;stroke:none;stroke-width:1.9269"
     d="m 868.09517,560.50962 c 0,0 9.95124,-18.97528 24.06625,-20.47888 14.11727,-1.50509 26.52112,2.32978 26.52112,2.32978 0,0 -7.76417,23.61932 -20.25553,25.49247 -12.49405,1.87654 -30.33184,-7.34337 -30.33184,-7.34337" /></g><g
   id="g7235"
   transform="matrix(0.39447657,-0.62901643,-0.62901643,-0.39447657,30.314569,855.79453)"><path
     inkscape:connector-curvature="0"
     id="path7219"
     style="fill:#156c2e;fill-opacity:1;fill-rule:nonzero;stroke:none;stroke-width:1.9269"
     d="m 970.61745,506.30033 c 0,0 -5.89823,20.59853 -19.41541,24.93212 -13.51911,4.33552 -26.44281,3.0946 -26.44281,3.0946 0,0 2.8152,-24.70282 14.66754,-29.06917 11.85427,-4.3702 31.19068,1.04245 31.19068,1.04245" /><g
     id="g7223"
     transform="matrix(9.7486511,0,0,-9.7486511,1014.6858,708.8476)"
     clip-path="url(#clipPath6752)"><path
       d="m 0,0 0.479,-0.305 c 0,0 -0.777,0.899 -1.223,1.887 -0.446,0.988 -0.996,4.527 -1.36,5.135 -0.361,0.606 -0.841,1.101 -0.726,1.355 0.115,0.254 0.283,0.663 0.383,0.599 0.1,-0.064 0.449,-0.472 0.449,-0.472 0,0 0.204,0.992 0.199,1.604 -0.003,0.612 -0.107,2.647 -0.248,3.16 -0.142,0.512 -2.639,1.592 -3.281,1.907 -0.641,0.317 -2.031,0.268 -3.109,1.002 -1.077,0.735 -1.823,1.399 -2.504,1.508 -0.682,0.106 -1.422,0.486 -1.589,0.593 -0.167,0.106 -0.681,0.107 -0.62,0.349 0.06,0.242 0.125,0.857 0.468,0.733 0.341,-0.125 2.153,-0.955 1.99,-0.406 -0.163,0.55 0.121,2.243 0.031,2.91 -0.089,0.666 -0.091,1.324 -0.394,1.657 -0.302,0.334 -2.041,1.501 -2.506,1.798 -0.466,0.297 -1.523,0.918 -1.289,1.283 0.234,0.365 0.678,0.035 0.782,0.344 0.103,0.308 -0.426,2.193 0.164,2.238 0.591,0.044 0.527,-0.57 0.552,-0.822 0.029,-0.252 -0.16,-1.866 0.074,-2.014 0.233,-0.148 2.551,-2.24 2.652,-1.789 0.102,0.451 0.81,3.467 0.489,4.14 -0.319,0.671 -1.73,2.276 -2,2.588 -0.267,0.314 -1.172,1.172 -1.056,1.427 0.115,0.254 0.41,0.862 0.718,0.759 0.309,-0.104 2.623,-3.082 2.639,-2.764 0.016,0.317 0.106,1.338 0.569,1.183 0.462,-0.155 0.605,-0.667 0.597,-0.898 -0.006,-0.23 -0.216,-2.392 0.1,-2.265 0.314,0.127 0.881,-0.235 0.765,-0.489 -0.116,-0.254 -0.925,-0.347 -0.993,-0.819 -0.066,-0.472 -0.511,-4.687 -0.546,-5.696 -0.035,-1.009 -0.105,-3.025 0.319,-3.39 0.422,-0.364 2.695,-2.005 2.838,-1.674 0.144,0.33 0.815,0.277 1.047,0.128 0.234,-0.148 1.034,-0.379 1.242,-0.558 0.209,-0.18 1.454,-1.586 1.578,-1.29 0.125,0.296 1.446,-0.643 1.804,-1.107 0.362,-0.465 0.118,-1.433 0.062,-1.96 C -0.51,11.043 -0.725,9.165 -0.823,8.572 -0.922,7.979 -0.777,5.637 -0.615,5.158 -0.453,4.679 0.905,2.77 1.053,2.486 1.201,2.205 1.875,-1.058 0,0"
       style="fill:#5f544e;fill-opacity:1;fill-rule:nonzero;stroke:none"
       id="path7221"
       inkscape:connector-curvature="0" /></g><path
     inkscape:connector-curvature="0"
     id="path7225"
     style="fill:#156c2e;fill-opacity:1;fill-rule:nonzero;stroke:none;stroke-width:1.9269"
     d="m 974.22624,397.58111 c 0,0 -5.89823,20.59853 -19.41541,24.93212 -13.51911,4.33552 -26.44281,3.0946 -26.44281,3.0946 0,0 2.8152,-24.70282 14.66754,-29.06917 11.85427,-4.3702 31.19068,1.04245 31.19068,1.04245" /><path
     inkscape:connector-curvature="0"
     id="path7227"
     style="fill:#156c2e;fill-opacity:1;fill-rule:nonzero;stroke:none;stroke-width:1.9269"
     d="m 976.84143,474.60608 c 0,0 -16.57454,13.57841 -30.15493,9.44717 -13.58307,-4.13075 -23.50239,-12.50745 -23.50239,-12.50745 0,0 16.37596,-18.70782 28.60619,-15.55117 12.23401,3.15457 25.05113,18.61145 25.05113,18.61145" /><path
     inkscape:connector-curvature="0"
     id="path7229"
     style="fill:#156c2e;fill-opacity:1;fill-rule:nonzero;stroke:none;stroke-width:1.9269"
     d="m 828.0383,483.549 c 0,0 6.77691,-20.32639 20.46763,-24.07582 13.69273,-3.75127 26.55126,-1.9568 26.55126,-1.9568 0,0 -3.87287,24.55923 -15.90169,28.41283 -12.03092,3.85739 -31.1172,-2.38021 -31.1172,-2.38021" /><path
     inkscape:connector-curvature="0"
     id="path7231"
     style="fill:#156c2e;fill-opacity:1;fill-rule:nonzero;stroke:none;stroke-width:1.9269"
     d="m 839.87112,371.14593 c 0,0 19.97367,-7.75506 31.59771,0.39208 11.62673,8.14751 18.45159,19.1921 18.45159,19.1921 0,0 -21.37902,12.69221 -32.02263,5.891 -10.64786,-6.80041 -18.02667,-25.47518 -18.02667,-25.47518" /><path
     inkscape:connector-curvature="0"
     id="path7233"
     style="fill:#156c2e;fill-opacity:1;fill-rule:nonzero;stroke:none;stroke-width:1.9269"
     d="m 868.09517,560.50962 c 0,0 9.95124,-18.97528 24.06625,-20.47888 14.11727,-1.50509 26.52112,2.32978 26.52112,2.32978 0,0 -7.76417,23.61932 -20.25553,25.49247 -12.49405,1.87654 -30.33184,-7.34337 -30.33184,-7.34337" /></g><g
   id="g7253"
   transform="matrix(-0.70480544,-0.1128394,0.1128394,-0.70480544,1202.3686,510.43135)"><path
     inkscape:connector-curvature="0"
     id="path7237"
     style="fill:#156c2e;fill-opacity:1;fill-rule:nonzero;stroke:none;stroke-width:1.9269"
     d="m 970.61745,506.30033 c 0,0 -5.89823,20.59853 -19.41541,24.93212 -13.51911,4.33552 -26.44281,3.0946 -26.44281,3.0946 0,0 2.8152,-24.70282 14.66754,-29.06917 11.85427,-4.3702 31.19068,1.04245 31.19068,1.04245" /><g
     id="g7241"
     transform="matrix(9.7486511,0,0,-9.7486511,1014.6858,708.8476)"
     clip-path="url(#clipPath6752)"><path
       d="m 0,0 0.479,-0.305 c 0,0 -0.777,0.899 -1.223,1.887 -0.446,0.988 -0.996,4.527 -1.36,5.135 -0.361,0.606 -0.841,1.101 -0.726,1.355 0.115,0.254 0.283,0.663 0.383,0.599 0.1,-0.064 0.449,-0.472 0.449,-0.472 0,0 0.204,0.992 0.199,1.604 -0.003,0.612 -0.107,2.647 -0.248,3.16 -0.142,0.512 -2.639,1.592 -3.281,1.907 -0.641,0.317 -2.031,0.268 -3.109,1.002 -1.077,0.735 -1.823,1.399 -2.504,1.508 -0.682,0.106 -1.422,0.486 -1.589,0.593 -0.167,0.106 -0.681,0.107 -0.62,0.349 0.06,0.242 0.125,0.857 0.468,0.733 0.341,-0.125 2.153,-0.955 1.99,-0.406 -0.163,0.55 0.121,2.243 0.031,2.91 -0.089,0.666 -0.091,1.324 -0.394,1.657 -0.302,0.334 -2.041,1.501 -2.506,1.798 -0.466,0.297 -1.523,0.918 -1.289,1.283 0.234,0.365 0.678,0.035 0.782,0.344 0.103,0.308 -0.426,2.193 0.164,2.238 0.591,0.044 0.527,-0.57 0.552,-0.822 0.029,-0.252 -0.16,-1.866 0.074,-2.014 0.233,-0.148 2.551,-2.24 2.652,-1.789 0.102,0.451 0.81,3.467 0.489,4.14 -0.319,0.671 -1.73,2.276 -2,2.588 -0.267,0.314 -1.172,1.172 -1.056,1.427 0.115,0.254 0.41,0.862 0.718,0.759 0.309,-0.104 2.623,-3.082 2.639,-2.764 0.016,0.317 0.106,1.338 0.569,1.183 0.462,-0.155 0.605,-0.667 0.597,-0.898 -0.006,-0.23 -0.216,-2.392 0.1,-2.265 0.314,0.127 0.881,-0.235 0.765,-0.489 -0.116,-0.254 -0.925,-0.347 -0.993,-0.819 -0.066,-0.472 -0.511,-4.687 -0.546,-5.696 -0.035,-1.009 -0.105,-3.025 0.319,-3.39 0.422,-0.364 2.695,-2.005 2.838,-1.674 0.144,0.33 0.815,0.277 1.047,0.128 0.234,-0.148 1.034,-0.379 1.242,-0.558 0.209,-0.18 1.454,-1.586 1.578,-1.29 0.125,0.296 1.446,-0.643 1.804,-1.107 0.362,-0.465 0.118,-1.433 0.062,-1.96 C -0.51,11.043 -0.725,9.165 -0.823,8.572 -0.922,7.979 -0.777,5.637 -0.615,5.158 -0.453,4.679 0.905,2.77 1.053,2.486 1.201,2.205 1.875,-1.058 0,0"
       style="fill:#5f544e;fill-opacity:1;fill-rule:nonzero;stroke:none"
       id="path7239"
       inkscape:connector-curvature="0" /></g><path
     inkscape:connector-curvature="0"
     id="path7243"
     style="fill:#156c2e;fill-opacity:1;fill-rule:nonzero;stroke:none;stroke-width:1.9269"
     d="m 974.22624,397.58111 c 0,0 -5.89823,20.59853 -19.41541,24.93212 -13.51911,4.33552 -26.44281,3.0946 -26.44281,3.0946 0,0 2.8152,-24.70282 14.66754,-29.06917 11.85427,-4.3702 31.19068,1.04245 31.19068,1.04245" /><path
     inkscape:connector-curvature="0"
     id="path7245"
     style="fill:#156c2e;fill-opacity:1;fill-rule:nonzero;stroke:none;stroke-width:1.9269"
     d="m 976.84143,474.60608 c 0,0 -16.57454,13.57841 -30.15493,9.44717 -13.58307,-4.13075 -23.50239,-12.50745 -23.50239,-12.50745 0,0 16.37596,-18.70782 28.60619,-15.55117 12.23401,3.15457 25.05113,18.61145 25.05113,18.61145" /><path
     inkscape:connector-curvature="0"
     id="path7247"
     style="fill:#156c2e;fill-opacity:1;fill-rule:nonzero;stroke:none;stroke-width:1.9269"
     d="m 828.0383,483.549 c 0,0 6.77691,-20.32639 20.46763,-24.07582 13.69273,-3.75127 26.55126,-1.9568 26.55126,-1.9568 0,0 -3.87287,24.55923 -15.90169,28.41283 -12.03092,3.85739 -31.1172,-2.38021 -31.1172,-2.38021" /><path
     inkscape:connector-curvature="0"
     id="path7249"
     style="fill:#156c2e;fill-opacity:1;fill-rule:nonzero;stroke:none;stroke-width:1.9269"
     d="m 839.87112,371.14593 c 0,0 19.97367,-7.75506 31.59771,0.39208 11.62673,8.14751 18.45159,19.1921 18.45159,19.1921 0,0 -21.37902,12.69221 -32.02263,5.891 -10.64786,-6.80041 -18.02667,-25.47518 -18.02667,-25.47518" /><path
     inkscape:connector-curvature="0"
     id="path7251"
     style="fill:#156c2e;fill-opacity:1;fill-rule:nonzero;stroke:none;stroke-width:1.9269"
     d="m 868.09517,560.50962 c 0,0 9.95124,-18.97528 24.06625,-20.47888 14.11727,-1.50509 26.52112,2.32978 26.52112,2.32978 0,0 -7.76417,23.61932 -20.25553,25.49247 -12.49405,1.87654 -30.33184,-7.34337 -30.33184,-7.34337" /></g><g
   id="g7271"
   transform="matrix(0.71223895,0.04689481,0.04689481,-0.71223895,-367.63584,378.0973)"><path
     inkscape:connector-curvature="0"
     id="path7255"
     style="fill:#156c2e;fill-opacity:1;fill-rule:nonzero;stroke:none;stroke-width:1.9269"
     d="m 970.61745,506.30033 c 0,0 -5.89823,20.59853 -19.41541,24.93212 -13.51911,4.33552 -26.44281,3.0946 -26.44281,3.0946 0,0 2.8152,-24.70282 14.66754,-29.06917 11.85427,-4.3702 31.19068,1.04245 31.19068,1.04245" /><g
     id="g7259"
     transform="matrix(9.7486511,0,0,-9.7486511,1014.6858,708.8476)"
     clip-path="url(#clipPath6752)"><path
       d="m 0,0 0.479,-0.305 c 0,0 -0.777,0.899 -1.223,1.887 -0.446,0.988 -0.996,4.527 -1.36,5.135 -0.361,0.606 -0.841,1.101 -0.726,1.355 0.115,0.254 0.283,0.663 0.383,0.599 0.1,-0.064 0.449,-0.472 0.449,-0.472 0,0 0.204,0.992 0.199,1.604 -0.003,0.612 -0.107,2.647 -0.248,3.16 -0.142,0.512 -2.639,1.592 -3.281,1.907 -0.641,0.317 -2.031,0.268 -3.109,1.002 -1.077,0.735 -1.823,1.399 -2.504,1.508 -0.682,0.106 -1.422,0.486 -1.589,0.593 -0.167,0.106 -0.681,0.107 -0.62,0.349 0.06,0.242 0.125,0.857 0.468,0.733 0.341,-0.125 2.153,-0.955 1.99,-0.406 -0.163,0.55 0.121,2.243 0.031,2.91 -0.089,0.666 -0.091,1.324 -0.394,1.657 -0.302,0.334 -2.041,1.501 -2.506,1.798 -0.466,0.297 -1.523,0.918 -1.289,1.283 0.234,0.365 0.678,0.035 0.782,0.344 0.103,0.308 -0.426,2.193 0.164,2.238 0.591,0.044 0.527,-0.57 0.552,-0.822 0.029,-0.252 -0.16,-1.866 0.074,-2.014 0.233,-0.148 2.551,-2.24 2.652,-1.789 0.102,0.451 0.81,3.467 0.489,4.14 -0.319,0.671 -1.73,2.276 -2,2.588 -0.267,0.314 -1.172,1.172 -1.056,1.427 0.115,0.254 0.41,0.862 0.718,0.759 0.309,-0.104 2.623,-3.082 2.639,-2.764 0.016,0.317 0.106,1.338 0.569,1.183 0.462,-0.155 0.605,-0.667 0.597,-0.898 -0.006,-0.23 -0.216,-2.392 0.1,-2.265 0.314,0.127 0.881,-0.235 0.765,-0.489 -0.116,-0.254 -0.925,-0.347 -0.993,-0.819 -0.066,-0.472 -0.511,-4.687 -0.546,-5.696 -0.035,-1.009 -0.105,-3.025 0.319,-3.39 0.422,-0.364 2.695,-2.005 2.838,-1.674 0.144,0.33 0.815,0.277 1.047,0.128 0.234,-0.148 1.034,-0.379 1.242,-0.558 0.209,-0.18 1.454,-1.586 1.578,-1.29 0.125,0.296 1.446,-0.643 1.804,-1.107 0.362,-0.465 0.118,-1.433 0.062,-1.96 C -0.51,11.043 -0.725,9.165 -0.823,8.572 -0.922,7.979 -0.777,5.637 -0.615,5.158 -0.453,4.679 0.905,2.77 1.053,2.486 1.201,2.205 1.875,-1.058 0,0"
       style="fill:#5f544e;fill-opacity:1;fill-rule:nonzero;stroke:none"
       id="path7257"
       inkscape:connector-curvature="0" /></g><path
     inkscape:connector-curvature="0"
     id="path7261"
     style="fill:#156c2e;fill-opacity:1;fill-rule:nonzero;stroke:none;stroke-width:1.9269"
     d="m 974.22624,397.58111 c 0,0 -5.89823,20.59853 -19.41541,24.93212 -13.51911,4.33552 -26.44281,3.0946 -26.44281,3.0946 0,0 2.8152,-24.70282 14.66754,-29.06917 11.85427,-4.3702 31.19068,1.04245 31.19068,1.04245" /><path
     inkscape:connector-curvature="0"
     id="path7263"
     style="fill:#156c2e;fill-opacity:1;fill-rule:nonzero;stroke:none;stroke-width:1.9269"
     d="m 976.84143,474.60608 c 0,0 -16.57454,13.57841 -30.15493,9.44717 -13.58307,-4.13075 -23.50239,-12.50745 -23.50239,-12.50745 0,0 16.37596,-18.70782 28.60619,-15.55117 12.23401,3.15457 25.05113,18.61145 25.05113,18.61145" /><path
     inkscape:connector-curvature="0"
     id="path7265"
     style="fill:#156c2e;fill-opacity:1;fill-rule:nonzero;stroke:none;stroke-width:1.9269"
     d="m 828.0383,483.549 c 0,0 6.77691,-20.32639 20.46763,-24.07582 13.69273,-3.75127 26.55126,-1.9568 26.55126,-1.9568 0,0 -3.87287,24.55923 -15.90169,28.41283 -12.03092,3.85739 -31.1172,-2.38021 -31.1172,-2.38021" /><path
     inkscape:connector-curvature="0"
     id="path7267"
     style="fill:#156c2e;fill-opacity:1;fill-rule:nonzero;stroke:none;stroke-width:1.9269"
     d="m 839.87112,371.14593 c 0,0 19.97367,-7.75506 31.59771,0.39208 11.62673,8.14751 18.45159,19.1921 18.45159,19.1921 0,0 -21.37902,12.69221 -32.02263,5.891 -10.64786,-6.80041 -18.02667,-25.47518 -18.02667,-25.47518" /><path
     inkscape:connector-curvature="0"
     id="path7269"
     style="fill:#156c2e;fill-opacity:1;fill-rule:nonzero;stroke:none;stroke-width:1.9269"
     d="m 868.09517,560.50962 c 0,0 9.95124,-18.97528 24.06625,-20.47888 14.11727,-1.50509 26.52112,2.32978 26.52112,2.32978 0,0 -7.76417,23.61932 -20.25553,25.49247 -12.49405,1.87654 -30.33184,-7.34337 -30.33184,-7.34337" /></g><g
   id="g7289"
   transform="matrix(0.64194928,-0.31206498,-0.31206498,-0.64194928,412.11612,667.04622)"><path
     inkscape:connector-curvature="0"
     id="path7273"
     style="fill:#156c2e;fill-opacity:1;fill-rule:nonzero;stroke:none;stroke-width:1.9269"
     d="m 970.61745,506.30033 c 0,0 -5.89823,20.59853 -19.41541,24.93212 -13.51911,4.33552 -26.44281,3.0946 -26.44281,3.0946 0,0 2.8152,-24.70282 14.66754,-29.06917 11.85427,-4.3702 31.19068,1.04245 31.19068,1.04245" /><g
     id="g7277"
     transform="matrix(9.7486511,0,0,-9.7486511,1014.6858,708.8476)"
     clip-path="url(#clipPath6752)"><path
       d="m 0,0 0.479,-0.305 c 0,0 -0.777,0.899 -1.223,1.887 -0.446,0.988 -0.996,4.527 -1.36,5.135 -0.361,0.606 -0.841,1.101 -0.726,1.355 0.115,0.254 0.283,0.663 0.383,0.599 0.1,-0.064 0.449,-0.472 0.449,-0.472 0,0 0.204,0.992 0.199,1.604 -0.003,0.612 -0.107,2.647 -0.248,3.16 -0.142,0.512 -2.639,1.592 -3.281,1.907 -0.641,0.317 -2.031,0.268 -3.109,1.002 -1.077,0.735 -1.823,1.399 -2.504,1.508 -0.682,0.106 -1.422,0.486 -1.589,0.593 -0.167,0.106 -0.681,0.107 -0.62,0.349 0.06,0.242 0.125,0.857 0.468,0.733 0.341,-0.125 2.153,-0.955 1.99,-0.406 -0.163,0.55 0.121,2.243 0.031,2.91 -0.089,0.666 -0.091,1.324 -0.394,1.657 -0.302,0.334 -2.041,1.501 -2.506,1.798 -0.466,0.297 -1.523,0.918 -1.289,1.283 0.234,0.365 0.678,0.035 0.782,0.344 0.103,0.308 -0.426,2.193 0.164,2.238 0.591,0.044 0.527,-0.57 0.552,-0.822 0.029,-0.252 -0.16,-1.866 0.074,-2.014 0.233,-0.148 2.551,-2.24 2.652,-1.789 0.102,0.451 0.81,3.467 0.489,4.14 -0.319,0.671 -1.73,2.276 -2,2.588 -0.267,0.314 -1.172,1.172 -1.056,1.427 0.115,0.254 0.41,0.862 0.718,0.759 0.309,-0.104 2.623,-3.082 2.639,-2.764 0.016,0.317 0.106,1.338 0.569,1.183 0.462,-0.155 0.605,-0.667 0.597,-0.898 -0.006,-0.23 -0.216,-2.392 0.1,-2.265 0.314,0.127 0.881,-0.235 0.765,-0.489 -0.116,-0.254 -0.925,-0.347 -0.993,-0.819 -0.066,-0.472 -0.511,-4.687 -0.546,-5.696 -0.035,-1.009 -0.105,-3.025 0.319,-3.39 0.422,-0.364 2.695,-2.005 2.838,-1.674 0.144,0.33 0.815,0.277 1.047,0.128 0.234,-0.148 1.034,-0.379 1.242,-0.558 0.209,-0.18 1.454,-1.586 1.578,-1.29 0.125,0.296 1.446,-0.643 1.804,-1.107 0.362,-0.465 0.118,-1.433 0.062,-1.96 C -0.51,11.043 -0.725,9.165 -0.823,8.572 -0.922,7.979 -0.777,5.637 -0.615,5.158 -0.453,4.679 0.905,2.77 1.053,2.486 1.201,2.205 1.875,-1.058 0,0"
       style="fill:#5f544e;fill-opacity:1;fill-rule:nonzero;stroke:none"
       id="path7275"
       inkscape:connector-curvature="0" /></g><path
     inkscape:connector-curvature="0"
     id="path7279"
     style="fill:#156c2e;fill-opacity:1;fill-rule:nonzero;stroke:none;stroke-width:1.9269"
     d="m 974.22624,397.58111 c 0,0 -5.89823,20.59853 -19.41541,24.93212 -13.51911,4.33552 -26.44281,3.0946 -26.44281,3.0946 0,0 2.8152,-24.70282 14.66754,-29.06917 11.85427,-4.3702 31.19068,1.04245 31.19068,1.04245" /><path
     inkscape:connector-curvature="0"
     id="path7281"
     style="fill:#156c2e;fill-opacity:1;fill-rule:nonzero;stroke:none;stroke-width:1.9269"
     d="m 976.84143,474.60608 c 0,0 -16.57454,13.57841 -30.15493,9.44717 -13.58307,-4.13075 -23.50239,-12.50745 -23.50239,-12.50745 0,0 16.37596,-18.70782 28.60619,-15.55117 12.23401,3.15457 25.05113,18.61145 25.05113,18.61145" /><path
     inkscape:connector-curvature="0"
     id="path7283"
     style="fill:#156c2e;fill-opacity:1;fill-rule:nonzero;stroke:none;stroke-width:1.9269"
     d="m 828.0383,483.549 c 0,0 6.77691,-20.32639 20.46763,-24.07582 13.69273,-3.75127 26.55126,-1.9568 26.55126,-1.9568 0,0 -3.87287,24.55923 -15.90169,28.41283 -12.03092,3.85739 -31.1172,-2.38021 -31.1172,-2.38021" /><path
     inkscape:connector-curvature="0"
     id="path7285"
     style="fill:#156c2e;fill-opacity:1;fill-rule:nonzero;stroke:none;stroke-width:1.9269"
     d="m 839.87112,371.14593 c 0,0 19.97367,-7.75506 31.59771,0.39208 11.62673,8.14751 18.45159,19.1921 18.45159,19.1921 0,0 -21.37902,12.69221 -32.02263,5.891 -10.64786,-6.80041 -18.02667,-25.47518 -18.02667,-25.47518" /><path
     inkscape:connector-curvature="0"
     id="path7287"
     style="fill:#156c2e;fill-opacity:1;fill-rule:nonzero;stroke:none;stroke-width:1.9269"
     d="m 868.09517,560.50962 c 0,0 9.95124,-18.97528 24.06625,-20.47888 14.11727,-1.50509 26.52112,2.32978 26.52112,2.32978 0,0 -7.76417,23.61932 -20.25553,25.49247 -12.49405,1.87654 -30.33184,-7.34337 -30.33184,-7.34337" /></g><g
   id="g7307"
   transform="matrix(-0.47765813,-0.53040188,0.53040188,-0.47765813,1291.1608,819.69336)"><path
     inkscape:connector-curvature="0"
     id="path7291"
     style="fill:#156c2e;fill-opacity:1;fill-rule:nonzero;stroke:none;stroke-width:1.9269"
     d="m 970.61745,506.30033 c 0,0 -5.89823,20.59853 -19.41541,24.93212 -13.51911,4.33552 -26.44281,3.0946 -26.44281,3.0946 0,0 2.8152,-24.70282 14.66754,-29.06917 11.85427,-4.3702 31.19068,1.04245 31.19068,1.04245" /><g
     id="g7295"
     transform="matrix(9.7486511,0,0,-9.7486511,1014.6858,708.8476)"
     clip-path="url(#clipPath6752)"><path
       d="m 0,0 0.479,-0.305 c 0,0 -0.777,0.899 -1.223,1.887 -0.446,0.988 -0.996,4.527 -1.36,5.135 -0.361,0.606 -0.841,1.101 -0.726,1.355 0.115,0.254 0.283,0.663 0.383,0.599 0.1,-0.064 0.449,-0.472 0.449,-0.472 0,0 0.204,0.992 0.199,1.604 -0.003,0.612 -0.107,2.647 -0.248,3.16 -0.142,0.512 -2.639,1.592 -3.281,1.907 -0.641,0.317 -2.031,0.268 -3.109,1.002 -1.077,0.735 -1.823,1.399 -2.504,1.508 -0.682,0.106 -1.422,0.486 -1.589,0.593 -0.167,0.106 -0.681,0.107 -0.62,0.349 0.06,0.242 0.125,0.857 0.468,0.733 0.341,-0.125 2.153,-0.955 1.99,-0.406 -0.163,0.55 0.121,2.243 0.031,2.91 -0.089,0.666 -0.091,1.324 -0.394,1.657 -0.302,0.334 -2.041,1.501 -2.506,1.798 -0.466,0.297 -1.523,0.918 -1.289,1.283 0.234,0.365 0.678,0.035 0.782,0.344 0.103,0.308 -0.426,2.193 0.164,2.238 0.591,0.044 0.527,-0.57 0.552,-0.822 0.029,-0.252 -0.16,-1.866 0.074,-2.014 0.233,-0.148 2.551,-2.24 2.652,-1.789 0.102,0.451 0.81,3.467 0.489,4.14 -0.319,0.671 -1.73,2.276 -2,2.588 -0.267,0.314 -1.172,1.172 -1.056,1.427 0.115,0.254 0.41,0.862 0.718,0.759 0.309,-0.104 2.623,-3.082 2.639,-2.764 0.016,0.317 0.106,1.338 0.569,1.183 0.462,-0.155 0.605,-0.667 0.597,-0.898 -0.006,-0.23 -0.216,-2.392 0.1,-2.265 0.314,0.127 0.881,-0.235 0.765,-0.489 -0.116,-0.254 -0.925,-0.347 -0.993,-0.819 -0.066,-0.472 -0.511,-4.687 -0.546,-5.696 -0.035,-1.009 -0.105,-3.025 0.319,-3.39 0.422,-0.364 2.695,-2.005 2.838,-1.674 0.144,0.33 0.815,0.277 1.047,0.128 0.234,-0.148 1.034,-0.379 1.242,-0.558 0.209,-0.18 1.454,-1.586 1.578,-1.29 0.125,0.296 1.446,-0.643 1.804,-1.107 0.362,-0.465 0.118,-1.433 0.062,-1.96 C -0.51,11.043 -0.725,9.165 -0.823,8.572 -0.922,7.979 -0.777,5.637 -0.615,5.158 -0.453,4.679 0.905,2.77 1.053,2.486 1.201,2.205 1.875,-1.058 0,0"
       style="fill:#5f544e;fill-opacity:1;fill-rule:nonzero;stroke:none"
       id="path7293"
       inkscape:connector-curvature="0" /></g><path
     inkscape:connector-curvature="0"
     id="path7297"
     style="fill:#156c2e;fill-opacity:1;fill-rule:nonzero;stroke:none;stroke-width:1.9269"
     d="m 974.22624,397.58111 c 0,0 -5.89823,20.59853 -19.41541,24.93212 -13.51911,4.33552 -26.44281,3.0946 -26.44281,3.0946 0,0 2.8152,-24.70282 14.66754,-29.06917 11.85427,-4.3702 31.19068,1.04245 31.19068,1.04245" /><path
     inkscape:connector-curvature="0"
     id="path7299"
     style="fill:#156c2e;fill-opacity:1;fill-rule:nonzero;stroke:none;stroke-width:1.9269"
     d="m 976.84143,474.60608 c 0,0 -16.57454,13.57841 -30.15493,9.44717 -13.58307,-4.13075 -23.50239,-12.50745 -23.50239,-12.50745 0,0 16.37596,-18.70782 28.60619,-15.55117 12.23401,3.15457 25.05113,18.61145 25.05113,18.61145" /><path
     inkscape:connector-curvature="0"
     id="path7301"
     style="fill:#156c2e;fill-opacity:1;fill-rule:nonzero;stroke:none;stroke-width:1.9269"
     d="m 828.0383,483.549 c 0,0 6.77691,-20.32639 20.46763,-24.07582 13.69273,-3.75127 26.55126,-1.9568 26.55126,-1.9568 0,0 -3.87287,24.55923 -15.90169,28.41283 -12.03092,3.85739 -31.1172,-2.38021 -31.1172,-2.38021" /><path
     inkscape:connector-curvature="0"
     id="path7303"
     style="fill:#156c2e;fill-opacity:1;fill-rule:nonzero;stroke:none;stroke-width:1.9269"
     d="m 839.87112,371.14593 c 0,0 19.97367,-7.75506 31.59771,0.39208 11.62673,8.14751 18.45159,19.1921 18.45159,19.1921 0,0 -21.37902,12.69221 -32.02263,5.891 -10.64786,-6.80041 -18.02667,-25.47518 -18.02667,-25.47518" /><path
     inkscape:connector-curvature="0"
     id="path7305"
     style="fill:#156c2e;fill-opacity:1;fill-rule:nonzero;stroke:none;stroke-width:1.9269"
     d="m 868.09517,560.50962 c 0,0 9.95124,-18.97528 24.06625,-20.47888 14.11727,-1.50509 26.52112,2.32978 26.52112,2.32978 0,0 -7.76417,23.61932 -20.25553,25.49247 -12.49405,1.87654 -30.33184,-7.34337 -30.33184,-7.34337" /></g><g
   id="g7613"
   transform="matrix(0.17138483,0.6929002,0.6929002,-0.17138483,628.40103,-247.83165)"><path
     inkscape:connector-curvature="0"
     id="path7597"
     style="fill:#156c2e;fill-opacity:1;fill-rule:nonzero;stroke:none;stroke-width:1.9269"
     d="m 970.61745,506.30033 c 0,0 -5.89823,20.59853 -19.41541,24.93212 -13.51911,4.33552 -26.44281,3.0946 -26.44281,3.0946 0,0 2.8152,-24.70282 14.66754,-29.06917 11.85427,-4.3702 31.19068,1.04245 31.19068,1.04245" /><g
     id="g7601"
     transform="matrix(9.7486511,0,0,-9.7486511,1014.6858,708.8476)"
     clip-path="url(#clipPath6752)"><path
       d="m 0,0 0.479,-0.305 c 0,0 -0.777,0.899 -1.223,1.887 -0.446,0.988 -0.996,4.527 -1.36,5.135 -0.361,0.606 -0.841,1.101 -0.726,1.355 0.115,0.254 0.283,0.663 0.383,0.599 0.1,-0.064 0.449,-0.472 0.449,-0.472 0,0 0.204,0.992 0.199,1.604 -0.003,0.612 -0.107,2.647 -0.248,3.16 -0.142,0.512 -2.639,1.592 -3.281,1.907 -0.641,0.317 -2.031,0.268 -3.109,1.002 -1.077,0.735 -1.823,1.399 -2.504,1.508 -0.682,0.106 -1.422,0.486 -1.589,0.593 -0.167,0.106 -0.681,0.107 -0.62,0.349 0.06,0.242 0.125,0.857 0.468,0.733 0.341,-0.125 2.153,-0.955 1.99,-0.406 -0.163,0.55 0.121,2.243 0.031,2.91 -0.089,0.666 -0.091,1.324 -0.394,1.657 -0.302,0.334 -2.041,1.501 -2.506,1.798 -0.466,0.297 -1.523,0.918 -1.289,1.283 0.234,0.365 0.678,0.035 0.782,0.344 0.103,0.308 -0.426,2.193 0.164,2.238 0.591,0.044 0.527,-0.57 0.552,-0.822 0.029,-0.252 -0.16,-1.866 0.074,-2.014 0.233,-0.148 2.551,-2.24 2.652,-1.789 0.102,0.451 0.81,3.467 0.489,4.14 -0.319,0.671 -1.73,2.276 -2,2.588 -0.267,0.314 -1.172,1.172 -1.056,1.427 0.115,0.254 0.41,0.862 0.718,0.759 0.309,-0.104 2.623,-3.082 2.639,-2.764 0.016,0.317 0.106,1.338 0.569,1.183 0.462,-0.155 0.605,-0.667 0.597,-0.898 -0.006,-0.23 -0.216,-2.392 0.1,-2.265 0.314,0.127 0.881,-0.235 0.765,-0.489 -0.116,-0.254 -0.925,-0.347 -0.993,-0.819 -0.066,-0.472 -0.511,-4.687 -0.546,-5.696 -0.035,-1.009 -0.105,-3.025 0.319,-3.39 0.422,-0.364 2.695,-2.005 2.838,-1.674 0.144,0.33 0.815,0.277 1.047,0.128 0.234,-0.148 1.034,-0.379 1.242,-0.558 0.209,-0.18 1.454,-1.586 1.578,-1.29 0.125,0.296 1.446,-0.643 1.804,-1.107 0.362,-0.465 0.118,-1.433 0.062,-1.96 C -0.51,11.043 -0.725,9.165 -0.823,8.572 -0.922,7.979 -0.777,5.637 -0.615,5.158 -0.453,4.679 0.905,2.77 1.053,2.486 1.201,2.205 1.875,-1.058 0,0"
       style="fill:#5f544e;fill-opacity:1;fill-rule:nonzero;stroke:none"
       id="path7599"
       inkscape:connector-curvature="0" /></g><path
     inkscape:connector-curvature="0"
     id="path7603"
     style="fill:#156c2e;fill-opacity:1;fill-rule:nonzero;stroke:none;stroke-width:1.9269"
     d="m 974.22624,397.58111 c 0,0 -5.89823,20.59853 -19.41541,24.93212 -13.51911,4.33552 -26.44281,3.0946 -26.44281,3.0946 0,0 2.8152,-24.70282 14.66754,-29.06917 11.85427,-4.3702 31.19068,1.04245 31.19068,1.04245" /><path
     inkscape:connector-curvature="0"
     id="path7605"
     style="fill:#156c2e;fill-opacity:1;fill-rule:nonzero;stroke:none;stroke-width:1.9269"
     d="m 976.84143,474.60608 c 0,0 -16.57454,13.57841 -30.15493,9.44717 -13.58307,-4.13075 -23.50239,-12.50745 -23.50239,-12.50745 0,0 16.37596,-18.70782 28.60619,-15.55117 12.23401,3.15457 25.05113,18.61145 25.05113,18.61145" /><path
     inkscape:connector-curvature="0"
     id="path7607"
     style="fill:#156c2e;fill-opacity:1;fill-rule:nonzero;stroke:none;stroke-width:1.9269"
     d="m 828.0383,483.549 c 0,0 6.77691,-20.32639 20.46763,-24.07582 13.69273,-3.75127 26.55126,-1.9568 26.55126,-1.9568 0,0 -3.87287,24.55923 -15.90169,28.41283 -12.03092,3.85739 -31.1172,-2.38021 -31.1172,-2.38021" /><path
     inkscape:connector-curvature="0"
     id="path7609"
     style="fill:#156c2e;fill-opacity:1;fill-rule:nonzero;stroke:none;stroke-width:1.9269"
     d="m 839.87112,371.14593 c 0,0 19.97367,-7.75506 31.59771,0.39208 11.62673,8.14751 18.45159,19.1921 18.45159,19.1921 0,0 -21.37902,12.69221 -32.02263,5.891 -10.64786,-6.80041 -18.02667,-25.47518 -18.02667,-25.47518" /><path
     inkscape:connector-curvature="0"
     id="path7611"
     style="fill:#156c2e;fill-opacity:1;fill-rule:nonzero;stroke:none;stroke-width:1.9269"
     d="m 868.09517,560.50962 c 0,0 9.95124,-18.97528 24.06625,-20.47888 14.11727,-1.50509 26.52112,2.32978 26.52112,2.32978 0,0 -7.76417,23.61932 -20.25553,25.49247 -12.49405,1.87654 -30.33184,-7.34337 -30.33184,-7.34337" /></g><g
   id="g7631"
   transform="matrix(-0.17138483,0.6929002,-0.6929002,-0.17138483,577.21613,-247.4711)"><path
     inkscape:connector-curvature="0"
     id="path7615"
     style="fill:#156c2e;fill-opacity:1;fill-rule:nonzero;stroke:none;stroke-width:1.9269"
     d="m 970.61745,506.30033 c 0,0 -5.89823,20.59853 -19.41541,24.93212 -13.51911,4.33552 -26.44281,3.0946 -26.44281,3.0946 0,0 2.8152,-24.70282 14.66754,-29.06917 11.85427,-4.3702 31.19068,1.04245 31.19068,1.04245" /><g
     id="g7619"
     transform="matrix(9.7486511,0,0,-9.7486511,1014.6858,708.8476)"
     clip-path="url(#clipPath6752)"><path
       d="m 0,0 0.479,-0.305 c 0,0 -0.777,0.899 -1.223,1.887 -0.446,0.988 -0.996,4.527 -1.36,5.135 -0.361,0.606 -0.841,1.101 -0.726,1.355 0.115,0.254 0.283,0.663 0.383,0.599 0.1,-0.064 0.449,-0.472 0.449,-0.472 0,0 0.204,0.992 0.199,1.604 -0.003,0.612 -0.107,2.647 -0.248,3.16 -0.142,0.512 -2.639,1.592 -3.281,1.907 -0.641,0.317 -2.031,0.268 -3.109,1.002 -1.077,0.735 -1.823,1.399 -2.504,1.508 -0.682,0.106 -1.422,0.486 -1.589,0.593 -0.167,0.106 -0.681,0.107 -0.62,0.349 0.06,0.242 0.125,0.857 0.468,0.733 0.341,-0.125 2.153,-0.955 1.99,-0.406 -0.163,0.55 0.121,2.243 0.031,2.91 -0.089,0.666 -0.091,1.324 -0.394,1.657 -0.302,0.334 -2.041,1.501 -2.506,1.798 -0.466,0.297 -1.523,0.918 -1.289,1.283 0.234,0.365 0.678,0.035 0.782,0.344 0.103,0.308 -0.426,2.193 0.164,2.238 0.591,0.044 0.527,-0.57 0.552,-0.822 0.029,-0.252 -0.16,-1.866 0.074,-2.014 0.233,-0.148 2.551,-2.24 2.652,-1.789 0.102,0.451 0.81,3.467 0.489,4.14 -0.319,0.671 -1.73,2.276 -2,2.588 -0.267,0.314 -1.172,1.172 -1.056,1.427 0.115,0.254 0.41,0.862 0.718,0.759 0.309,-0.104 2.623,-3.082 2.639,-2.764 0.016,0.317 0.106,1.338 0.569,1.183 0.462,-0.155 0.605,-0.667 0.597,-0.898 -0.006,-0.23 -0.216,-2.392 0.1,-2.265 0.314,0.127 0.881,-0.235 0.765,-0.489 -0.116,-0.254 -0.925,-0.347 -0.993,-0.819 -0.066,-0.472 -0.511,-4.687 -0.546,-5.696 -0.035,-1.009 -0.105,-3.025 0.319,-3.39 0.422,-0.364 2.695,-2.005 2.838,-1.674 0.144,0.33 0.815,0.277 1.047,0.128 0.234,-0.148 1.034,-0.379 1.242,-0.558 0.209,-0.18 1.454,-1.586 1.578,-1.29 0.125,0.296 1.446,-0.643 1.804,-1.107 0.362,-0.465 0.118,-1.433 0.062,-1.96 C -0.51,11.043 -0.725,9.165 -0.823,8.572 -0.922,7.979 -0.777,5.637 -0.615,5.158 -0.453,4.679 0.905,2.77 1.053,2.486 1.201,2.205 1.875,-1.058 0,0"
       style="fill:#5f544e;fill-opacity:1;fill-rule:nonzero;stroke:none"
       id="path7617"
       inkscape:connector-curvature="0" /></g><path
     inkscape:connector-curvature="0"
     id="path7621"
     style="fill:#156c2e;fill-opacity:1;fill-rule:nonzero;stroke:none;stroke-width:1.9269"
     d="m 974.22624,397.58111 c 0,0 -5.89823,20.59853 -19.41541,24.93212 -13.51911,4.33552 -26.44281,3.0946 -26.44281,3.0946 0,0 2.8152,-24.70282 14.66754,-29.06917 11.85427,-4.3702 31.19068,1.04245 31.19068,1.04245" /><path
     inkscape:connector-curvature="0"
     id="path7623"
     style="fill:#156c2e;fill-opacity:1;fill-rule:nonzero;stroke:none;stroke-width:1.9269"
     d="m 976.84143,474.60608 c 0,0 -16.57454,13.57841 -30.15493,9.44717 -13.58307,-4.13075 -23.50239,-12.50745 -23.50239,-12.50745 0,0 16.37596,-18.70782 28.60619,-15.55117 12.23401,3.15457 25.05113,18.61145 25.05113,18.61145" /><path
     inkscape:connector-curvature="0"
     id="path7625"
     style="fill:#156c2e;fill-opacity:1;fill-rule:nonzero;stroke:none;stroke-width:1.9269"
     d="m 828.0383,483.549 c 0,0 6.77691,-20.32639 20.46763,-24.07582 13.69273,-3.75127 26.55126,-1.9568 26.55126,-1.9568 0,0 -3.87287,24.55923 -15.90169,28.41283 -12.03092,3.85739 -31.1172,-2.38021 -31.1172,-2.38021" /><path
     inkscape:connector-curvature="0"
     id="path7627"
     style="fill:#156c2e;fill-opacity:1;fill-rule:nonzero;stroke:none;stroke-width:1.9269"
     d="m 839.87112,371.14593 c 0,0 19.97367,-7.75506 31.59771,0.39208 11.62673,8.14751 18.45159,19.1921 18.45159,19.1921 0,0 -21.37902,12.69221 -32.02263,5.891 -10.64786,-6.80041 -18.02667,-25.47518 -18.02667,-25.47518" /><path
     inkscape:connector-curvature="0"
     id="path7629"
     style="fill:#156c2e;fill-opacity:1;fill-rule:nonzero;stroke:none;stroke-width:1.9269"
     d="m 868.09517,560.50962 c 0,0 9.95124,-18.97528 24.06625,-20.47888 14.11727,-1.50509 26.52112,2.32978 26.52112,2.32978 0,0 -7.76417,23.61932 -20.25553,25.49247 -12.49405,1.87654 -30.33184,-7.34337 -30.33184,-7.34337" /></g><rect
   class="jmiguelrivas-github-io"
   width="96.860107"
   height="99.764992"
   x="0.95151508"
   y="-269.26813"
   fill="#6495cf"
   id="rect8281"
   style="fill:#86e1a9;fill-opacity:1;stroke-width:0.324179" /><rect
   class="jmiguelrivas-github-io"
   width="96.860107"
   height="99.764992"
   x="151.96407"
   y="-269.26813"
   fill="#6495cf"
   id="rect8446"
   style="fill:#d1c7aa;fill-opacity:1;stroke-width:0.324179" /><path
   style="fill:none;fill-opacity:1;stroke:#000000;stroke-width:7.37571;stroke-linecap:round;stroke-linejoin:round;stroke-dasharray:none;stroke-opacity:1"
   d="m 445.26428,-447.48745 c 2.38836,-12.77217 9.2288,-24.66731 19.06653,-33.15563 9.83774,-8.48832 22.60653,-13.51267 35.59077,-14.00449 12.98425,-0.49182 26.09654,3.55219 36.54821,11.27198 10.45167,7.71979 18.17235,19.06338 21.52006,31.61828 4.56552,17.12205 1.07097,35.27391 -3.1114,52.49356 -4.18237,17.21965 -9.08181,34.75201 -7.24852,52.37721 1.77559,17.07044 10.11507,33.37489 22.91729,44.80537 12.80221,11.43049 29.94362,17.87673 47.10539,17.71456 17.16178,-0.16217 34.17831,-6.93118 46.76223,-18.60156 12.58392,-11.67038 20.6138,-28.1295 22.06649,-45.23045"
   id="path9926"
   inkscape:path-effect="#path-effect9928"
   inkscape:original-d="m 445.26428,-447.48745 c 37.21013,-1.22617 75.15082,-2.84613 112.72557,-4.26986 37.57475,-1.42373 -6.90617,69.91429 -10.35992,104.87077 -3.45376,34.95648 92.56805,-0.87428 138.8514,-1.31208" /></svg>
